<?xml version="1.0" standalone="no"?>
<!DOCTYPE svg PUBLIC "-//W3C//DTD SVG 1.1//EN" "http://www.w3.org/Graphics/SVG/1.1/DTD/svg11.dtd" >
<svg xmlns="http://www.w3.org/2000/svg" xmlns:xlink="http://www.w3.org/1999/xlink" version="1.1">
<metadata></metadata>
<defs>
<font id="verbextrabold_italic" horiz-adv-x="1320" >
<font-face units-per-em="2048" ascent="1638" descent="-410" />
<missing-glyph horiz-adv-x="546" />
<glyph unicode="&#xfb01;" horiz-adv-x="1363" d="M-211 -217q66 21 106.5 35.5t73.5 35.5t48.5 36t30 49.5t21 62t17.5 86.5l135 741h-143l41 246h147l4 25q32 204 114 298.5t247 94.5q75 0 166.5 -28.5t156.5 -61.5l-114 -225q-84 26 -135 26q-80 0 -97 -100l-6 -29h256l-43 -246h-258l-129 -714q-35 -199 -62 -270 q-44 -121 -143 -187q-112 -75 -362 -129zM807 0l190 1075h336l-190 -1075h-336zM1014 1212l47 275h350l-45 -275h-352z" />
<glyph unicode="&#xfb02;" horiz-adv-x="1370" d="M-211 -217q66 21 106.5 35.5t73.5 35.5t48.5 36t30 49.5t21 62t17.5 86.5l135 741h-143l41 246h147l4 25q32 204 114 298.5t247 94.5q75 0 166.5 -28.5t156.5 -61.5l-114 -225q-84 26 -135 26q-80 0 -97 -100l-6 -29h256l-43 -246h-258l-129 -714q-35 -199 -62 -270 q-44 -121 -143 -187q-112 -75 -362 -129zM809 0l264 1493h336l-264 -1493h-336z" />
<glyph unicode="&#xfb03;" horiz-adv-x="2152" d="M-211 -217q66 21 106.5 35.5t73.5 35.5t48.5 36t30 49.5t21 62t17.5 86.5l135 741h-143l41 246h147l4 25q32 204 113.5 298.5t249.5 94.5q189 0 399 -113l-125 -215q-125 39 -202 39q-80 0 -97 -100l-6 -29h225l-43 -246h-227l-129 -714q-35 -199 -62 -270 q-44 -121 -143 -187q-112 -75 -362 -129zM580 -217q49 15 83 26.5t63.5 26.5t47 25t34 30t24 34t16.5 44t13.5 52t12.5 67l136 741h-144l43 246h146l4 25q34 205 114.5 299t245.5 94q77 0 167.5 -28.5t156.5 -61.5l-115 -225q-80 26 -133 26q-79 0 -98 -100l-6 -29h256 l-43 -246h-256l-129 -714q-37 -199 -62 -268q-44 -121 -142 -187q-111 -77 -364 -131zM1595 0l191 1075h336l-191 -1075h-336zM1804 1212l47 275h351l-45 -275h-353z" />
<glyph unicode="&#xfb04;" horiz-adv-x="2158" d="M-211 -217q66 21 106.5 35.5t73.5 35.5t48.5 36t30 49.5t21 62t17.5 86.5l135 741h-143l41 246h147l4 25q32 204 113.5 298.5t249.5 94.5q189 0 399 -113l-125 -215q-125 39 -202 39q-80 0 -97 -100l-6 -29h225l-43 -246h-227l-129 -714q-35 -199 -62 -270 q-44 -121 -143 -187q-112 -75 -362 -129zM580 -217q49 15 83 26.5t63.5 26.5t47 25t34 30t24 34t16.5 44t13.5 52t12.5 67l136 741h-144l43 246h146l4 25q34 205 114.5 299t245.5 94q77 0 167.5 -28.5t156.5 -61.5l-115 -225q-80 26 -133 26q-79 0 -98 -100l-6 -29h256 l-43 -246h-256l-129 -714q-37 -199 -62 -268q-44 -121 -142 -187q-111 -77 -364 -131zM1599 0l265 1493h336l-265 -1493h-336z" />
<glyph horiz-adv-x="0" />
<glyph horiz-adv-x="682" />
<glyph unicode=" "  horiz-adv-x="546" />
<glyph unicode="&#x09;" horiz-adv-x="546" />
<glyph unicode="&#xa0;" horiz-adv-x="546" />
<glyph unicode="!" horiz-adv-x="587" d="M16 0l56 336h340l-56 -336h-340zM168 475l65 959h410l-274 -959h-201z" />
<glyph unicode="&#x22;" horiz-adv-x="907" d="M170 864l45 570h317l-153 -570h-209zM612 864l45 570h318l-156 -570h-207z" />
<glyph unicode="#" horiz-adv-x="1499" d="M20 309l43 252h259l102 311h-219l41 252h260l102 310h262l-102 -310h264l103 310h262l-103 -310h222l-41 -252h-263l-102 -311h221l-41 -252h-264l-100 -309h-260l100 309h-264l-101 -309h-262l101 309h-220zM584 561h264l102 311h-264z" />
<glyph unicode="$" horiz-adv-x="1357" d="M-6 201l182 237q120 -70 252.5 -121t235.5 -51q92 0 151 35.5t59 95.5q0 33 -21.5 58.5t-64.5 44.5t-88 33.5t-110.5 36.5t-114.5 44q-52 23 -93 47t-82.5 59t-69.5 74.5t-45 94t-17 117.5q0 92 36.5 173t104 142t172 97.5t232.5 37.5l32 184h242l-37 -210 q186 -41 410 -166l-182 -232q-94 52 -218.5 93.5t-214.5 41.5q-84 0 -141 -33t-57 -96q0 -31 18.5 -53.5t57.5 -39t81 -29.5t108.5 -35.5t121.5 -46.5q51 -22 91.5 -44.5t85 -58t73.5 -75t48 -96t19 -122.5q0 -196 -151 -326.5t-408 -134.5l-30 -182h-242l37 207 q-131 27 -251.5 81t-211.5 118z" />
<glyph unicode="%" horiz-adv-x="2070" d="M137 1010q0 121 49 220.5t150.5 162.5t238.5 63q177 0 281.5 -87.5t104.5 -233.5q0 -90 -29 -170t-82.5 -142t-138.5 -98.5t-189 -36.5q-176 0 -280.5 87.5t-104.5 234.5zM387 1034q0 -149 145 -149q83 0 131 72.5t48 152.5q0 69 -35 109.5t-109 40.5q-83 0 -131.5 -73 t-48.5 -153zM428 0l985 1434h262l-987 -1434h-260zM1145 299q0 121 49 220.5t151 162.5t240 63q177 0 281 -87t104 -234q0 -90 -29 -170t-83 -142t-139 -98.5t-189 -36.5q-176 0 -280.5 87.5t-104.5 234.5zM1397 324q0 -150 143 -150q57 0 99 38t60.5 87.5t18.5 99.5 q0 150 -143 150q-57 0 -99 -38t-60.5 -87.5t-18.5 -99.5z" />
<glyph unicode="&#x26;" horiz-adv-x="1484" d="M53 344q0 61 20.5 116.5t52.5 98.5t81 85t96.5 72.5t108.5 63.5q-62 78 -93.5 148.5t-31.5 152.5q0 163 129.5 269t331.5 106q187 0 299 -91.5t112 -227.5q0 -65 -27.5 -124.5t-80.5 -111.5t-108 -93t-132 -87l174 -205q81 114 131 240h336q-30 -105 -100.5 -230.5 t-171.5 -236.5l245 -289h-356l-96 113q-207 -136 -449 -136q-213 0 -342 101t-129 266zM383 352q0 -53 41.5 -89t120.5 -36q118 0 250 97l-217 258q-95 -62 -145 -116.5t-50 -113.5zM588 1069q0 -73 67 -164q96 54 146.5 102.5t50.5 106.5q0 41 -28.5 73t-84.5 32 q-70 0 -110.5 -45t-40.5 -105z" />
<glyph unicode="'" horiz-adv-x="464" d="M170 864l45 570h317l-153 -570h-209z" />
<glyph unicode="(" horiz-adv-x="686" d="M18.5 -16q-8.5 97 18.5 239l176 979q17 95 29 144.5t37.5 109.5t59 90t93 65.5t140.5 59t200 47.5l59 -196q-79 -26 -123.5 -46.5t-72 -49.5t-37.5 -57.5t-20 -82.5l-205 -1147q-24 -103 -0.5 -155t133.5 -99l-86 -178q-209 48 -301 114t-100.5 163z" />
<glyph unicode=")" horiz-adv-x="688" d="M-113 -96q79 26 123 46t71 48.5t37.5 57.5t20.5 83l207 1147q24 103 0.5 155t-133.5 97l86 180q208 -48 300 -114t100.5 -163t-19.5 -239l-174 -979q-17 -95 -29 -144.5t-37.5 -109.5t-59.5 -90t-93.5 -65.5t-140.5 -59t-201 -47.5z" />
<glyph unicode="*" horiz-adv-x="980" d="M143 1020l332 18l-305 136l180 215l182 -283l-36 332l270 -49l-148 -297l267 200l94 -262l-320 -20l291 -133l-178 -213l-178 266l35 -320l-273 47l148 301l-266 -198z" />
<glyph unicode="+" d="M125 557l41 252h397l66 365h258l-66 -365h400l-43 -252h-400l-63 -364h-258l63 364h-395z" />
<glyph unicode="," horiz-adv-x="555" d="M-47 -233l197 233h-152l61 367h340l-47 -410l-329 -301z" />
<glyph unicode="-" horiz-adv-x="882" d="M78 449l47 268h668l-48 -268h-667z" />
<glyph unicode="." horiz-adv-x="548" d="M-2 0l61 367h342l-61 -367h-342z" />
<glyph unicode="/" horiz-adv-x="1009" d="M-94 -184l971 1802h264l-973 -1802h-262z" />
<glyph unicode="0" horiz-adv-x="1423" d="M92 588q0 63 8 134t30 157t55 165.5t87.5 155.5t123.5 132t167.5 90t214.5 34q130 0 233 -35t168.5 -93t108.5 -139t60.5 -165.5t17.5 -179.5q0 -48 -5 -101.5t-17 -117.5t-31 -127t-48.5 -128t-67 -122t-90 -108t-114.5 -87t-142 -57t-171 -21q-108 0 -198 24t-153 68 t-110 101t-74 127.5t-40 142.5t-13 150zM442 557q0 -49 5 -90t21 -83.5t41.5 -71.5t69 -47.5t101.5 -18.5q75 0 136 51.5t97 127t60 165.5t33 162t8 122t-6 90.5t-20.5 83.5t-40.5 72t-68.5 47.5t-102.5 18.5q-63 0 -116.5 -36t-88.5 -95t-61.5 -128t-40.5 -142t-21 -130 t-6 -98z" />
<glyph unicode="1" horiz-adv-x="866" d="M96 1208l441 226h331l-254 -1434h-348l197 1087l-258 -122z" />
<glyph unicode="2" horiz-adv-x="1265" d="M-45 0l25 152q11 68 35.5 129t53 108t74 94.5t82.5 79t97 71t98.5 62.5t105.5 60q215 121 251 145q105 68 124 125q6 17 6 35q-2 47 -45.5 76.5t-122.5 29.5q-164 0 -397 -133l-127 242q291 180 571 180q228 0 351 -108t123 -273q0 -211 -228 -380q-96 -71 -310 -182h-1 l-1 -1h-1l-1 -1h-1l-1 -1h-1l-1 -1h-1l-1 -1h-1l-1 -1h-1l-1 -1h-1l-1 -1h-1l-1 -1h-1l-1 -1h-1l-1 -1q-147 -74 -200 -115.5t-66 -97.5h682l-47 -289h-1114z" />
<glyph unicode="3" horiz-adv-x="1275" d="M-47 197l174 217q239 -144 424 -144q120 0 189 47.5t69 122.5q0 172 -354 172h-62l47 289h74q59 0 116 8t110.5 26t86.5 51.5t33 78.5q0 47 -38 74.5t-111 27.5q-85 0 -191 -36.5t-196 -83.5l-111 237q272 172 567 172q217 0 330 -92.5t113 -233.5q0 -117 -77.5 -207 t-217.5 -149q105 -36 170 -127t65 -213q0 -63 -18 -124.5t-61.5 -122.5t-107.5 -107t-164.5 -74.5t-223.5 -28.5q-337 0 -635 220z" />
<glyph unicode="4" horiz-adv-x="1400" d="M-23 262l41 242l799 930h465l-158 -883h215l-49 -289h-217l-45 -262h-348l45 262h-748zM401 551h375l101 565z" />
<glyph unicode="5" horiz-adv-x="1259" d="M-31 197l193 219q184 -140 356 -140q119 0 204 58.5t85 157.5q0 77 -54.5 125.5t-158.5 48.5q-70 0 -131.5 -22t-134.5 -62l-191 127l201 725h932l-47 -289h-635l-53 -217q77 18 163 18q114 0 204.5 -35t147 -96t86 -139.5t29.5 -169.5q0 -103 -40.5 -197.5t-115 -169 t-192.5 -118.5t-262 -44q-318 0 -586 220z" />
<glyph unicode="6" horiz-adv-x="1327" d="M76 530q0 191 72.5 361.5t199 295t308.5 197t391 72.5q79 0 146.5 -10t95.5 -20l28 -11l-123 -254q-59 13 -135 13q-119 0 -225 -34.5t-197.5 -112t-144.5 -191.5q123 90 307 90q203 0 324.5 -117.5t121.5 -304.5q0 -104 -39.5 -198.5t-111.5 -168t-185 -117t-250 -43.5 q-140 0 -253 45t-184 122t-108.5 176t-37.5 210zM426 506q0 -105 59.5 -175.5t165.5 -70.5q116 0 180 69t64 158q0 79 -52.5 130t-156.5 51q-82 0 -152.5 -39.5t-107.5 -87.5v-35z" />
<glyph unicode="7" horiz-adv-x="1097" d="M84 0q19 106 64.5 223.5t99 217.5t124 207t127 181.5t120.5 151.5t91 107t52 57h-625l45 289h1028l-43 -271q-13 -13 -35 -36.5t-87.5 -98t-127 -151.5t-139.5 -189t-139 -218.5t-112.5 -232t-71.5 -237.5h-371z" />
<glyph unicode="8" horiz-adv-x="1347" d="M20 362q0 66 22 124.5t57.5 103t87.5 84t104.5 67.5t116.5 54q-166 118 -166 284q0 167 144 272t398 105q237 0 368.5 -93t131.5 -245q0 -209 -285 -350q113 -60 180.5 -145t67.5 -209q0 -197 -176 -317t-477 -120q-274 0 -424 102t-150 283zM377 399q0 -72 59.5 -115.5 t163.5 -43.5q122 0 206.5 55.5t84.5 138.5q0 122 -199 215q-53 -18 -92.5 -33.5t-84 -39t-73 -48t-47 -58t-18.5 -71.5zM578 1042q0 -49 35 -83.5t98 -65.5q53 18 88.5 33t70 36.5t51.5 48.5t17 60q0 52 -41 91.5t-117 39.5q-86 0 -144 -48.5t-58 -111.5z" />
<glyph unicode="9" horiz-adv-x="1329" d="M45 18l123 254q59 -12 135 -12q88 0 170 19.5t157 59.5t136.5 105.5t101.5 151.5q-123 -90 -305 -90q-203 0 -324.5 118.5t-121.5 305.5q0 105 39 199t111.5 167.5t185 116.5t249.5 43q140 0 253 -45t184 -122t109 -176.5t38 -211.5q0 -191 -72.5 -361t-199 -294 t-308.5 -196.5t-391 -72.5q-79 0 -146.5 10.5t-95.5 20.5zM467 944q0 -79 52 -128.5t157 -49.5q82 0 151.5 39.5t106.5 87.5q0 5 1 17t1 18q0 104 -59.5 175t-165.5 71q-116 0 -180 -69.5t-64 -160.5z" />
<glyph unicode=":" horiz-adv-x="575" d="M10 0l64 367h340l-62 -367h-342zM123 627l61 368h342l-61 -368h-342z" />
<glyph unicode=";" horiz-adv-x="589" d="M-31 -233l197 233h-152l62 367h340l-47 -410l-330 -301zM127 627l61 368h340l-61 -368h-340z" />
<glyph unicode="&#x3c;" d="M98 569l37 228l1125 415l-48 -292l-741 -252l645 -254l-41 -260z" />
<glyph unicode="=" d="M88 362l43 252h1053l-41 -252h-1055zM158 758l41 250h1052l-41 -250h-1052z" />
<glyph unicode="&#x3e;" d="M82 154l45 292l739 250l-643 256l43 260l977 -415l-37 -228z" />
<glyph unicode="?" horiz-adv-x="1122" d="M172 1311q267 145 514 145q203 0 323.5 -98.5t120.5 -261.5q0 -82 -30.5 -152t-81 -119.5t-123 -89t-149.5 -64t-166 -40.5l-50 -156h-206l38 344q213 35 314.5 87.5t101.5 137.5q0 56 -41.5 89.5t-122.5 33.5q-129 0 -329 -106zM174 0l55 336h340l-55 -336h-340z" />
<glyph unicode="@" horiz-adv-x="1945" d="M57 393q0 207 75.5 391.5t210.5 322t337 218t442 80.5q166 0 300 -42t221.5 -112t144 -164.5t77.5 -197.5t13 -213q-4 -57 -13.5 -117t-28.5 -134.5t-45.5 -141.5t-68 -132t-92.5 -112t-122 -76t-154 -29q-65 0 -114 17.5t-76 43t-43 61t-21 65t-4 61.5 q-162 -137 -340 -137q-126 0 -204.5 79t-78.5 204q0 160 107.5 248t269.5 88q41 0 92.5 -6.5t86.5 -13t83.5 -16.5t58.5 -12l15 80q15 86 -15.5 122t-119.5 36q-144 0 -355 -80l-59 176q252 90 459 90q200 0 278.5 -88t44.5 -274l-55 -313q-9 -50 -14 -81.5t-8 -67.5 t1.5 -56.5t14.5 -39t29.5 -26.5t48.5 -8q77 0 149 80.5t119.5 217t56.5 292.5q8 87 -5.5 169.5t-57.5 165t-115.5 144t-190.5 99.5t-272 38q-146 0 -276.5 -33.5t-233.5 -93.5t-185.5 -144t-136.5 -184t-83 -214t-29 -234q0 -293 165.5 -469t459.5 -176q104 0 202 22t145 44 l46 22l59 -92q-8 -4 -22 -11.5t-61 -26t-97.5 -32.5t-127 -25.5t-152.5 -11.5q-225 0 -393.5 99t-255.5 270.5t-87 390.5zM725 358q0 -64 35 -94.5t96 -30.5q58 0 129.5 30t138.5 87l25 144q-170 32 -227 32q-100 0 -148.5 -47.5t-48.5 -120.5z" />
<glyph unicode="A" horiz-adv-x="1454" d="M-100 0l780 1434h387l274 -1434h-368l-35 262h-510l-125 -262h-403zM559 535h344l-74 563z" />
<glyph unicode="B" horiz-adv-x="1423" d="M31 0l252 1434h583q238 0 371 -87.5t133 -242.5q0 -73 -31 -136.5t-79 -104t-99.5 -66t-97.5 -31.5q30 -5 63 -19t69.5 -41t65 -62.5t47.5 -89t19 -116.5q0 -213 -143.5 -325.5t-407.5 -112.5h-745zM424 268h266q141 0 218 53.5t77 155.5q0 150 -242 150h-251zM532 877 h232q105 0 178.5 42.5t73.5 129.5q0 116 -205 116h-223z" />
<glyph unicode="C" horiz-adv-x="1347" d="M86 553q0 210 54.5 382t150.5 285t226.5 174.5t281.5 61.5q74 0 148 -14.5t128.5 -32.5t125 -53t109 -57.5t107.5 -65.5l-186 -246q-128 78 -216.5 116t-174.5 38q-91 0 -166.5 -46.5t-124.5 -124t-76 -178t-27 -210.5q0 -291 209 -291q154 0 439 149l147 -276 q-180 -90 -343 -138.5t-327 -48.5q-225 0 -355 145t-130 431z" />
<glyph unicode="D" horiz-adv-x="1486" d="M31 0l252 1434h467q149 0 266.5 -29t196 -79.5t130.5 -124t74.5 -158t22.5 -185.5q0 -65 -9 -135t-33.5 -155.5t-62.5 -163.5t-101.5 -153t-144 -129.5t-196.5 -88t-254 -33.5h-608zM428 295h160q105 0 191 34t142 89t94 128.5t54 150t16 155.5q0 153 -93 220t-283 67 h-127z" />
<glyph unicode="E" horiz-adv-x="1263" d="M31 0l252 1434h1034l-47 -295h-686l-54 -277h560l-50 -289h-559l-53 -278h696l-49 -295h-1044z" />
<glyph unicode="F" horiz-adv-x="1212" d="M31 0l252 1434h1034l-47 -295h-686l-54 -279h541l-49 -289h-541l-102 -571h-348z" />
<glyph unicode="G" horiz-adv-x="1462" d="M86 547q0 216 56 390t153.5 286.5t228 172.5t281.5 60q94 0 183.5 -18.5t177 -57t144 -69t142.5 -82.5l-188 -248q-65 39 -104.5 60.5t-98 48t-111.5 39t-106 12.5q-122 0 -214 -79.5t-138 -205t-46 -274.5q0 -308 220 -308q145 0 335 154l25 131h-317l45 275h645 l-146 -834h-327l22 133q-196 -156 -391 -156q-211 0 -341 146.5t-130 423.5z" />
<glyph unicode="H" horiz-adv-x="1492" d="M31 0l252 1434h350l-94 -537h518l94 537h348l-252 -1434h-348l107 608h-519l-106 -608h-350z" />
<glyph unicode="I" horiz-adv-x="626" d="M31 0l252 1434h350l-252 -1434h-350z" />
<glyph unicode="J" horiz-adv-x="626" d="M-233 -109q62 18 102.5 32t71.5 30.5t48.5 31t30.5 37t19 44t12 57.5l232 1311h348l-228 -1293q-29 -166 -53 -228q-43 -109 -148 -172q-114 -68 -358 -120z" />
<glyph unicode="K" horiz-adv-x="1431" d="M31 0l252 1434h350l-107 -600l592 600h449l-688 -678l458 -756h-385l-311 524l-205 -202l-55 -322h-350z" />
<glyph unicode="L" horiz-adv-x="1171" d="M31 0l252 1434h350l-205 -1145h662l-46 -289h-1013z" />
<glyph unicode="M" horiz-adv-x="1751" d="M31 0l252 1434h356l227 -807l535 807h356l-252 -1434h-348l148 842l-398 -602h-186l-184 653l-156 -893h-350z" />
<glyph unicode="N" horiz-adv-x="1525" d="M31 0l252 1434h354l383 -930l164 930h348l-252 -1434h-354l-381 930l-164 -930h-350z" />
<glyph unicode="O" horiz-adv-x="1581" d="M86 610q0 64 9 135.5t33.5 155t61.5 160.5t97 150t135.5 126.5t182 86t231.5 32.5q337 0 515.5 -167t178.5 -468q0 -64 -9 -135.5t-33.5 -155t-61.5 -160.5t-97 -150t-135.5 -126.5t-182 -86t-231.5 -32.5q-337 0 -515.5 167t-178.5 468zM446 621q0 -349 322 -349 q86 0 156 37t114.5 94.5t75 131t43 143t12.5 133.5q0 348 -321 348q-86 0 -156.5 -37t-115 -94.5t-75 -130.5t-43 -142.5t-12.5 -133.5z" />
<glyph unicode="P" horiz-adv-x="1380" d="M31 0l252 1434h551q573 0 573 -422q0 -72 -19.5 -142.5t-64.5 -139.5t-111 -121t-167 -84.5t-224 -32.5h-352l-88 -492h-350zM516 778h244q138 0 213.5 59.5t75.5 163.5q0 144 -220 144h-243z" />
<glyph unicode="Q" horiz-adv-x="1581" d="M86 610q0 64 9 135.5t33.5 155t61.5 160.5t97 150t135.5 126.5t182 86t231.5 32.5q337 0 515.5 -167t178.5 -468v-11q0 -69 -12 -144q-12 -81 -44 -177t-81 -179.5t-130.5 -158.5t-183.5 -118l187 -174l-248 -217l-289 335q-313 12 -478 177.5t-165 455.5zM446 621 q0 -349 322 -349q86 0 156 37t114.5 94.5t75 131t43 143t12.5 133.5q0 348 -321 348q-86 0 -156.5 -37t-115 -94.5t-75 -130.5t-43 -142.5t-12.5 -133.5z" />
<glyph unicode="R" horiz-adv-x="1445" d="M31 0l252 1434h616q279 0 419 -101.5t140 -300.5q0 -76 -26 -151t-76.5 -143.5t-138 -119.5t-199.5 -69l256 -549h-359l-237 539h-201l-96 -539h-350zM522 811h293q134 0 208.5 55.5t74.5 157.5q0 77 -61 107t-169 30h-280z" />
<glyph unicode="S" horiz-adv-x="1323" d="M-25 201l185 237q118 -69 250 -120.5t237 -51.5q92 0 151.5 35.5t59.5 95.5q0 33 -21.5 58.5t-64.5 44.5t-88 33.5t-111.5 36.5t-115.5 44q-66 29 -115.5 61t-95 78.5t-70 110.5t-24.5 142q0 193 148.5 321.5t406.5 128.5q305 0 636 -192l-184 -232q-92 52 -216 93.5 t-214 41.5q-85 0 -143 -33t-58 -96q0 -31 18.5 -53.5t57.5 -39t81 -29.5t108.5 -35.5t121.5 -46.5q52 -22 92.5 -44.5t84.5 -58t73.5 -75t48.5 -96t19 -122.5q0 -199 -154.5 -330t-416.5 -131q-188 0 -369.5 66t-317.5 158z" />
<glyph unicode="T" horiz-adv-x="1222" d="M119 1139l49 295h1169l-49 -295h-409l-203 -1139h-350l202 1139h-409z" />
<glyph unicode="U" horiz-adv-x="1470" d="M108 488q4 70 19 155l139 791h352l-155 -869q-11 -47 -11 -90q0 -11 1 -23q4 -52 23 -91.5t68.5 -62t127.5 -22.5t135 21.5t92 63t55 90t33 114.5l154 869h350l-156 -883q-18 -101 -45.5 -181t-79 -156t-122 -126.5t-178 -80.5t-244.5 -30q-113 0 -202 17.5t-151 49 t-104.5 78.5t-65.5 102q-23 54 -31 124q-6 45 -6 92q0 24 2 48z" />
<glyph unicode="V" horiz-adv-x="1449" d="M143 1434h392l135 -1022l485 1022h432l-778 -1434h-389z" />
<glyph unicode="W" horiz-adv-x="1988" d="M160 1434h391l35 -928l399 928h291l63 -916l355 916h415l-647 -1434h-342l-69 932l-404 -932h-342z" />
<glyph unicode="X" horiz-adv-x="1357" d="M-115 0l598 723l-321 711h383l172 -496l340 496h428l-576 -711l348 -723h-391l-188 485l-350 -485h-443z" />
<glyph unicode="Y" horiz-adv-x="1361" d="M135 1434h371l194 -572l396 572h407l-663 -869l-97 -565h-350l101 569z" />
<glyph unicode="Z" horiz-adv-x="1310" d="M-49 0l45 268l858 871h-655l49 295h1124l-43 -267l-860 -872h711l-50 -295h-1179z" />
<glyph unicode="[" horiz-adv-x="747" d="M-37 -293l354 2011h590l-33 -194h-241l-289 -1624h242l-33 -193h-590z" />
<glyph unicode="\" horiz-adv-x="983" d="M209 1618h235l365 -1802h-236z" />
<glyph unicode="]" horiz-adv-x="747" d="M-127 -293l33 193h239l289 1624h-239l32 194h590l-354 -2011h-590z" />
<glyph unicode="^" d="M117 655l512 779h346l248 -779h-349l-110 445l-262 -445h-385z" />
<glyph unicode="_" horiz-adv-x="1449" d="M-66 -379l37 240h1233l-37 -240h-1233z" />
<glyph unicode="`" horiz-adv-x="507" d="M217 1493h354l207 -287h-258z" />
<glyph unicode="a" horiz-adv-x="1292" d="M45 381q0 210 65.5 373t184.5 253.5t272 90.5q57 0 109 -12.5t96.5 -37.5t71.5 -44t63 -48l21 119h336l-191 -1075h-336l21 119q-194 -142 -379 -142q-66 0 -123 21.5t-105.5 67t-77 126.5t-28.5 189zM391 420q0 -83 34 -128.5t99 -45.5q72 0 139.5 37t141.5 102l57 324 q-98 118 -215 118q-79 0 -138.5 -58.5t-88.5 -149.5t-29 -199z" />
<glyph unicode="b" horiz-adv-x="1286" d="M4 0l264 1493h336l-94 -528q194 133 364 133q54 0 103 -13t94 -43t78 -75.5t52.5 -116t19.5 -158.5q0 -209 -64.5 -371.5t-182 -253t-269.5 -90.5q-59 0 -111.5 12t-99 37t-70.5 41.5t-64 47.5l-20 -115h-336zM403 365q105 -117 222 -117q115 0 183.5 119.5t68.5 287.5 q0 83 -37.5 128.5t-108.5 45.5q-66 0 -130 -35t-138 -96z" />
<glyph unicode="c" horiz-adv-x="1071" d="M43 428q0 165 47.5 296.5t126.5 211t175.5 121t201.5 41.5q72 0 139.5 -12t135.5 -39t100.5 -42.5t97.5 -50.5q5 -2 8 -3.5t7 -4t8 -4.5l-152 -231q-5 3 -36 19t-45 23t-44 20.5t-50 20t-46.5 12t-48.5 5.5q-80 0 -145.5 -54t-99.5 -133.5t-34 -164.5q0 -91 41.5 -143 t126.5 -52q87 0 295 96l111 -258q-81 -34 -138 -55t-159.5 -45.5t-184.5 -24.5q-95 0 -174 27.5t-138.5 81.5t-92.5 141.5t-33 200.5z" />
<glyph unicode="d" horiz-adv-x="1292" d="M45 381q0 210 65.5 373t184.5 253.5t272 90.5q57 0 109 -12.5t96.5 -37.5t71.5 -44t63 -48l94 537h336l-264 -1493h-336l21 119q-194 -142 -379 -142q-66 0 -123 21.5t-105.5 67t-77 126.5t-28.5 189zM391 420q0 -83 34 -128.5t99 -45.5q72 0 139.5 37t141.5 102l57 324 q-98 118 -215 118q-79 0 -138.5 -58.5t-88.5 -149.5t-29 -199z" />
<glyph unicode="e" horiz-adv-x="1171" d="M41 440q0 141 43.5 261t124.5 208.5t203 138.5t272 50q201 0 322.5 -86.5t121.5 -231.5q0 -86 -34 -149.5t-89.5 -101.5t-141.5 -60.5t-174.5 -30.5t-203.5 -8h-104v-8q0 -197 176 -197q131 0 395 121l101 -231q-58 -27 -129.5 -53.5t-198 -55.5t-233.5 -29 q-212 0 -331.5 112.5t-119.5 350.5zM412 606h88q146 0 226.5 40t80.5 112q0 46 -36.5 74t-96.5 28q-94 0 -161 -72t-101 -182z" />
<glyph unicode="f" horiz-adv-x="802" d="M-211 -217q66 21 106.5 35.5t73.5 35.5t48.5 36t30 49.5t20.5 62t16 86.5l135 741h-143l43 246h145l4 25q34 205 115.5 299t247.5 94q194 0 399 -113l-147 -215q-114 39 -178 39q-80 0 -99 -100l-6 -29h256l-43 -246h-256l-129 -714q-37 -199 -62 -268 q-44 -121 -141 -187q-111 -77 -364 -131z" />
<glyph unicode="g" horiz-adv-x="1288" d="M-49 -350l106 264q258 -82 435 -82q121 0 173 43.5t66 122.5l21 119q-191 -140 -375 -140q-65 0 -121.5 21.5t-105 67t-77 126.5t-28.5 189q0 318 144.5 517.5t375.5 199.5q75 0 145.5 -25t108.5 -50.5t84 -64.5l21 117h333l-186 -1061q-23 -134 -66.5 -222.5 t-113.5 -139t-156.5 -70.5t-208.5 -20q-271 0 -575 88zM389 420q0 -82 34.5 -128t98.5 -46q71 0 137.5 36.5t139.5 100.5l59 330q-100 114 -213 114q-78 0 -137.5 -58.5t-89 -150t-29.5 -198.5z" />
<glyph unicode="h" horiz-adv-x="1280" d="M4 0l264 1493h336l-94 -535q212 140 395 140q177 0 250 -103q51 -72 51 -180q0 -47 -10 -102l-127 -713h-338l121 678q7 33 7 60q1 35 -11 58q-20 42 -88 42q-66 0 -149 -38t-146 -89l-125 -711h-336z" />
<glyph unicode="i" horiz-adv-x="561" d="M4 0l191 1075h335l-190 -1075h-336zM213 1212l47 275h350l-45 -275h-352z" />
<glyph unicode="j" horiz-adv-x="561" d="M-279 -217q65 20 107 35t74 32.5t48 30.5t28.5 37.5t17.5 43.5t12 58l189 1055h335l-184 -1026q-29 -167 -53 -228q-43 -109 -147 -172q-115 -68 -355 -120zM213 1212l47 275h352l-47 -275h-352z" />
<glyph unicode="k" horiz-adv-x="1181" d="M4 0l264 1493h336l-139 -784l350 366h410l-451 -438l320 -637h-340l-207 416l-162 -158l-45 -258h-336z" />
<glyph unicode="l" horiz-adv-x="567" d="M6 0l264 1493h338l-264 -1493h-338z" />
<glyph unicode="m" horiz-adv-x="1904" d="M4 0l191 1075h335l-22 -127q74 61 168 105.5t186 44.5q237 0 281 -189q70 70 180 129.5t217 59.5q175 0 244 -100q47 -68 48 -171q0 -48 -11 -104l-127 -723h-336l121 678q7 36 7 65q0 32 -9 54q-16 41 -82 41q-59 0 -129.5 -39.5t-124.5 -91.5l-125 -707h-336l123 678 q6 40 6 72v10q-1 36 -23.5 57t-68.5 21q-59 0 -128 -39t-124 -92l-125 -707h-336z" />
<glyph unicode="n" horiz-adv-x="1280" d="M4 0l191 1075h335l-20 -117q212 140 395 140q177 0 250 -103q51 -72 51 -180q0 -47 -10 -102l-127 -713h-338l121 678q7 33 7 60q1 35 -11 58q-20 42 -88 42q-66 0 -149 -38t-146 -89l-125 -711h-336z" />
<glyph unicode="o" horiz-adv-x="1280" d="M43 471q0 128 38.5 240.5t112 199.5t190 137t261.5 50q263 0 413 -130.5t150 -363.5q0 -128 -38.5 -240.5t-112 -199.5t-189 -137t-260.5 -50q-264 0 -414.5 129.5t-150.5 364.5zM381 467q0 -111 54 -171t165 -60q85 0 148 55.5t92.5 138.5t29.5 178q0 111 -54 171.5 t-165 60.5q-85 0 -148 -55.5t-92.5 -139t-29.5 -178.5z" />
<glyph unicode="p" horiz-adv-x="1286" d="M-70 -418l265 1493h337l-20 -110q189 133 365 133q54 0 102.5 -13t93.5 -43t77 -76t51.5 -116t19.5 -158q0 -317 -143 -516t-371 -199q-59 0 -111.5 12t-99 37t-70.5 41.5t-64 47.5l-94 -533h-338zM406 365q101 -117 219 -117q116 0 184 119t68 288q0 83 -36.5 128.5 t-107.5 45.5q-67 0 -130 -34.5t-138 -96.5z" />
<glyph unicode="q" horiz-adv-x="1292" d="M45 381q0 210 65.5 373t184.5 253.5t272 90.5q57 0 109 -12.5t96.5 -37.5t71.5 -44t63 -48l21 119h336l-265 -1493h-335l94 537q-194 -142 -379 -142q-66 0 -123 21.5t-105.5 67t-77 126.5t-28.5 189zM391 420q0 -83 34 -128.5t99 -45.5q72 0 139.5 37t141.5 102l57 324 q-98 118 -215 118q-79 0 -138.5 -58.5t-88.5 -149.5t-29 -199z" />
<glyph unicode="r" horiz-adv-x="876" d="M4 0l191 1075h335l-38 -223q14 24 33.5 50t59.5 63.5t86 64.5q46 26 115 44q54 14 111 14q16 0 33 -1l-53 -315q-72 0 -136 -21t-109.5 -54t-83.5 -73t-61.5 -80.5t-40 -73.5t-23.5 -54l-7 -21l-76 -395h-336z" />
<glyph unicode="s" horiz-adv-x="1103" d="M-35 147l152 220q96 -53 213 -93.5t205 -40.5q60 0 94.5 19t34.5 49q0 19 -13 34t-42 27t-53.5 20t-70.5 20t-71 20q-51 15 -89.5 30t-85.5 42.5t-77 60t-51 81.5t-21 109q0 153 121.5 253t333.5 100q139 0 280.5 -41t239.5 -96l-150 -216q-202 99 -350 99q-61 0 -97 -18 t-36 -50q0 -18 10.5 -31t37 -24t48.5 -18t69.5 -19.5t76.5 -21.5q55 -16 96.5 -32.5t89 -44.5t78.5 -61t51.5 -82.5t20.5 -109.5q0 -159 -129.5 -257t-350.5 -98q-160 0 -309.5 50t-255.5 120z" />
<glyph unicode="t" horiz-adv-x="870" d="M78 829l41 246h145l49 271l342 40l-55 -311h287l-39 -246h-293l-82 -460q-4 -22 -4 -38q-1 -29 11 -41q18 -20 55 -20q51 0 165 41l82 -258q-210 -76 -368 -76q-164 -1 -236 109q-47 72 -48 185q0 58 13 128l76 430h-141z" />
<glyph unicode="u" horiz-adv-x="1277" d="M59 360l127 715h336l-121 -678q-6 -32 -6 -57q0 -102 99 -102q67 0 149.5 37.5t142.5 86.5l127 713h336l-190 -1075h-336l20 115q-213 -138 -395 -138q-177 0 -249 102q-50 71 -50 178q0 48 10 103z" />
<glyph unicode="v" horiz-adv-x="1193" d="M88 1075h348l99 -717l352 717h375l-611 -1075h-334z" />
<glyph unicode="w" horiz-adv-x="1720" d="M100 1075h346l35 -704l318 704h276l64 -692l272 692h367l-516 -1075h-316l-76 659l-315 -659h-315z" />
<glyph unicode="x" horiz-adv-x="1236" d="M-115 0l512 537l-297 538h353l161 -346l281 346h408l-492 -536l326 -539h-363l-172 352l-287 -352h-430z" />
<glyph unicode="y" horiz-adv-x="1198" d="M-14 -211q151 51 195 74q80 40 138 117l-229 1095h348l105 -682l346 682h375l-600 -1075q-83 -148 -131 -209q-113 -144 -303 -214q-77 -28 -171 -48z" />
<glyph unicode="z" horiz-adv-x="1150" d="M-49 0l39 231l635 568h-510l47 276h1001l-39 -231l-637 -568h531l-45 -276h-1022z" />
<glyph unicode="{" horiz-adv-x="800" d="M14 612l35 199q222 0 234 225l8 205q10 251 154 364t419 113h97l-31 -188h-39q-228 0 -244 -250l-8 -180q-10 -196 -95 -283t-255 -110q151 -34 207 -130t0 -278l-35 -111q-90 -292 139 -292h37l-31 -189h-37q-120 0 -217.5 30t-166 91.5t-88 156t15.5 222.5l55 182 q20 69 15.5 118.5t-46.5 77t-123 27.5z" />
<glyph unicode="|" horiz-adv-x="497" d="M-29 -252l340 1927h246l-340 -1927h-246z" />
<glyph unicode="}" horiz-adv-x="802" d="M-125 -293l33 189h37q231 0 243 247l9 183q6 134 50 217t116.5 121.5t185.5 52.5q-153 34 -209 129.5t0 279.5l33 111q14 43 21 80t5 77.5t-17.5 69.5t-52 47.5t-93.5 18.5h-39l32 188h37q120 0 217.5 -30t166.5 -91.5t88.5 -156t-15.5 -223.5l-55 -181 q-20 -69 -16.5 -119t46 -78t125.5 -28l-37 -199q-225 2 -233 -223l-8 -207q-9 -250 -152.5 -362.5t-419.5 -112.5h-98z" />
<glyph unicode="~" d="M14 440q92 164 188 248t222 84q69 0 139.5 -24.5t119 -53.5t108.5 -53.5t110 -24.5q48 0 91.5 29t103.5 115l192 -84q-90 -163 -186.5 -247.5t-222.5 -84.5q-69 0 -139.5 24.5t-119 53.5t-109.5 53.5t-112 24.5q-44 0 -86.5 -29t-103.5 -115z" />
<glyph unicode="&#xa1;" horiz-adv-x="587" d="M-20 0l274 958h203l-68 -958h-409zM211 1096l55 338h342l-57 -338h-340z" />
<glyph unicode="&#xa2;" horiz-adv-x="1167" d="M96 608q0 165 47.5 296.5t126.5 211t175.5 121t201.5 41.5h12l29 156h244l-35 -201q26 -9 54 -20.5t47.5 -20t49.5 -23.5t41.5 -21.5t43 -23.5t36.5 -20l-151 -227q-187 114 -297 114q-80 0 -145.5 -54t-99.5 -133.5t-34 -164.5q0 -91 41.5 -143t126.5 -52q108 0 322 97 l110 -252q-207 -85 -331 -111l-31 -178h-244l29 162q-169 20 -269 131.5t-100 314.5z" />
<glyph unicode="&#xa3;" horiz-adv-x="1204" d="M-10 0l37 233q10 3 26.5 9.5t61 30t81.5 52t74 76.5t52 103h-222l35 196h176q-8 26 -35 97.5t-41 130.5t-14 123q0 186 122.5 295.5t340.5 109.5q92 0 177.5 -19.5t161 -57.5t120 -65.5t104.5 -70.5l-174 -205q-194 129 -325 129q-86 0 -134.5 -43t-48.5 -110 q0 -56 41 -157t51 -157h330l-35 -196h-307q-24 -72 -71.5 -129t-94.5 -86h565l-47 -289h-1007z" />
<glyph unicode="&#xa5;" horiz-adv-x="1470" d="M143 281l33 194h359l18 94l-4 9h-352l30 194h240l-272 662h370l195 -572l395 572h410l-508 -662h239l-32 -194h-355l-10 -13l-16 -90h362l-35 -194h-360l-49 -281h-348l49 281h-359z" />
<glyph unicode="&#xa6;" horiz-adv-x="503" d="M-25 -252l150 846h246l-150 -846h-246zM166 829l149 846h246l-149 -846h-246z" />
<glyph unicode="&#xa7;" horiz-adv-x="1196" d="M23 -10l149 215q216 -99 358 -99q58 0 92.5 18t34.5 50q0 13 -6 23.5t-19 19.5t-28 15.5t-38.5 14t-43.5 13t-51 14t-53 15.5q-72 21 -126.5 46t-105.5 62.5t-78.5 91t-27.5 121.5q0 98 57.5 170.5t163.5 112.5q-92 82 -92 211q0 153 122 252.5t335 99.5q139 0 280.5 -41 t239.5 -96l-150 -215q-81 39 -179 68.5t-175 29.5q-57 0 -93 -18t-36 -49q0 -13 6 -23.5t19 -19.5t27.5 -15.5t38.5 -14t43.5 -13t51 -14t54.5 -15.5q53 -16 95 -32.5t89 -44.5t77.5 -60.5t51 -81t20.5 -105.5q0 -98 -56.5 -170t-162.5 -112q92 -82 92 -209 q0 -153 -121 -252.5t-333 -99.5q-140 0 -280.5 41t-241.5 96zM408 664q0 -15 6 -27t21 -23t28.5 -18.5t41 -16.5t43.5 -14t52 -15t53 -15q78 11 112 42.5t34 65.5q0 15 -5.5 27.5t-20.5 23.5t-27.5 18.5t-39.5 16.5t-43.5 14t-53 15.5t-54.5 15.5q-79 -11 -113 -43t-34 -67z " />
<glyph unicode="&#xa8;" horiz-adv-x="528" d="M143 1227l47 262h271l-45 -262h-273zM537 1227l47 262h268l-47 -262h-268z" />
<glyph unicode="&#xa9;" horiz-adv-x="1619" d="M98 641q0 131 32.5 251.5t98.5 223t158.5 178.5t219 119t274.5 43q206 0 360 -84.5t234.5 -234.5t80.5 -344q0 -131 -32.5 -251.5t-98.5 -223.5t-158 -179t-219.5 -119t-275.5 -43q-309 0 -491.5 184t-182.5 480zM178 643q0 -171 70 -303t208 -208.5t324 -76.5 q160 0 293 58.5t220.5 159t135.5 234t48 284.5q0 171 -70.5 303t-208.5 208t-324 76q-160 0 -293 -58.5t-220 -159t-135 -233.5t-48 -284zM449 618q-5 127 26.5 231t89.5 171.5t134.5 104t162.5 36.5q54 0 104.5 -12.5t94.5 -37t69.5 -42.5t59.5 -45l-66 -68 q-27 23 -46.5 37t-55 35t-76.5 32t-86 11q-135 0 -224.5 -126.5t-82.5 -317.5q5 -125 54 -195t138 -70q146 0 306 111l53 -76q-53 -35 -95 -58t-115 -46t-144 -23q-126 0 -210.5 91.5t-90.5 256.5z" />
<glyph unicode="&#xaa;" horiz-adv-x="886" d="M145 1026q0 187 90.5 304.5t235.5 117.5q48 0 93 -15t66.5 -28t53.5 -37l12 66h230l-115 -646h-229l10 64q-118 -78 -232 -78q-92 0 -153.5 60.5t-61.5 191.5zM379 1047q0 -45 20.5 -69t57.5 -24q42 0 81.5 20t86.5 56l30 172q-60 64 -125 64q-69 0 -110 -64t-41 -155z " />
<glyph unicode="&#xab;" horiz-adv-x="1402" d="M27 449l30 200l695 430l-56 -336l-379 -219l299 -215l-51 -289zM653 449l33 200l692 430l-53 -336l-379 -219l297 -215l-49 -289z" />
<glyph unicode="&#xac;" d="M37 557l41 252h1206l-113 -625h-268l68 373h-934z" />
<glyph unicode="&#xad;" horiz-adv-x="882" d="M78 449l47 268h668l-48 -268h-667z" />
<glyph unicode="&#xae;" horiz-adv-x="964" d="M147 983q0 122 49 223t149.5 164.5t236.5 63.5q171 0 271.5 -102t100.5 -267q0 -122 -48.5 -223t-148.5 -164.5t-235 -63.5q-173 0 -274 102t-101 267zM217 985q0 -134 82.5 -218.5t226.5 -84.5q165 0 264 109.5t99 271.5q0 133 -84.5 218t-229.5 85q-165 0 -261.5 -109 t-96.5 -272zM367 823l71 412h183q57 0 90.5 -30.5t33.5 -76.5q0 -50 -35 -85t-92 -44l68 -176h-70l-63 174h-88l-31 -174h-67zM475 1061h107q46 0 71 19t25 48q0 46 -60 46h-122z" />
<glyph unicode="&#xaf;" horiz-adv-x="647" d="M229 1257l35 193h635l-35 -193h-635z" />
<glyph unicode="&#xb0;" horiz-adv-x="851" d="M133 1067q0 152 108.5 260.5t262.5 108.5q152 0 260 -108.5t108 -260.5t-108 -260.5t-260 -108.5q-154 0 -262.5 108.5t-108.5 260.5zM328 1067q0 -72 51.5 -124t124.5 -52q72 0 124 52t52 124t-52 124t-124 52q-73 0 -124.5 -52t-51.5 -124z" />
<glyph unicode="&#xb1;" d="M25 0l32 215h1055l-35 -215h-1052zM129 600l41 250h399l47 270h258l-47 -270h398l-41 -250h-402l-47 -270h-258l47 270h-395z" />
<glyph unicode="&#xb2;" horiz-adv-x="851" d="M84 788l16 97q7 41 22.5 78.5t33 65.5t47 57t51.5 47.5t61 43t61 37t64 35.5q27 15 61.5 32.5t54.5 28t43 23t35 21t23.5 19t16 20t4.5 20.5q-6 55 -98 55q-101 0 -250 -82l-90 164q38 21 64.5 34.5t78.5 35t109.5 32.5t117.5 11q147 0 226 -68.5t79 -169.5 q0 -50 -22.5 -95.5t-52.5 -77t-83 -66t-89 -53t-97 -46.5q-96 -45 -126 -63.5t-37 -40.5h423l-30 -195h-717z" />
<glyph unicode="&#xb3;" horiz-adv-x="829" d="M70 915l114 144q83 -46 146 -67t129 -21q72 0 109.5 22.5t37.5 61.5q0 27 -17.5 44.5t-51 26.5t-69 12t-83.5 3h-37l29 196h45q90 0 153.5 18t63.5 58q0 26 -23 40.5t-61 14.5q-107 0 -250 -73l-78 159q182 109 367 109q142 0 214.5 -57.5t72.5 -145.5q0 -133 -179 -209 q64 -22 105 -76.5t41 -123.5q0 -49 -19.5 -95t-59.5 -88.5t-113.5 -68t-170.5 -25.5q-221 0 -415 141z" />
<glyph unicode="&#xb4;" horiz-adv-x="507" d="M150 1206l301 287h391l-402 -287h-290z" />
<glyph unicode="&#xb5;" horiz-adv-x="1286" d="M-57 -418l264 1493h336l-127 -713q-5 -60 17 -92t83 -32q65 0 147.5 37t143.5 85l127 715h338l-191 -1075h-338l21 115q-209 -138 -393 -138h-23l-69 -395h-336z" />
<glyph unicode="&#xb6;" horiz-adv-x="1501" d="M104 844q0 118 35 216.5t95.5 167t142.5 115.5t174.5 69t193.5 22h310l-320 -1813h-284l145 801q-105 0 -192.5 24.5t-155.5 74.5t-106 132.5t-38 190.5zM889 -381l319 1815h281l-320 -1815h-280z" />
<glyph unicode="&#xb7;" horiz-adv-x="559" d="M72 399l63 369h340l-61 -369h-342z" />
<glyph unicode="&#xb8;" horiz-adv-x="378" d="M-80 -336l92 160q45 -23 97 -23q44 0 74 19.5t30 66.5q0 24 -8.5 53.5t-17.5 46.5l-9 17h146q6 -8 14.5 -23t22.5 -58t14 -83q0 -110 -74.5 -166.5t-187.5 -56.5q-116 0 -193 47z" />
<glyph unicode="&#xb9;" horiz-adv-x="532" d="M109 1507l282 142h223l-151 -861h-238l117 631l-160 -73z" />
<glyph unicode="&#xba;" horiz-adv-x="856" d="M139 1057q0 80 25 149.5t72 124t123.5 86t172.5 31.5q162 0 256.5 -75t94.5 -208q0 -80 -25.5 -149.5t-73.5 -124t-125 -86t-174 -31.5q-159 0 -252.5 75t-93.5 208zM365 1073q0 -58 30.5 -91.5t96.5 -33.5q55 0 94 34.5t54 78t15 88.5q0 125 -127 125q-55 0 -93.5 -34 t-54 -78t-15.5 -89z" />
<glyph unicode="&#xbb;" horiz-adv-x="1398" d="M-2 20l53 336l379 217l-295 218l47 288l541 -430l-33 -200zM625 20l55 336l377 217l-293 218l45 288l541 -430l-33 -200z" />
<glyph unicode="&#xbc;" horiz-adv-x="1859" d="M162 1292l282 142h226l-152 -861h-239l118 631l-159 -74zM272 0l918 1434h254l-918 -1434h-254zM860 150l25 161l495 549h314l-92 -516h133l-29 -194h-137l-27 -150h-237l26 150h-471zM1149 344h215l55 311z" />
<glyph unicode="&#xbd;" horiz-adv-x="1892" d="M162 1292l282 142h226l-152 -861h-239l118 631l-159 -74zM272 0l918 1434h254l-918 -1434h-254zM975 0l16 96q10 57 36 106.5t54.5 83t78 69.5t81.5 55.5t90 50.5q26 14 62 32t54.5 27.5t42.5 23t35.5 22t23 19t16 20t4.5 20.5q0 55 -99 55q-100 0 -249 -82l-88 164 q53 29 90 47.5t118.5 41.5t159.5 23q149 0 228 -68t79 -169q0 -36 -12 -70t-29 -60.5t-47.5 -53.5t-56 -45.5t-66.5 -41t-66.5 -35t-68.5 -32.5q-97 -45 -126.5 -64t-35.5 -40h422l-28 -195h-719z" />
<glyph unicode="&#xbe;" horiz-adv-x="2050" d="M70 700l114 144q83 -46 146 -67t129 -21q72 0 109.5 22.5t37.5 61.5q0 27 -17.5 44.5t-51 26.5t-69 12t-83.5 3h-37l29 196h45q90 0 153.5 18t63.5 58q0 26 -22.5 40.5t-61.5 14.5q-107 0 -250 -73l-78 159q182 109 367 109q142 0 214.5 -57.5t72.5 -145.5 q0 -133 -179 -209q64 -22 105 -76.5t41 -123.5q0 -49 -19.5 -95t-59.5 -88.5t-113.5 -68t-170.5 -25.5q-221 0 -415 141zM467 0l917 1434h256l-915 -1434h-258zM1057 150l24 161l494 549h317l-92 -516h133l-30 -194h-138l-26 -150h-238l27 150h-471zM1348 344h213l55 307z " />
<glyph unicode="&#xbf;" horiz-adv-x="1118" d="M27 338q0 102 45.5 183.5t126 135.5t174.5 89t207 55l47 157h209l-41 -344q-214 -37 -316 -89t-102 -136q0 -56 43.5 -89.5t124.5 -33.5q130 0 325 107l113 -250q-258 -146 -512 -146q-204 0 -324 98.5t-120 262.5zM586 1096l57 338h340l-55 -338h-342z" />
<glyph unicode="&#xc0;" horiz-adv-x="1454" d="M-100 0l780 1434h387l274 -1434h-368l-35 262h-510l-125 -262h-403zM547 1802h352l205 -286h-256zM559 535h344l-74 563z" />
<glyph unicode="&#xc1;" horiz-adv-x="1454" d="M-100 0l780 1434h387l274 -1434h-368l-35 262h-510l-125 -262h-403zM559 535h344l-74 563zM674 1516l301 286h393l-403 -286h-291z" />
<glyph unicode="&#xc2;" horiz-adv-x="1454" d="M-100 0l780 1434h387l274 -1434h-368l-35 262h-510l-125 -262h-403zM514 1516l266 286h320l168 -286h-215l-123 143l-176 -143h-240zM559 535h344l-74 563z" />
<glyph unicode="&#xc3;" horiz-adv-x="1454" d="M-100 0l780 1434h387l274 -1434h-368l-35 262h-510l-125 -262h-403zM520 1612q31 45 45.5 65.5t43 53.5t51 47.5t54.5 26.5t68 12q37 0 78.5 -15.5t70.5 -34t62 -34t56 -15.5q52 0 125 99l135 -91q-30 -44 -45.5 -66t-43.5 -54t-50.5 -47t-54.5 -27t-68 -12 q-47 0 -99 24.5t-96 49t-72 24.5q-53 0 -125 -96zM559 535h344l-74 563z" />
<glyph unicode="&#xc4;" horiz-adv-x="1454" d="M-100 0l780 1434h387l274 -1434h-368l-35 262h-510l-125 -262h-403zM559 535h344l-74 563zM559 1536l47 262h271l-46 -262h-272zM952 1536l47 262h269l-45 -262h-271z" />
<glyph unicode="&#xc5;" horiz-adv-x="1454" d="M-100 0l780 1434h387l274 -1434h-368l-35 262h-510l-125 -262h-403zM559 535h344l-74 563zM694 1729q0 98 68.5 166.5t165.5 68.5q98 0 166.5 -68.5t68.5 -166.5q0 -97 -68.5 -165.5t-166.5 -68.5q-97 0 -165.5 68.5t-68.5 165.5zM850 1729q0 -32 23 -55t55 -23 q34 0 57 23t23 55q0 34 -23 56.5t-57 22.5q-32 0 -55 -23t-23 -56z" />
<glyph unicode="&#xc6;" horiz-adv-x="2189" d="M-176 0l1214 1434h1207l-50 -295h-686l-53 -277h561l-51 -289h-557l-55 -278h696l-47 -295h-1045l46 262h-521l-211 -262h-448zM713 545h340l94 538z" />
<glyph unicode="&#xc7;" horiz-adv-x="1349" d="M88 553q0 210 54.5 382t150.5 285t226.5 174.5t281.5 61.5q91 0 175 -17.5t170 -57t134 -66.5t139 -82l-186 -246q-133 80 -219 117t-172 37q-121 0 -212.5 -79.5t-137.5 -205.5t-46 -274q0 -291 209 -291q154 0 439 149l149 -276q-324 -160 -567 -180q41 -74 41 -144 q0 -110 -75 -166.5t-189 -56.5q-117 0 -191 47l90 160q47 -23 94 -23q45 0 76 19.5t31 66.5q0 40 -23 93q-207 12 -324.5 156t-117.5 417z" />
<glyph unicode="&#xc8;" horiz-adv-x="1263" d="M31 0l250 1434h1036l-49 -295h-686l-54 -277h562l-52 -289h-557l-55 -278h696l-47 -295h-1044zM475 1802h354l207 -286h-256z" />
<glyph unicode="&#xc9;" horiz-adv-x="1263" d="M31 0l250 1434h1036l-49 -295h-686l-54 -277h562l-52 -289h-557l-55 -278h696l-47 -295h-1044zM590 1516l301 286h389l-399 -286h-291z" />
<glyph unicode="&#xca;" horiz-adv-x="1263" d="M31 0l250 1434h1036l-49 -295h-686l-54 -277h562l-52 -289h-557l-55 -278h696l-47 -295h-1044zM442 1516l271 286h315l168 -286h-211l-127 143l-174 -143h-242z" />
<glyph unicode="&#xcb;" horiz-adv-x="1263" d="M31 0l250 1434h1036l-49 -295h-686l-54 -277h562l-52 -289h-557l-55 -278h696l-47 -295h-1044zM492 1536l45 262h272l-45 -262h-272zM885 1536l45 262h272l-47 -262h-270z" />
<glyph unicode="&#xcc;" horiz-adv-x="626" d="M31 0l252 1434h350l-252 -1434h-350zM129 1802h354l207 -286h-256z" />
<glyph unicode="&#xcd;" horiz-adv-x="626" d="M31 0l252 1434h350l-252 -1434h-350zM242 1516l301 286h391l-402 -286h-290z" />
<glyph unicode="&#xce;" horiz-adv-x="626" d="M31 0l252 1434h350l-252 -1434h-350zM94 1516l268 286h318l168 -286h-213l-123 143l-174 -143h-244z" />
<glyph unicode="&#xcf;" horiz-adv-x="626" d="M31 0l252 1434h350l-252 -1434h-350zM145 1536l45 262h271l-47 -262h-269zM537 1536l47 262h268l-45 -262h-270z" />
<glyph unicode="&#xd0;" horiz-adv-x="1521" d="M18 584l43 268h150l102 582h467q185 0 321.5 -43.5t216.5 -123t117.5 -181t37.5 -228.5q0 -65 -9 -135t-33.5 -155.5t-62.5 -163.5t-101.5 -153t-144 -129.5t-196.5 -88t-254 -33.5h-609l101 584h-146zM465 295h156q105 0 191.5 34t142.5 89t94 128.5t54.5 150 t16.5 155.5q0 153 -94.5 220t-284.5 67h-127l-51 -287h279l-43 -268h-283z" />
<glyph unicode="&#xd1;" horiz-adv-x="1525" d="M31 0l252 1434h354l381 -928l164 928h350l-252 -1434h-354l-383 928l-162 -928h-350zM565 1612q31 45 45.5 65.5t43 53.5t51 47.5t54.5 26.5t68 12q37 0 78.5 -15.5t70.5 -34t62 -34t56 -15.5q52 0 125 99l135 -91q-30 -44 -45.5 -66t-43.5 -54t-50.5 -47t-54.5 -27 t-68 -12q-47 0 -99 24.5t-96 49t-72 24.5q-53 0 -125 -96z" />
<glyph unicode="&#xd2;" horiz-adv-x="1581" d="M86 610q0 64 9 135.5t33.5 155t61.5 160.5t97 150t135.5 126.5t182 86t231.5 32.5q337 0 515.5 -167t178.5 -468q0 -64 -9 -135.5t-33.5 -155t-61.5 -160.5t-97 -150t-135.5 -126.5t-182 -86t-231.5 -32.5q-337 0 -515.5 167t-178.5 468zM446 621q0 -349 322 -349 q86 0 156 37t114.5 94.5t75 131t43 143t12.5 133.5q0 348 -321 348q-86 0 -156.5 -37t-115 -94.5t-75 -130.5t-43 -142.5t-12.5 -133.5zM608 1802h353l206 -286h-258z" />
<glyph unicode="&#xd3;" horiz-adv-x="1581" d="M86 610q0 64 9 135.5t33.5 155t61.5 160.5t97 150t135.5 126.5t182 86t231.5 32.5q337 0 515.5 -167t178.5 -468q0 -64 -9 -135.5t-33.5 -155t-61.5 -160.5t-97 -150t-135.5 -126.5t-182 -86t-231.5 -32.5q-337 0 -515.5 167t-178.5 468zM446 621q0 -349 322 -349 q86 0 156 37t114.5 94.5t75 131t43 143t12.5 133.5q0 348 -321 348q-86 0 -156.5 -37t-115 -94.5t-75 -130.5t-43 -142.5t-12.5 -133.5zM719 1516l301 286h391l-399 -286h-293z" />
<glyph unicode="&#xd4;" horiz-adv-x="1581" d="M86 610q0 64 9 135.5t33.5 155t61.5 160.5t97 150t135.5 126.5t182 86t231.5 32.5q337 0 515.5 -167t178.5 -468q0 -64 -9 -135.5t-33.5 -155t-61.5 -160.5t-97 -150t-135.5 -126.5t-182 -86t-231.5 -32.5q-337 0 -515.5 167t-178.5 468zM446 621q0 -349 322 -349 q86 0 156 37t114.5 94.5t75 131t43 143t12.5 133.5q0 348 -321 348q-86 0 -156.5 -37t-115 -94.5t-75 -130.5t-43 -142.5t-12.5 -133.5zM575 1516l267 286h319l168 -286h-213l-125 143l-174 -143h-242z" />
<glyph unicode="&#xd5;" horiz-adv-x="1581" d="M86 610q0 64 9 135.5t33.5 155t61.5 160.5t97 150t135.5 126.5t182 86t231.5 32.5q337 0 515.5 -167t178.5 -468q0 -64 -9 -135.5t-33.5 -155t-61.5 -160.5t-97 -150t-135.5 -126.5t-182 -86t-231.5 -32.5q-337 0 -515.5 167t-178.5 468zM446 621q0 -349 322 -349 q86 0 156 37t114.5 94.5t75 131t43 143t12.5 133.5q0 348 -321 348q-86 0 -156.5 -37t-115 -94.5t-75 -130.5t-43 -142.5t-12.5 -133.5zM580 1612q73 104 107 137q70 68 157 68q37 0 78 -15.5t70.5 -34t62 -34t55.5 -15.5q50 0 123 99l137 -91q-25 -36 -33.5 -48t-30.5 -41 t-34 -40t-33.5 -30.5t-39.5 -26.5t-42.5 -13.5t-50.5 -6.5q-47 0 -98.5 24.5t-94.5 49t-71 24.5q-53 0 -125 -96z" />
<glyph unicode="&#xd6;" horiz-adv-x="1581" d="M86 610q0 64 9 135.5t33.5 155t61.5 160.5t97 150t135.5 126.5t182 86t231.5 32.5q337 0 515.5 -167t178.5 -468q0 -64 -9 -135.5t-33.5 -155t-61.5 -160.5t-97 -150t-135.5 -126.5t-182 -86t-231.5 -32.5q-337 0 -515.5 167t-178.5 468zM446 621q0 -349 322 -349 q86 0 156 37t114.5 94.5t75 131t43 143t12.5 133.5q0 348 -321 348q-86 0 -156.5 -37t-115 -94.5t-75 -130.5t-43 -142.5t-12.5 -133.5zM623 1536l45 262h270l-45 -262h-270zM1014 1536l45 262h272l-45 -262h-272z" />
<glyph unicode="&#xd7;" d="M158 442l323 258l-223 250l203 170l227 -254l330 264l168 -194l-326 -260l225 -250l-202 -170l-230 254l-327 -262z" />
<glyph unicode="&#xd8;" horiz-adv-x="1581" d="M0 0l201 211q-117 153 -117 399q0 65 9.5 136t34 154.5t61.5 160.5t97 150t135 126.5t181.5 86t231.5 32.5q272 0 448 -115l86 93h244l-203 -211q118 -153 121 -402q0 -65 -9.5 -136t-34 -154.5t-62 -160.5t-97.5 -150t-135.5 -126.5t-182 -86t-231.5 -32.5 q-277 0 -448 115l-86 -90h-244zM444 621q0 -79 15 -140l594 621q-79 57 -207 57q-86 0 -156.5 -37t-115 -94.5t-75 -130.5t-43 -142.5t-12.5 -133.5zM557 330q80 -58 209 -58q86 0 156 37t114.5 94.5t75 131t43 143t12.5 133.5q0 73 -16 139z" />
<glyph unicode="&#xd9;" horiz-adv-x="1470" d="M107.5 488.5q4.5 70.5 19.5 154.5l137 791h354l-155 -869q-14 -61 -10 -113.5t23 -91.5t68 -61.5t126 -22.5q79 0 136.5 21.5t92.5 63t54.5 90t31.5 114.5l156 869h350l-158 -883q-18 -102 -45.5 -181.5t-78.5 -155.5t-121.5 -126.5t-177.5 -80.5t-244 -30 q-113 0 -202 17.5t-151 49t-104.5 78.5t-65.5 102t-31.5 124.5t-4 140zM551 1802h354l207 -286h-256z" />
<glyph unicode="&#xda;" horiz-adv-x="1470" d="M107.5 488.5q4.5 70.5 19.5 154.5l137 791h354l-155 -869q-14 -61 -10 -113.5t23 -91.5t68 -61.5t126 -22.5q79 0 136.5 21.5t92.5 63t54.5 90t31.5 114.5l156 869h350l-158 -883q-18 -102 -45.5 -181.5t-78.5 -155.5t-121.5 -126.5t-177.5 -80.5t-244 -30 q-113 0 -202 17.5t-151 49t-104.5 78.5t-65.5 102t-31.5 124.5t-4 140zM664 1516l303 286h389l-402 -286h-290z" />
<glyph unicode="&#xdb;" horiz-adv-x="1470" d="M107.5 488.5q4.5 70.5 19.5 154.5l137 791h354l-155 -869q-14 -61 -10 -113.5t23 -91.5t68 -61.5t126 -22.5q79 0 136.5 21.5t92.5 63t54.5 90t31.5 114.5l156 869h350l-158 -883q-18 -102 -45.5 -181.5t-78.5 -155.5t-121.5 -126.5t-177.5 -80.5t-244 -30 q-113 0 -202 17.5t-151 49t-104.5 78.5t-65.5 102t-31.5 124.5t-4 140zM518 1516l268 286h318l168 -286h-213l-123 143l-174 -143h-244z" />
<glyph unicode="&#xdc;" horiz-adv-x="1470" d="M107.5 488.5q4.5 70.5 19.5 154.5l137 791h354l-155 -869q-14 -61 -10 -113.5t23 -91.5t68 -61.5t126 -22.5q79 0 136.5 21.5t92.5 63t54.5 90t31.5 114.5l156 869h350l-158 -883q-18 -102 -45.5 -181.5t-78.5 -155.5t-121.5 -126.5t-177.5 -80.5t-244 -30 q-113 0 -202 17.5t-151 49t-104.5 78.5t-65.5 102t-31.5 124.5t-4 140zM567 1536l47 262h271l-47 -262h-271zM961 1536l45 262h268l-45 -262h-268z" />
<glyph unicode="&#xdd;" horiz-adv-x="1361" d="M135 1434h371l196 -570l394 570h409l-663 -867l-99 -567h-350l101 571zM604 1516l301 286h391l-401 -286h-291z" />
<glyph unicode="&#xde;" horiz-adv-x="1392" d="M31 0l252 1434h350l-39 -222h201q286 0 430.5 -106.5t144.5 -314.5q0 -72 -19.5 -143t-65 -140t-111.5 -121.5t-167 -84.5t-223 -32h-354l-49 -270h-350zM477 555h246q137 0 212 60.5t75 164.5q0 142 -219 142h-244z" />
<glyph unicode="&#xdf;" horiz-adv-x="1511" d="M4 0l174 987q17 86 47.5 155t84.5 129t129.5 100t184.5 62.5t246 22.5q102 0 188.5 -13t150 -37t114 -57.5t80.5 -74.5t49 -88.5t20 -99t-6 -105.5l-4 -27l-157 -202q-57 34 -141.5 63t-147.5 29q-46 0 -78.5 -17t-32.5 -49q0 -13 4.5 -23.5t17 -20t23.5 -16.5t34 -15.5 t37.5 -13.5t46 -15t48.5 -15q61 -21 106.5 -44t92.5 -61t72.5 -95t25.5 -129q0 -157 -118 -255t-318 -98q-146 0 -284.5 50t-239.5 120l149 222q73 -50 185 -93t180 -43q42 0 72 17.5t30 46.5q0 10 -3.5 19t-11.5 17.5t-15.5 15t-23 14t-25.5 12t-31 12t-32.5 11.5t-36.5 12 t-36 12q-46 16 -81.5 31.5t-77 43t-68.5 60t-45.5 81.5t-18.5 107q0 152 110.5 252.5t307.5 100.5q55 0 147 -15q-18 56 -79 85.5t-181 29.5q-152 0 -242.5 -56.5t-115.5 -193.5l-172 -948h-334z" />
<glyph unicode="&#xe0;" horiz-adv-x="1292" d="M45 381q0 318 144.5 517.5t375.5 199.5q76 0 147 -25t109 -50.5t84 -64.5l21 117h338l-191 -1075h-338l21 119q-194 -142 -379 -142q-66 0 -122.5 21.5t-105 67t-76.5 126.5t-28 189zM389 420q0 -82 34.5 -128t98.5 -46q72 0 139.5 37t141.5 102l57 326 q-101 116 -213 116q-80 0 -140 -58.5t-89 -149.5t-29 -199zM406 1493h354l207 -287h-256z" />
<glyph unicode="&#xe1;" horiz-adv-x="1292" d="M45 381q0 318 144.5 517.5t375.5 199.5q76 0 147 -25t109 -50.5t84 -64.5l21 117h338l-191 -1075h-338l21 119q-194 -142 -379 -142q-66 0 -122.5 21.5t-105 67t-76.5 126.5t-28 189zM389 420q0 -82 34.5 -128t98.5 -46q72 0 139.5 37t141.5 102l57 326 q-101 116 -213 116q-80 0 -140 -58.5t-89 -149.5t-29 -199zM506 1206l301 287h391l-399 -287h-293z" />
<glyph unicode="&#xe2;" horiz-adv-x="1292" d="M45 381q0 318 144.5 517.5t375.5 199.5q76 0 147 -25t109 -50.5t84 -64.5l21 117h338l-191 -1075h-338l21 119q-194 -142 -379 -142q-66 0 -122.5 21.5t-105 67t-76.5 126.5t-28 189zM373 1206l268 287h320l167 -287h-215l-125 144l-172 -144h-243zM389 420 q0 -82 34.5 -128t98.5 -46q72 0 139.5 37t141.5 102l57 326q-101 116 -213 116q-80 0 -140 -58.5t-89 -149.5t-29 -199z" />
<glyph unicode="&#xe3;" horiz-adv-x="1292" d="M45 381q0 318 144.5 517.5t375.5 199.5q76 0 147 -25t109 -50.5t84 -64.5l21 117h338l-191 -1075h-338l21 119q-194 -142 -379 -142q-66 0 -122.5 21.5t-105 67t-76.5 126.5t-28 189zM385 1303q30 44 45.5 65t43.5 53.5t50.5 47t54.5 26.5t68 12q47 0 99.5 -24.5 t96.5 -49t72 -24.5q51 0 123 98l138 -90q-28 -40 -39 -55.5t-35.5 -47t-41 -44.5t-41.5 -30t-51.5 -23.5t-56.5 -6.5q-47 0 -98.5 25t-94.5 49.5t-71 24.5q-51 0 -127 -97zM389 420q0 -82 34.5 -128t98.5 -46q72 0 139.5 37t141.5 102l57 326q-101 116 -213 116 q-80 0 -140 -58.5t-89 -149.5t-29 -199z" />
<glyph unicode="&#xe4;" horiz-adv-x="1292" d="M45 381q0 318 144.5 517.5t375.5 199.5q76 0 147 -25t109 -50.5t84 -64.5l21 117h338l-191 -1075h-338l21 119q-194 -142 -379 -142q-66 0 -122.5 21.5t-105 67t-76.5 126.5t-28 189zM389 420q0 -82 34.5 -128t98.5 -46q72 0 139.5 37t141.5 102l57 326 q-101 116 -213 116q-80 0 -140 -58.5t-89 -149.5t-29 -199zM434 1227l45 262h273l-45 -262h-273zM827 1227l45 262h269l-45 -262h-269z" />
<glyph unicode="&#xe5;" horiz-adv-x="1292" d="M45 381q0 318 144.5 517.5t375.5 199.5q76 0 147 -25t109 -50.5t84 -64.5l21 117h338l-191 -1075h-338l21 119q-194 -142 -379 -142q-66 0 -122.5 21.5t-105 67t-76.5 126.5t-28 189zM389 420q0 -82 34.5 -128t98.5 -46q72 0 139.5 37t141.5 102l57 326 q-101 116 -213 116q-80 0 -140 -58.5t-89 -149.5t-29 -199zM559 1419q0 98 68.5 167t165.5 69t166 -69t69 -167q0 -97 -69 -165t-166 -68t-165.5 68t-68.5 165zM715 1419q0 -32 23 -55t55 -23t54.5 23t22.5 55q0 34 -22.5 57t-54.5 23t-55 -23t-23 -57z" />
<glyph unicode="&#xe6;" horiz-adv-x="1945" d="M45 381q0 210 65.5 373t184.5 253.5t272 90.5q57 0 109 -12.5t96.5 -37.5t71.5 -44t63 -48l21 119h336v-2q92 25 194 25q200 0 322.5 -87t122.5 -231q0 -86 -34 -149.5t-89.5 -101.5t-141.5 -60.5t-174.5 -30.5t-203.5 -8h-105v-8q0 -197 174 -197q135 0 395 121 l101 -231q-56 -26 -128 -53t-198 -56t-233 -29q-108 0 -193 27v-4h-336l21 119q-194 -142 -379 -142q-66 0 -123 21.5t-105.5 67t-77 126.5t-28.5 189zM391 420q0 -83 34 -128.5t99 -45.5q72 0 139.5 37t141.5 102l10 53v2q0 152 45 271q-101 116 -213 116 q-79 0 -138.5 -58.5t-88.5 -149.5t-29 -199zM1186 606h86q147 0 228 40t81 112q0 46 -36.5 74t-96.5 28q-94 0 -161 -72t-101 -182z" />
<glyph unicode="&#xe7;" horiz-adv-x="1071" d="M43 428q0 165 47.5 296.5t126.5 211t175.5 121t201.5 41.5q72 0 139.5 -12t135.5 -39t100.5 -42.5t97.5 -50.5q5 -2 8 -3.5t7 -4t8 -4.5l-152 -231q-5 3 -36 19t-45 23t-44 20.5t-50 20t-46.5 12t-48.5 5.5q-80 0 -145.5 -54t-99.5 -133.5t-34 -164.5q0 -91 41.5 -143 t126.5 -52q87 0 295 96l111 -258q-268 -110 -435 -122q37 -67 37 -140q0 -110 -74 -166.5t-186 -56.5q-120 0 -194 47l92 160q45 -23 94 -23q104 0 104 86q0 41 -26 101q-153 27 -242.5 138t-89.5 302z" />
<glyph unicode="&#xe8;" horiz-adv-x="1171" d="M41 440q0 141 44 261t125 208.5t203 138.5t271 50q201 0 322.5 -86.5t121.5 -231.5q0 -86 -34 -149.5t-89.5 -101.5t-141 -60.5t-173.5 -30.5t-203 -8h-104v-8q0 -197 176 -197q129 0 393 121l103 -231q-306 -138 -561 -138q-214 0 -333.5 112.5t-119.5 350.5zM383 1493 h354l209 -287h-260zM412 606h88q147 0 228 40t81 112q0 46 -36.5 74t-96.5 28q-96 0 -163 -72t-101 -182z" />
<glyph unicode="&#xe9;" horiz-adv-x="1171" d="M41 440q0 141 44 261t125 208.5t203 138.5t271 50q201 0 322.5 -86.5t121.5 -231.5q0 -86 -34 -149.5t-89.5 -101.5t-141 -60.5t-173.5 -30.5t-203 -8h-104v-8q0 -197 176 -197q129 0 393 121l103 -231q-306 -138 -561 -138q-214 0 -333.5 112.5t-119.5 350.5zM412 606 h88q147 0 228 40t81 112q0 46 -36.5 74t-96.5 28q-96 0 -163 -72t-101 -182zM500 1206l301 287h389l-399 -287h-291z" />
<glyph unicode="&#xea;" horiz-adv-x="1171" d="M41 440q0 141 44 261t125 208.5t203 138.5t271 50q201 0 322.5 -86.5t121.5 -231.5q0 -86 -34 -149.5t-89.5 -101.5t-141 -60.5t-173.5 -30.5t-203 -8h-104v-8q0 -197 176 -197q129 0 393 121l103 -231q-306 -138 -561 -138q-214 0 -333.5 112.5t-119.5 350.5zM350 1206 l268 287h318l168 -287h-213l-123 144l-174 -144h-244zM412 606h88q147 0 228 40t81 112q0 46 -36.5 74t-96.5 28q-96 0 -163 -72t-101 -182z" />
<glyph unicode="&#xeb;" horiz-adv-x="1171" d="M41 440q0 141 44 261t125 208.5t203 138.5t271 50q201 0 322.5 -86.5t121.5 -231.5q0 -86 -34 -149.5t-89.5 -101.5t-141 -60.5t-173.5 -30.5t-203 -8h-104v-8q0 -197 176 -197q129 0 393 121l103 -231q-306 -138 -561 -138q-214 0 -333.5 112.5t-119.5 350.5zM401 1227 l45 262h273l-45 -262h-273zM412 606h88q147 0 228 40t81 112q0 46 -36.5 74t-96.5 28q-96 0 -163 -72t-101 -182zM795 1227l45 262h270l-47 -262h-268z" />
<glyph unicode="&#xec;" horiz-adv-x="561" d="M4 0l191 1075h335l-190 -1075h-336zM41 1493h354l207 -287h-256z" />
<glyph unicode="&#xed;" horiz-adv-x="561" d="M4 0l191 1075h335l-190 -1075h-336zM154 1206l301 287h391l-402 -287h-290z" />
<glyph unicode="&#xee;" horiz-adv-x="561" d="M4 0l191 1075h335l-190 -1075h-336zM8 1206l268 287h318l168 -287h-213l-125 144l-174 -144h-242z" />
<glyph unicode="&#xef;" horiz-adv-x="561" d="M4 0l191 1075h335l-190 -1075h-336zM57 1227l47 262h271l-49 -262h-269zM449 1227l47 262h270l-47 -262h-270z" />
<glyph unicode="&#xf0;" horiz-adv-x="1314" d="M37 444q0 150 73 272.5t196 190.5t269 68q76 0 141.5 -19.5t105 -47.5t68.5 -55.5t40 -46.5l12 -20q-23 254 -223 342l-78 -77h-274l118 118q-40 -1 -83 -5t-66 -8l-23 -3l4 258q88 23 209 23q100 0 203 -23l82 82h272l-159 -160q158 -94 241.5 -263t83.5 -384 q0 -209 -78.5 -368.5t-231.5 -250t-361 -90.5q-252 0 -396.5 125t-144.5 342zM389 434q0 -88 49 -143t160 -55q74 0 131.5 25t90 66.5t49 89t16.5 99.5q0 91 -51.5 146t-161.5 55q-70 0 -125.5 -23.5t-89 -63.5t-51 -90t-17.5 -106z" />
<glyph unicode="&#xf1;" horiz-adv-x="1280" d="M4 0l191 1075h335l-20 -117q212 140 395 140q177 0 250 -103t41 -282l-127 -713h-338l121 678q15 76 -4.5 118t-87.5 42q-66 0 -149 -38t-146 -89l-125 -711h-336zM381 1303q30 44 45.5 65t43.5 53.5t50.5 47t54.5 26.5t68 12q47 0 99 -24.5t95.5 -49t71.5 -24.5 q53 0 125 98l135 -90q-30 -45 -45.5 -66.5t-43.5 -54t-50.5 -47.5t-54.5 -27t-68 -12q-47 0 -99 25t-95.5 49.5t-71.5 24.5q-52 0 -125 -97z" />
<glyph unicode="&#xf2;" horiz-adv-x="1280" d="M43 471q0 128 38.5 240.5t112 199.5t190 137t261.5 50q263 0 413 -130.5t150 -363.5q0 -128 -38.5 -240.5t-112 -199.5t-189 -137t-260.5 -50q-264 0 -414.5 129.5t-150.5 364.5zM381 467q0 -111 54 -171t165 -60q85 0 148 55.5t92.5 138.5t29.5 178q0 111 -54 171.5 t-165 60.5q-85 0 -148 -55.5t-92.5 -139t-29.5 -178.5zM399 1493h355l207 -287h-256z" />
<glyph unicode="&#xf3;" horiz-adv-x="1280" d="M43 471q0 128 38.5 240.5t112 199.5t190 137t261.5 50q263 0 413 -130.5t150 -363.5q0 -128 -38.5 -240.5t-112 -199.5t-189 -137t-260.5 -50q-264 0 -414.5 129.5t-150.5 364.5zM381 467q0 -111 54 -171t165 -60q85 0 148 55.5t92.5 138.5t29.5 178q0 111 -54 171.5 t-165 60.5q-85 0 -148 -55.5t-92.5 -139t-29.5 -178.5zM514 1206l301 287h389l-399 -287h-291z" />
<glyph unicode="&#xf4;" horiz-adv-x="1280" d="M43 471q0 128 38.5 240.5t112 199.5t190 137t261.5 50q263 0 413 -130.5t150 -363.5q0 -128 -38.5 -240.5t-112 -199.5t-189 -137t-260.5 -50q-264 0 -414.5 129.5t-150.5 364.5zM367 1206l268 287h317l168 -287h-213l-123 144l-174 -144h-243zM381 467q0 -111 54 -171 t165 -60q85 0 148 55.5t92.5 138.5t29.5 178q0 111 -54 171.5t-165 60.5q-85 0 -148 -55.5t-92.5 -139t-29.5 -178.5z" />
<glyph unicode="&#xf5;" horiz-adv-x="1280" d="M43 471q0 128 38.5 240.5t112 199.5t190 137t261.5 50q263 0 413 -130.5t150 -363.5q0 -128 -38.5 -240.5t-112 -199.5t-189 -137t-260.5 -50q-264 0 -414.5 129.5t-150.5 364.5zM371 1262q4 7 18.5 33t19.5 34.5t19 31.5t21.5 31.5t22 27t25.5 26t27.5 19.5t32 17 t34.5 9t40 4q55 0 150 -41t137 -41q68 0 114 80l137 -49q-2 -4 -18 -33t-19 -34.5t-18.5 -31t-21.5 -32.5t-21.5 -27t-25.5 -26.5t-26.5 -19.5t-31.5 -17t-34.5 -8.5t-39.5 -4.5q-57 0 -151.5 41t-134.5 41q-69 0 -117 -80zM381 467q0 -111 54 -171t165 -60q85 0 148 55.5 t92.5 138.5t29.5 178q0 111 -54 171.5t-165 60.5q-85 0 -148 -55.5t-92.5 -139t-29.5 -178.5z" />
<glyph unicode="&#xf6;" horiz-adv-x="1280" d="M43 471q0 128 38.5 240.5t112 199.5t190 137t261.5 50q263 0 413 -130.5t150 -363.5q0 -128 -38.5 -240.5t-112 -199.5t-189 -137t-260.5 -50q-264 0 -414.5 129.5t-150.5 364.5zM381 467q0 -111 54 -171t165 -60q85 0 148 55.5t92.5 138.5t29.5 178q0 111 -54 171.5 t-165 60.5q-85 0 -148 -55.5t-92.5 -139t-29.5 -178.5zM420 1227l43 262h272l-45 -262h-270zM811 1227l45 262h272l-47 -262h-270z" />
<glyph unicode="&#xf7;" d="M125 557l41 252h1055l-43 -252h-1053zM444 281q-7 73 45.5 126.5t128.5 53.5q59 0 101 -38.5t47 -94.5q7 -73 -45.5 -125.5t-128.5 -52.5q-60 0 -101.5 37.5t-46.5 93.5zM575 1042q-6 70 47.5 123.5t127.5 53.5q59 0 101 -38.5t48 -95.5q6 -71 -47 -124.5t-127 -53.5 q-59 0 -101.5 38.5t-48.5 96.5z" />
<glyph unicode="&#xf8;" horiz-adv-x="1282" d="M-16 0l159 160q-98 124 -98 311q0 128 38.5 240.5t112 199.5t189 137t260.5 50q208 0 352 -86l64 63h196l-153 -153q106 -121 106 -318q0 -128 -38.5 -240.5t-112 -199.5t-190 -137t-261.5 -50q-214 0 -358 89l-66 -66h-200zM383 467q0 -28 4 -64l401 400q-49 37 -135 37 q-85 0 -148 -55.5t-92.5 -139t-29.5 -178.5zM459 276q52 -40 143 -40q85 0 148 55.5t92.5 138.5t29.5 178q0 43 -8 74z" />
<glyph unicode="&#xf9;" horiz-adv-x="1277" d="M59 360l125 715h338l-123 -678q-13 -76 7 -117.5t88 -41.5q66 0 149.5 37.5t142.5 86.5l127 713h336l-190 -1075h-336l20 115q-213 -138 -395 -138q-177 0 -249 102t-40 281zM395 1493h355l206 -287h-258z" />
<glyph unicode="&#xfa;" horiz-adv-x="1277" d="M59 360l125 715h338l-123 -678q-13 -76 7 -117.5t88 -41.5q66 0 149.5 37.5t142.5 86.5l127 713h336l-190 -1075h-336l20 115q-213 -138 -395 -138q-177 0 -249 102t-40 281zM510 1206l301 287h389l-399 -287h-291z" />
<glyph unicode="&#xfb;" horiz-adv-x="1277" d="M59 360l125 715h338l-123 -678q-13 -76 7 -117.5t88 -41.5q66 0 149.5 37.5t142.5 86.5l127 713h336l-190 -1075h-336l20 115q-213 -138 -395 -138q-177 0 -249 102t-40 281zM362 1206l269 287h317l168 -287h-213l-125 144l-174 -144h-242z" />
<glyph unicode="&#xfc;" horiz-adv-x="1277" d="M59 360l125 715h338l-123 -678q-13 -76 7 -117.5t88 -41.5q66 0 149.5 37.5t142.5 86.5l127 713h336l-190 -1075h-336l20 115q-213 -138 -395 -138q-177 0 -249 102t-40 281zM414 1227l45 262h272l-45 -262h-272zM807 1227l45 262h272l-47 -262h-270z" />
<glyph unicode="&#xfd;" horiz-adv-x="1198" d="M-14 -211q150 52 192 73q82 41 141 118l-229 1095h348l105 -684l346 684h375l-600 -1075q-82 -147 -128 -206q-111 -143 -295 -213q-81 -31 -182 -52zM469 1206l301 287h391l-399 -287h-293z" />
<glyph unicode="&#xfe;" horiz-adv-x="1286" d="M-70 -418l338 1911h338l-94 -528q189 133 365 133q54 0 102.5 -13t93.5 -43t77 -76t51.5 -116t19.5 -158q0 -317 -143 -516t-371 -199q-59 0 -111.5 12t-99 37t-70.5 41.5t-64 47.5l-94 -533h-338zM406 365q101 -117 219 -117q116 0 184 119t68 288q0 83 -36.5 128.5 t-107.5 45.5q-67 0 -130 -34.5t-138 -96.5z" />
<glyph unicode="&#xff;" horiz-adv-x="1198" d="M-14 -211q150 52 192 73q82 41 141 118l-229 1095h348l105 -684l346 684h375l-600 -1075q-82 -147 -128 -206q-111 -143 -295 -213q-81 -31 -182 -52zM371 1227l47 262h270l-45 -262h-272zM764 1227l47 262h270l-49 -262h-268z" />
<glyph unicode="&#x152;" horiz-adv-x="2285" d="M88 610q0 64 9 135.5t33.5 155t61.5 160.5t97 150t135.5 126.5t182 86t231.5 32.5q278 0 452 -117l17 95h1034l-47 -295h-684l-54 -277h560l-48 -289h-563l-51 -278h696l-49 -295h-1044l4 23q-132 -48 -279 -48q-337 0 -515.5 167t-178.5 468zM449 621q0 -349 321 -349 q86 0 156 37t114.5 94.5t75 131t43 143t12.5 133.5q0 348 -321 348q-86 0 -156 -37t-114.5 -94.5t-75 -130.5t-43 -142.5t-12.5 -133.5z" />
<glyph unicode="&#x153;" horiz-adv-x="1994" d="M43 471q0 128 38.5 240.5t112 199.5t190 137t261.5 50q282 0 430 -148q175 148 432 148q200 0 321.5 -87t121.5 -231q0 -72 -22 -128t-66 -94t-99 -63.5t-130.5 -39.5t-151.5 -19.5t-170 -5.5h-107v-8q0 -197 174 -197q132 0 396 121l100 -231q-59 -27 -129.5 -53.5 t-196.5 -55.5t-233 -29q-221 0 -336 115q-150 -115 -371 -115q-264 0 -414.5 129.5t-150.5 364.5zM381 467q0 -111 54 -171t165 -60q85 0 148 55.5t92.5 138.5t29.5 178q0 111 -54 171.5t-165 60.5q-85 0 -148 -55.5t-92.5 -139t-29.5 -178.5zM1233 606h90q146 0 225.5 40 t79.5 112q0 46 -36.5 74t-96.5 28q-94 0 -161 -72t-101 -182z" />
<glyph unicode="&#x178;" horiz-adv-x="1361" d="M135 1434h371l196 -570l394 570h409l-663 -867l-99 -567h-350l101 571zM508 1536l45 262h270l-45 -262h-270zM899 1536l45 262h273l-48 -262h-270z" />
<glyph unicode="&#x2c6;" horiz-adv-x="618" d="M141 1206l269 287h317l168 -287h-215l-123 144l-174 -144h-242z" />
<glyph unicode="&#x2dc;" horiz-adv-x="630" d="M156 1303q30 42 39.5 55t35 45.5t41 44.5t41 29.5t51.5 23.5t56 6q47 0 99 -24.5t95.5 -49t71.5 -24.5q51 0 123 98l137 -90q-26 -37 -33.5 -48t-30.5 -41.5t-34 -40.5t-33.5 -30t-40 -27t-42 -13.5t-50.5 -6.5q-47 0 -98.5 25t-94.5 49.5t-71 24.5q-52 0 -125 -97z" />
<glyph unicode="&#x2000;" horiz-adv-x="982" />
<glyph unicode="&#x2001;" horiz-adv-x="1964" />
<glyph unicode="&#x2002;" horiz-adv-x="982" />
<glyph unicode="&#x2003;" horiz-adv-x="1964" />
<glyph unicode="&#x2004;" horiz-adv-x="654" />
<glyph unicode="&#x2005;" horiz-adv-x="491" />
<glyph unicode="&#x2006;" horiz-adv-x="327" />
<glyph unicode="&#x2007;" horiz-adv-x="327" />
<glyph unicode="&#x2008;" horiz-adv-x="245" />
<glyph unicode="&#x2009;" horiz-adv-x="392" />
<glyph unicode="&#x200a;" horiz-adv-x="109" />
<glyph unicode="&#x2010;" horiz-adv-x="882" d="M78 449l47 268h668l-48 -268h-667z" />
<glyph unicode="&#x2011;" horiz-adv-x="882" d="M78 449l47 268h668l-48 -268h-667z" />
<glyph unicode="&#x2012;" horiz-adv-x="882" d="M78 449l47 268h668l-48 -268h-667z" />
<glyph unicode="&#x2013;" horiz-adv-x="1146" d="M78 451l47 264h930l-47 -264h-930z" />
<glyph unicode="&#x2014;" horiz-adv-x="1363" d="M78 451l47 264h1145l-43 -264h-1149z" />
<glyph unicode="&#x2018;" horiz-adv-x="544" d="M129 762l47 412l328 301l71 -113l-198 -232h151l-59 -368h-340z" />
<glyph unicode="&#x2019;" horiz-adv-x="518" d="M125 834l197 231h-152l61 369h340l-47 -412l-327 -301z" />
<glyph unicode="&#x201a;" horiz-adv-x="555" d="M-47 -233l197 233h-152l61 367h340l-47 -412l-327 -299z" />
<glyph unicode="&#x201c;" horiz-adv-x="1030" d="M129 762l47 412l328 301l71 -113l-198 -232h151l-59 -368h-340zM612 762l47 412l330 301l72 -113l-197 -232h152l-62 -368h-342z" />
<glyph unicode="&#x201d;" horiz-adv-x="1003" d="M125 834l197 231h-152l61 369h340l-47 -412l-327 -301zM610 834l199 231h-152l62 369h338l-45 -412l-330 -301z" />
<glyph unicode="&#x201e;" horiz-adv-x="1040" d="M-47 -233l197 233h-152l61 367h340l-47 -412l-327 -299zM438 -233l197 233h-152l64 367h338l-45 -412l-330 -299z" />
<glyph unicode="&#x2022;" horiz-adv-x="960" d="M131 584q0 143 100 243.5t242 100.5q143 0 244.5 -101t101.5 -243q0 -144 -101.5 -244t-244.5 -100t-242.5 100t-99.5 244z" />
<glyph unicode="&#x2026;" horiz-adv-x="1595" d="M-2 0l61 367h342l-61 -367h-342zM522 0l62 367h340l-62 -367h-340zM1042 0l66 367h340l-64 -367h-342z" />
<glyph unicode="&#x202f;" horiz-adv-x="392" />
<glyph unicode="&#x2039;" horiz-adv-x="774" d="M27 449l30 200l695 430l-56 -336l-379 -219l299 -215l-51 -289z" />
<glyph unicode="&#x203a;" horiz-adv-x="772" d="M-2 20l53 336l379 217l-295 218l47 288l541 -430l-33 -200z" />
<glyph unicode="&#x205f;" horiz-adv-x="491" />
<glyph unicode="&#x20ac;" horiz-adv-x="1495" d="M53 479l31 174h113q8 78 14 115h-105l29 174h117q79 245 253.5 379.5t401.5 134.5q90 0 176 -18t169 -55.5t137.5 -68t136.5 -81.5l-187 -246q-126 78 -215 116t-178 38q-98 0 -175.5 -53t-129.5 -146h436l-30 -174h-472q-12 -55 -18 -115h469l-31 -174h-432 q31 -188 201 -188q153 0 438 149l146 -276q-369 -187 -666 -187q-212 0 -340 126t-145 376h-144z" />
<glyph unicode="&#x2122;" horiz-adv-x="1284" d="M229 1327l17 107h442l-16 -107h-158l-61 -352h-131l61 352h-154zM666 975l79 459h136l94 -252l190 252h135l-77 -459h-131l45 266l-142 -190h-80l-73 198l-47 -274h-129z" />
<glyph unicode="&#x25fc;" horiz-adv-x="1075" d="M0 0v1075h1075v-1075h-1075z" />
</font>
</defs>
</svg>
