<?xml version="1.0" standalone="no"?>
<!DOCTYPE svg PUBLIC "-//W3C//DTD SVG 1.1//EN" "http://www.w3.org/Graphics/SVG/1.1/DTD/svg11.dtd" >
<svg xmlns="http://www.w3.org/2000/svg" xmlns:xlink="http://www.w3.org/1999/xlink" version="1.1">
<metadata></metadata>
<defs>
<font id="verbblack_italic" horiz-adv-x="1290" >
<font-face units-per-em="2048" ascent="1638" descent="-410" />
<missing-glyph horiz-adv-x="540" />
<glyph unicode="&#xfb01;" horiz-adv-x="1398" d="M-217 -195q66 21 106 35t73.5 35t49 35.5t30 48t20.5 61t16 84.5l129 697h-144l48 274h145q35 215 122 316.5t263 101.5q81 0 175.5 -31t162.5 -67l-125 -236q-83 27 -125 27q-74 0 -92 -94l-4 -17h250l-47 -274h-252l-119 -666q-38 -203 -63 -275q-46 -127 -145 -197 q-119 -84 -394 -142zM813 0l191 1075h376l-190 -1075h-377zM1018 1192l51 295h391l-49 -295h-393z" />
<glyph unicode="&#xfb02;" horiz-adv-x="1400" d="M-217 -195q66 21 106 35t73.5 35t49 35.5t30 48t20.5 61t16 84.5l129 697h-144l48 274h145q35 215 122 316.5t263 101.5q81 0 175.5 -31t162.5 -67l-125 -236q-83 27 -125 27q-74 0 -92 -94l-4 -17h250l-47 -274h-252l-119 -666q-38 -203 -63 -275q-46 -127 -145 -197 q-119 -84 -394 -142zM815 0l264 1493h377l-264 -1493h-377z" />
<glyph unicode="&#xfb03;" horiz-adv-x="2203" d="M-217 -195q66 21 106 35t73.5 35t49 35.5t30 48t20.5 61t16 84.5l129 697h-144l48 274h145q35 215 122 316.5t265 101.5q202 0 418 -121l-135 -225q-131 39 -197 39q-74 0 -92 -94l-4 -17h215l-49 -274h-215l-119 -666q-38 -203 -63 -275q-46 -127 -145 -197 q-119 -84 -394 -142zM588 -195q66 21 106 35t73.5 35t49 35.5t30 48t21 61t17.5 84.5l127 697h-142l45 274h146q35 215 123 316.5t264 101.5q80 0 175 -31t163 -67l-125 -236q-88 27 -127 27q-74 0 -90 -94l-4 -17h250l-50 -274h-249l-121 -666q-38 -203 -63 -275 q-46 -127 -145 -197q-119 -84 -394 -142zM1618 0l190 1075h379l-190 -1075h-379zM1823 1192l51 295h391l-49 -295h-393z" />
<glyph unicode="&#xfb04;" horiz-adv-x="2207" d="M-217 -195q66 21 106 35t73.5 35t49 35.5t30 48t20.5 61t16 84.5l129 697h-144l48 274h145q35 215 122 316.5t265 101.5q202 0 418 -121l-135 -225q-131 39 -197 39q-74 0 -92 -94l-4 -17h215l-49 -274h-215l-119 -666q-38 -203 -63 -275q-46 -127 -145 -197 q-119 -84 -394 -142zM588 -195q66 21 106 35t73.5 35t49 35.5t30 48t21 61t17.5 84.5l127 697h-142l45 274h146q35 215 123 316.5t264 101.5q80 0 175 -31t163 -67l-125 -236q-88 27 -127 27q-74 0 -90 -94l-4 -17h250l-50 -274h-249l-121 -666q-38 -203 -63 -275 q-46 -127 -145 -197q-119 -84 -394 -142zM1620 0l264 1493h377l-264 -1493h-377z" />
<glyph horiz-adv-x="0" />
<glyph horiz-adv-x="682" />
<glyph unicode=" "  horiz-adv-x="540" />
<glyph unicode="&#x09;" horiz-adv-x="540" />
<glyph unicode="&#xa0;" horiz-adv-x="540" />
<glyph unicode="!" horiz-adv-x="598" d="M4 0l59 362h379l-59 -362h-379zM164 485l51 949h461l-285 -949h-227z" />
<glyph unicode="&#x22;" horiz-adv-x="927" d="M158 856l41 578h354l-162 -578h-233zM614 856l41 578h355l-164 -578h-232z" />
<glyph unicode="#" horiz-adv-x="1490" d="M10 295l45 280h252l92 283h-206l47 283h252l96 293h293l-97 -293h234l96 293h291l-96 -293h207l-48 -283h-251l-93 -283h209l-47 -280h-254l-96 -295h-291l96 295h-233l-96 -295h-291l96 295h-207zM600 575h234l92 283h-234z" />
<glyph unicode="$" horiz-adv-x="1382" d="M-12 211l205 264q118 -69 254 -121.5t237 -52.5q76 0 126 27.5t50 72.5q0 30 -22.5 52t-65.5 38.5t-90 29.5t-112 34t-115 43q-295 132 -295 397q0 93 36 174.5t103.5 145t174.5 101.5t241 40l33 184h268l-39 -215q192 -46 418 -170l-205 -262q-92 53 -218 96.5 t-216 43.5q-73 0 -122.5 -25.5t-49.5 -75.5q0 -29 19.5 -49t59.5 -35t84.5 -27.5t112 -34t123.5 -46.5q301 -130 301 -394q0 -196 -149.5 -329.5t-413.5 -139.5l-31 -182h-268l37 209q-134 30 -256.5 86t-214.5 121z" />
<glyph unicode="%" horiz-adv-x="2080" d="M129 1012q0 87 29 166t83.5 141.5t141.5 99.5t195 37q180 0 286.5 -88t106.5 -235q0 -87 -29 -166t-83.5 -142t-141.5 -100t-195 -37q-179 0 -286 88.5t-107 235.5zM408 1040q0 -135 124 -135q40 0 72.5 20.5t50.5 52t27.5 64.5t9.5 62q0 135 -127 135q-51 0 -89 -36 t-53 -79.5t-15 -83.5zM422 0l981 1434h291l-985 -1434h-287zM1147 301q0 87 29 166t83 141.5t140.5 99.5t193.5 37q180 0 287 -88t107 -235q0 -87 -28.5 -166t-83 -142t-141 -100t-194.5 -37q-179 0 -286 88.5t-107 235.5zM1423 330q0 -135 127 -135q52 0 90.5 35.5t54 79 t15.5 83.5q0 135 -127 135q-52 0 -90 -35.5t-54 -79t-16 -83.5z" />
<glyph unicode="&#x26;" horiz-adv-x="1503" d="M41 350q0 74 28 138.5t81.5 117t110 92.5t134.5 82q-61 74 -93 143.5t-32 149.5q0 164 134 273.5t348 109.5q201 0 317.5 -95.5t116.5 -232.5q0 -64 -27.5 -123t-80.5 -111t-107.5 -92t-130.5 -87l145 -172q77 108 117 213h379q-30 -103 -102.5 -228.5t-176.5 -236.5 l250 -291h-395l-86 100q-211 -123 -443 -123q-221 0 -354 103.5t-133 269.5zM412 360q0 -46 36.5 -76t104.5 -30q102 0 221 80l-192 225q-170 -109 -170 -199zM608 1059q0 -57 60 -141q83 46 127.5 90t44.5 94q0 34 -23.5 63t-73.5 29q-61 0 -98 -42t-37 -93z" />
<glyph unicode="'" horiz-adv-x="471" d="M158 856l41 578h354l-162 -578h-233z" />
<glyph unicode="(" horiz-adv-x="700" d="M9.5 1.5q-8.5 103.5 21.5 254.5l164 911q19 104 31.5 156.5t39.5 117.5t62 96.5t98 69t149 62t213 49.5l64 -217q-77 -26 -120 -46t-69.5 -48t-36.5 -56t-20 -81l-200 -1114q-24 -99 -0.5 -153t126.5 -99l-96 -197q-222 50 -320 120.5t-106.5 174z" />
<glyph unicode=")" horiz-adv-x="702" d="M-119 -78q78 26 121.5 46.5t70 49t36.5 57t20 81.5l203 1114q19 109 -2.5 158t-124.5 94l94 196q68 -15 123.5 -31.5t99 -36t76.5 -38.5t56.5 -44.5t39 -48.5t23.5 -55.5t11 -61.5t-0.5 -70.5t-8.5 -77.5t-14 -87l-164 -911q-11 -61 -18 -97.5t-19 -82.5t-23.5 -72.5 t-30.5 -60.5t-41 -54t-54.5 -44.5t-70.5 -40.5t-89 -34.5t-111.5 -33t-136.5 -29.5z" />
<glyph unicode="*" horiz-adv-x="980" d="M133 1026l338 6l-313 125l198 238l174 -291l-51 336l303 -56l-161 -297l260 213l106 -288l-319 -11l295 -120l-199 -240l-170 274l47 -319l-303 53l162 297l-262 -211z" />
<glyph unicode="+" horiz-adv-x="1335" d="M125 543l47 280h389l64 357h284l-63 -357h389l-47 -280h-391l-62 -357h-284l61 357h-387z" />
<glyph unicode="," horiz-adv-x="567" d="M-57 -238l211 238h-168l67 397h377l-53 -448l-359 -311z" />
<glyph unicode="-" horiz-adv-x="880" d="M63 432l52 301h690l-51 -301h-691z" />
<glyph unicode="." horiz-adv-x="561" d="M-12 0l67 397h377l-65 -397h-379z" />
<glyph unicode="/" horiz-adv-x="1028" d="M-96 -184l968 1802h291l-966 -1802h-293z" />
<glyph unicode="0" horiz-adv-x="1439" d="M82 602q0 60 7.5 127.5t29 152.5t54 163t88 154.5t126 132t172.5 90t223 34.5q135 0 241.5 -36t174.5 -95.5t112.5 -142t62.5 -169.5t18 -184q0 -60 -7.5 -127.5t-29 -152.5t-54.5 -163t-88 -154.5t-125.5 -132t-172.5 -90t-222 -34.5q-135 0 -241.5 36t-174.5 95.5 t-112.5 142t-63 169.5t-18.5 184zM473 567q1 -48 5.5 -85.5t19 -77t37.5 -65.5t63 -43t94 -17q69 0 125 49.5t88.5 120t54 156t29.5 150.5t8 109q-1 61 -9 106.5t-30 90t-67.5 68.5t-112.5 24q-69 0 -125 -49.5t-88.5 -120.5t-54.5 -156t-30 -150.5t-7 -109.5z" />
<glyph unicode="1" horiz-adv-x="894" d="M82 1198l457 236h372l-252 -1434h-393l191 1049l-256 -121z" />
<glyph unicode="2" horiz-adv-x="1286" d="M-55 0l26 160q11 68 36 130.5t53.5 110t74 95t83 80t97 71.5t98.5 62t103 59q41 23 98.5 54t86.5 47t67.5 38.5t56 36.5t36.5 32t25.5 35t6.5 36q-2 38 -41.5 62t-110.5 24q-153 0 -397 -136l-141 271q296 188 596 188q121 0 216.5 -31.5t154 -86.5t88.5 -124.5 t30 -148.5q0 -48 -12 -93.5t-29 -82.5t-49 -75.5t-59 -66t-73.5 -60.5t-77 -53t-85 -49t-83 -43.5t-83.5 -41.5q-144 -70 -192 -103.5t-58 -72.5h664l-51 -324h-1155z" />
<glyph unicode="3" horiz-adv-x="1292" d="M-57 211l192 240q245 -146 432 -146q106 0 166 38.5t60 100.5q0 38 -20 65t-50.5 42t-78.5 23.5t-91 11t-102 2.5h-62l53 325h72q330 0 330 136q0 39 -32.5 61.5t-96.5 22.5q-83 0 -191.5 -37t-199.5 -84l-123 264q38 25 84.5 49t125 57t179.5 53.5t205 20.5 q116 0 205 -26.5t142.5 -73t80 -105.5t26.5 -129q0 -222 -280 -350q100 -38 160.5 -126.5t60.5 -209.5q0 -61 -17.5 -122t-60 -123t-106.5 -108.5t-165.5 -76t-228.5 -29.5q-352 0 -669 234z" />
<glyph unicode="4" horiz-adv-x="1431" d="M-33 250l45 268l785 916h522l-152 -861h213l-53 -323h-217l-43 -250h-393l43 250h-750zM440 573h334l88 504z" />
<glyph unicode="5" horiz-adv-x="1275" d="M-43 211l217 244q185 -144 358 -144q109 0 184 49t75 132q0 67 -48.5 108t-144.5 41q-68 0 -125 -20t-133 -60l-215 144l203 729h970l-53 -324h-635l-39 -168q79 14 144 14q118 0 211.5 -36t151 -98t87 -141.5t29.5 -170.5q0 -103 -40.5 -197.5t-116 -170t-195.5 -120.5 t-267 -45q-336 0 -618 234z" />
<glyph unicode="6" horiz-adv-x="1341" d="M66 545q0 151 46.5 289.5t134.5 251t208 196t275.5 129t328.5 45.5q84 0 155 -11t100 -21l29 -11l-139 -285q-57 11 -131 11q-111 0 -209 -26.5t-187 -92.5t-142 -166q115 76 282 76q205 0 330 -118t125 -310q0 -104 -40 -198.5t-114 -167.5t-189 -116t-255 -43 q-145 0 -262 45.5t-191.5 124t-114.5 180.5t-40 218zM461 514q0 -96 53.5 -157.5t149.5 -61.5q104 0 159.5 58t55.5 130t-47.5 115t-145.5 43q-68 0 -128 -30.5t-97 -69.5v-27z" />
<glyph unicode="7" horiz-adv-x="1114" d="M63 0q18 102 62.5 216t98 212.5t122 201.5t125 177t117.5 146.5t89.5 103.5t49.5 53h-602l51 324h1055l-49 -304q-13 -13 -35 -36t-87 -96.5t-125.5 -149t-137.5 -185t-137.5 -212.5t-110.5 -224t-70 -227h-416z" />
<glyph unicode="8" horiz-adv-x="1361" d="M10 371q0 80 30.5 148t86.5 119.5t119.5 89.5t144.5 71q-160 120 -160 280q0 166 146 271.5t411 105.5q249 0 386 -94t137 -248q0 -203 -275 -346q240 -130 240 -352q0 -197 -178 -318t-490 -121q-287 0 -442.5 105t-155.5 289zM412 414q0 -64 52.5 -104t149.5 -40 q112 0 187.5 50t75.5 122q0 105 -181 193q-62 -21 -106 -40t-88 -46t-67 -61t-23 -74zM608 1036q0 -41 29.5 -71t83.5 -58q98 31 149.5 65t51.5 89q0 44 -35.5 78.5t-102.5 34.5q-76 0 -126 -42.5t-50 -95.5z" />
<glyph unicode="9" horiz-adv-x="1343" d="M35 20l139 285q57 -10 133 -10q112 0 209.5 26t187 92t142.5 167q-115 -76 -285 -76q-204 0 -329.5 118t-125.5 310q0 104 40 198t114.5 167t190 116t256.5 43q145 0 261.5 -45.5t191 -124t114 -180t39.5 -217.5q0 -189 -73.5 -356.5t-202.5 -290t-315.5 -194 t-402.5 -71.5q-84 0 -155 10.5t-100 21.5zM500 950q0 -72 48 -114.5t146 -42.5q69 0 128.5 31t95.5 71q0 4 1 12.5t1 12.5q0 96 -54 157.5t-151 61.5q-104 0 -159.5 -58.5t-55.5 -130.5z" />
<glyph unicode=":" horiz-adv-x="591" d="M0 0l66 397h378l-67 -397h-377zM109 610l67 398h377l-68 -398h-376z" />
<glyph unicode=";" horiz-adv-x="602" d="M-43 -238l211 238h-168l68 397h376l-53 -448l-358 -311zM113 610l63 398h379l-68 -398h-374z" />
<glyph unicode="&#x3c;" horiz-adv-x="1335" d="M100 557l41 252l1133 414l-51 -326l-699 -231l611 -232l-48 -291z" />
<glyph unicode="=" horiz-adv-x="1335" d="M90 344l45 281h1063l-47 -281h-1061zM160 745l47 281h1061l-47 -281h-1061z" />
<glyph unicode="&#x3e;" horiz-adv-x="1335" d="M84 143l51 326l696 229l-606 234l45 291l987 -414l-40 -252z" />
<glyph unicode="?" horiz-adv-x="1140" d="M162 0l59 362h379l-59 -362h-379zM170 1311q266 145 524 145q216 0 338.5 -102.5t122.5 -268.5q0 -85 -31 -156t-83 -121t-125.5 -89.5t-151.5 -63t-168 -39.5l-45 -131h-229l36 340q211 34 306.5 80.5t95.5 118.5q0 47 -36.5 78t-111.5 31q-125 0 -319 -103z" />
<glyph unicode="@" horiz-adv-x="1937" d="M47 397q0 208 75.5 392t211.5 320.5t338 216t442 79.5q168 0 303 -42t221.5 -111t143.5 -161.5t79 -190t17 -200.5q-2 -54 -9.5 -113.5t-25.5 -136.5t-43.5 -147.5t-67.5 -140.5t-94 -120.5t-127 -82t-163 -31.5q-67 0 -118.5 18t-80 44.5t-46 62.5t-22.5 66t-4 61 q-64 -58 -151.5 -96.5t-184.5 -38.5q-128 0 -208 81.5t-80 209.5q0 155 109.5 241.5t275.5 86.5q39 0 90.5 -5.5t81.5 -10.5t85.5 -16t57.5 -11l12 71q15 81 -14 113.5t-113 32.5q-146 0 -358 -78l-64 192q262 90 471 90q212 0 293 -91.5t45 -284.5l-51 -287 q-10 -54 -15 -87t-8.5 -69.5t0.5 -57.5t13.5 -39.5t28 -26t45.5 -7.5q81 0 153.5 88t116 228.5t47.5 291.5q4 55 -2 109.5t-25 113.5t-50.5 111t-83 99t-117.5 81t-159 54t-204 20q-176 0 -328 -47t-264 -131t-192 -196.5t-120 -246t-40 -278.5q0 -291 164.5 -465 t458.5 -174q104 0 202 21t145 42l46 21l61 -96q-8 -4 -22.5 -11t-62.5 -25.5t-98.5 -32t-126.5 -25t-151 -11.5q-171 0 -310.5 57t-233 158.5t-144.5 242t-51 306.5zM733 369q0 -59 33.5 -89t89.5 -30q54 0 120.5 27t129.5 79l24 131q-158 31 -215 31q-92 0 -137 -41 t-45 -108z" />
<glyph unicode="A" horiz-adv-x="1468" d="M-111 0l777 1434h434l270 -1434h-416l-28 240h-473l-111 -240h-453zM596 545h295l-60 504z" />
<glyph unicode="B" horiz-adv-x="1435" d="M16 0l252 1434h606q246 0 383.5 -87.5t137.5 -244.5q0 -71 -31.5 -134t-79.5 -104t-99.5 -66.5t-97.5 -31.5q30 -5 63 -19t70 -41t65.5 -62.5t47.5 -89t19 -116.5q0 -214 -144.5 -326t-412.5 -112h-779zM457 299h235q273 0 273 184q0 129 -222 129h-225zM563 889h205 q98 0 161.5 36t63.5 111q0 99 -182 99h-201z" />
<glyph unicode="C" horiz-adv-x="1351" d="M74 553q0 211 54.5 383t150.5 285t227.5 174t286.5 61q93 0 179.5 -17.5t176 -57t140 -66.5t145.5 -82l-209 -279q-130 76 -216 112t-169 36q-115 0 -199.5 -76t-124 -191t-39.5 -249q0 -256 189 -256q144 0 428 139l163 -309q-187 -89 -353 -136t-335 -47 q-231 0 -363 146.5t-132 429.5z" />
<glyph unicode="D" horiz-adv-x="1499" d="M16 0l252 1434h492q156 0 278 -30.5t201.5 -83t130.5 -128t72.5 -159.5t21.5 -183q0 -56 -7 -118.5t-29 -148t-57 -163t-97 -156t-142.5 -135.5t-200 -93t-263.5 -36h-652zM465 332h145q103 0 184.5 34t131.5 87t83 123t45.5 136t12.5 132q0 138 -85.5 198t-266.5 60 h-109z" />
<glyph unicode="E" horiz-adv-x="1273" d="M16 0l250 1434h1069l-55 -332h-676l-45 -223h551l-55 -324h-549l-45 -223h686l-53 -332h-1078z" />
<glyph unicode="F" horiz-adv-x="1222" d="M16 0l250 1434h1069l-55 -332h-676l-45 -223h533l-54 -326h-532l-98 -553h-392z" />
<glyph unicode="G" horiz-adv-x="1466" d="M74 549q0 215 55 388t153 286t230 173t287 60q79 0 159 -14.5t141 -33t136.5 -53.5t120.5 -59t117 -65l-211 -279q-88 50 -143 77t-131 50t-142 23q-116 0 -202 -76t-126.5 -191t-40.5 -249q0 -61 9 -108t30.5 -87t62 -61t99.5 -21q76 0 158.5 44t146.5 98l16 90h-297 l52 307h663l-147 -848h-367l21 121q-182 -144 -371 -144q-215 0 -347 147.5t-132 424.5z" />
<glyph unicode="H" horiz-adv-x="1503" d="M16 0l252 1434h394l-93 -521h469l92 521h394l-252 -1434h-393l102 590h-469l-102 -590h-394z" />
<glyph unicode="I" horiz-adv-x="641" d="M16 0l252 1434h394l-252 -1434h-394z" />
<glyph unicode="J" horiz-adv-x="641" d="M-246 -94q93 26 142.5 45t80.5 46t41.5 54t20.5 80l231 1303h392l-226 -1280q-31 -173 -56 -238q-45 -115 -152 -182q-122 -76 -386 -133z" />
<glyph unicode="K" horiz-adv-x="1456" d="M16 0l252 1434h394l-99 -553l543 553h504l-688 -676l448 -758h-432l-285 494l-190 -187l-53 -307h-394z" />
<glyph unicode="L" horiz-adv-x="1183" d="M16 0l252 1434h394l-199 -1110h651l-53 -324h-1045z" />
<glyph unicode="M" horiz-adv-x="1761" d="M16 0l252 1434h400l209 -756l503 756h400l-252 -1434h-393l135 770l-350 -530h-205l-162 581l-143 -821h-394z" />
<glyph unicode="N" horiz-adv-x="1536" d="M16 0l252 1434h398l346 -859l151 859h393l-251 -1434h-398l-348 858l-149 -858h-394z" />
<glyph unicode="O" horiz-adv-x="1593" d="M74 618q0 61 9 128.5t32.5 151t60 160t96.5 150.5t136.5 128t186.5 87t239 33q347 0 534.5 -167.5t187.5 -475.5q0 -61 -9 -128.5t-32.5 -151t-59.5 -160t-96.5 -150.5t-136.5 -128t-186 -87t-239 -33q-348 0 -535.5 167.5t-187.5 475.5zM479 629q0 -320 303 -320 q80 0 145 34t105.5 87t68.5 120.5t39 130.5t11 122q0 319 -303 319q-80 0 -145 -34t-105.5 -87t-68.5 -120.5t-39 -130t-11 -121.5z" />
<glyph unicode="P" horiz-adv-x="1394" d="M16 0l252 1434h568q594 0 594 -433q0 -67 -17.5 -136t-61.5 -140t-108.5 -126t-167.5 -89.5t-231 -34.5h-350l-84 -475h-394zM547 795h223q127 0 191.5 53t64.5 141q0 121 -199 121h-221z" />
<glyph unicode="Q" horiz-adv-x="1593" d="M74 618q0 61 9 128.5t32.5 151t60 160t96.5 150.5t136.5 128t186.5 87t239 33q347 0 534.5 -167.5t187.5 -475.5q0 -68 -11 -144t-41 -169.5t-76 -175.5t-124 -158.5t-176 -122.5l185 -170l-279 -242l-295 346q-322 13 -493.5 179.5t-171.5 461.5zM479 629 q0 -320 303 -320q80 0 145 34t105.5 87t68.5 120.5t39 130.5t11 122q0 319 -303 319q-80 0 -145 -34t-105.5 -87t-68.5 -120.5t-39 -130t-11 -121.5z" />
<glyph unicode="R" horiz-adv-x="1458" d="M16 0l252 1434h635q576 0 576 -410q0 -56 -13.5 -114.5t-46 -120.5t-80.5 -113t-123.5 -90.5t-168.5 -55.5l251 -530h-403l-229 520h-164l-92 -520h-394zM551 825h272q121 0 186.5 49.5t65.5 137.5q0 36 -15.5 60t-46.5 35.5t-65 16t-82 4.5h-256z" />
<glyph unicode="S" horiz-adv-x="1341" d="M-35 211l203 264q120 -70 256 -122t235 -52q78 0 128.5 27.5t50.5 72.5q0 46 -55 74t-170 60.5t-181 62.5q-297 133 -297 397q0 94 37.5 177t107.5 146.5t180 100.5t247 37q307 0 663 -201l-203 -262q-92 53 -218 96.5t-216 43.5q-73 0 -122.5 -25.5t-49.5 -75.5 q0 -35 34.5 -59.5t82 -37.5t132 -39t151.5 -56q301 -130 301 -394q0 -96 -38.5 -180.5t-110.5 -149t-184.5 -102t-250.5 -37.5q-198 0 -387 69t-326 165z" />
<glyph unicode="T" horiz-adv-x="1236" d="M109 1102l55 332h1194l-55 -332h-400l-198 -1102h-394l199 1102h-401z" />
<glyph unicode="U" horiz-adv-x="1480" d="M95 508q5 73 20 160l133 766h397l-153 -856q-10 -51 -10 -89q0 -35 10 -69q10 -36 31.5 -59t61.5 -36.5t97 -13.5q72 0 124 19.5t83.5 58.5t49 83t28.5 106l153 856h393l-155 -873q-18 -104 -45.5 -185.5t-79.5 -158.5t-124 -128t-182 -81.5t-251 -30.5 q-118 0 -211.5 18.5t-158 51t-109 81.5t-68 106t-31.5 129q-5 44 -5 89q0 28 2 56z" />
<glyph unicode="V" horiz-adv-x="1466" d="M131 1434h442l115 -953l438 953h488l-774 -1434h-434z" />
<glyph unicode="W" horiz-adv-x="2009" d="M150 1434h440l26 -846l363 846h324l55 -832l315 832h469l-647 -1434h-383l-63 866l-373 -866h-381z" />
<glyph unicode="X" horiz-adv-x="1380" d="M-127 0l594 727l-317 707h432l151 -461l305 461h482l-568 -707l340 -727h-438l-166 453l-317 -453h-498z" />
<glyph unicode="Y" horiz-adv-x="1380" d="M127 1434h418l174 -529l358 529h459l-659 -865l-101 -569h-391l100 569z" />
<glyph unicode="Z" horiz-adv-x="1323" d="M-55 0l47 299l811 803h-617l54 332h1151l-48 -299l-813 -803h672l-53 -332h-1204z" />
<glyph unicode="[" horiz-adv-x="761" d="M-49 -293l354 2011h625l-35 -213h-233l-283 -1585h233l-37 -213h-624z" />
<glyph unicode="\" horiz-adv-x="1001" d="M207 1618h262l362 -1802h-262z" />
<glyph unicode="]" horiz-adv-x="761" d="M-137 -293l37 213h233l283 1585h-234l35 213h627l-355 -2011h-626z" />
<glyph unicode="^" horiz-adv-x="1335" d="M102 641l514 793h388l243 -793h-389l-92 401l-231 -401h-433z" />
<glyph unicode="_" horiz-adv-x="1454" d="M-80 -397l43 264h1258l-43 -264h-1258z" />
<glyph unicode="`" horiz-adv-x="520" d="M209 1493h387l209 -293h-291z" />
<glyph unicode="a" horiz-adv-x="1306" d="M33 387q0 210 66 371.5t185 250.5t273 89q57 0 108 -11.5t96 -35.5t68.5 -40t61.5 -44l18 108h379l-190 -1075h-379l18 106q-184 -129 -368 -129q-66 0 -123.5 21.5t-106.5 67.5t-77.5 128t-28.5 193zM420 430q0 -72 30.5 -113t88.5 -41q64 0 124 33t128 92l51 289 q-92 107 -191 107q-72 0 -125.5 -52t-79.5 -134t-26 -181z" />
<glyph unicode="b" horiz-adv-x="1300" d="M-10 0l264 1493h379l-94 -524q179 129 360 129q69 0 128 -22t109 -68t78.5 -128t28.5 -192q0 -210 -65 -371.5t-183.5 -250.5t-271.5 -89q-77 0 -147 22.5t-106.5 45.5t-82.5 59l-18 -104h-379zM436 381q91 -102 193 -102q70 0 123 51.5t79.5 134t26.5 180.5 q0 73 -32.5 112.5t-94.5 39.5q-61 0 -118.5 -31.5t-125.5 -87.5z" />
<glyph unicode="c" horiz-adv-x="1075" d="M31 430q0 133 31.5 245t85 189t124.5 130.5t150 78.5t162 25q42 0 84.5 -5t74 -9.5t74.5 -18.5t63 -20t64.5 -26t53.5 -24t56 -27l46 -24l-166 -262q-56 29 -85.5 43t-84.5 32.5t-94 18.5q-76 0 -135 -50.5t-87 -120.5t-28 -142q0 -76 37 -120t112 -44q80 0 285 88 l121 -289q-304 -121 -494 -121q-97 0 -177.5 27t-142 81t-96 142t-34.5 203z" />
<glyph unicode="d" horiz-adv-x="1306" d="M33 387q0 210 66 371.5t185 250.5t273 89q57 0 108 -11.5t96 -35.5t68.5 -40t61.5 -44l92 526h379l-264 -1493h-379l18 106q-184 -129 -368 -129q-66 0 -123.5 21.5t-106.5 67.5t-77.5 128t-28.5 193zM420 430q0 -72 30.5 -113t88.5 -41q64 0 124 33t128 92l51 289 q-92 107 -191 107q-72 0 -125.5 -52t-79.5 -134t-26 -181z" />
<glyph unicode="e" horiz-adv-x="1177" d="M29 440q0 188 75 336t224.5 235t353.5 87q208 0 335.5 -88.5t127.5 -237.5q0 -75 -23 -133t-68.5 -95.5t-100.5 -62.5t-131.5 -37.5t-147.5 -17t-162 -4.5h-100v-2q0 -166 155 -166q129 0 394 115l110 -258q-325 -134 -579 -134q-463 0 -463 463zM446 616h78 q122 0 192 32.5t70 94.5q0 40 -31 65.5t-83 25.5q-81 0 -138 -62t-88 -156z" />
<glyph unicode="f" horiz-adv-x="821" d="M-217 -195q66 21 106 35t73.5 35t49 35.5t30 48t20.5 61t16 84.5l129 697h-144l48 274h145q34 215 121.5 316.5t265.5 101.5q197 0 418 -121l-166 -227q-109 39 -166 39q-74 0 -92 -94l-2 -15h248l-47 -274h-252l-121 -666q-37 -204 -63 -277q-46 -127 -147 -197 q-119 -82 -390 -140z" />
<glyph unicode="g" horiz-adv-x="1300" d="M-61 -346l118 291q263 -82 439 -82q113 0 161.5 38t61.5 113l16 92q-188 -129 -366 -129q-66 0 -123.5 21.5t-106.5 67.5t-77.5 128t-28.5 193q0 210 66 371.5t185 250.5t273 89q57 0 107.5 -11.5t94.5 -34.5t69 -39.5t61 -43.5l18 106h377l-184 -1042 q-25 -140 -68.5 -231.5t-115 -144.5t-161.5 -74t-220 -21q-292 0 -596 92zM418 430q0 -71 32 -112.5t89 -41.5q62 0 120.5 31.5t126.5 87.5l54 299q-92 103 -191 103q-70 0 -123.5 -52t-80.5 -134.5t-27 -180.5z" />
<glyph unicode="h" horiz-adv-x="1292" d="M-10 0l264 1493h379l-94 -526q206 131 381 131q182 0 257 -104q52 -73 52 -184q0 -49 -10 -105l-125 -705h-379l119 664q5 29 5 53q1 31 -9 53q-16 36 -76 37q-60 0 -131.5 -32t-130.5 -81l-123 -694h-379z" />
<glyph unicode="i" horiz-adv-x="577" d="M-10 0l190 1075h379l-190 -1075h-379zM195 1192l51 295h391l-49 -295h-393z" />
<glyph unicode="j" horiz-adv-x="577" d="M-289 -195q66 20 107 34.5t73 32t48 30t28.5 36.5t17 43.5t11.5 57.5l184 1036h379l-180 -1003q-31 -174 -56 -239q-45 -115 -152 -182q-120 -75 -380 -130zM197 1192l49 295h393l-49 -295h-393z" />
<glyph unicode="k" horiz-adv-x="1212" d="M-10 0l264 1493h379l-131 -737l303 319h459l-451 -438l322 -637h-385l-193 389l-145 -141l-43 -248h-379z" />
<glyph unicode="l" horiz-adv-x="579" d="M-8 0l264 1493h377l-264 -1493h-377z" />
<glyph unicode="m" horiz-adv-x="1914" d="M-10 0l190 1075h379l-22 -119q73 59 163.5 100.5t180.5 41.5q235 0 284 -183q65 67 174.5 125t212.5 58q179 0 250 -100q49 -69 49 -177q0 -49 -10 -106l-125 -715h-379l119 664q7 43 7.5 74.5t-19 50t-60.5 18.5q-51 0 -111 -33t-110 -80l-123 -694h-376l118 664 q7 43 7 74.5t-19 50t-59 18.5q-51 0 -111 -33t-108 -80l-123 -694h-379z" />
<glyph unicode="n" horiz-adv-x="1292" d="M-10 0l190 1075h379l-20 -108q206 131 381 131q182 0 257 -104q52 -73 52 -184q0 -49 -10 -105l-125 -705h-379l119 664q5 29 5 53q1 31 -9 53q-16 36 -76 37q-60 0 -131.5 -32t-130.5 -81l-123 -694h-379z" />
<glyph unicode="o" d="M33 477q0 127 38 237.5t112 197t192.5 136.5t269.5 50q271 0 427.5 -131.5t156.5 -368.5q0 -127 -38.5 -237.5t-112.5 -197t-193 -136.5t-269 -50q-271 0 -427 131.5t-156 368.5zM412 473q0 -101 48.5 -155t145.5 -54q78 0 134.5 51t82 125.5t25.5 161.5 q0 100 -48.5 154.5t-146.5 54.5q-78 0 -134.5 -51t-81.5 -125.5t-25 -161.5z" />
<glyph unicode="p" horiz-adv-x="1300" d="M-84 -418l264 1493h379l-18 -106q184 129 358 129q69 0 128 -22t109.5 -68t79.5 -128t29 -192q0 -317 -145 -514t-377 -197q-77 0 -147 22.5t-106.5 45.5t-82.5 59l-92 -522h-379zM436 383q90 -104 195 -104q104 0 165.5 107t61.5 259q0 73 -32.5 112.5t-94.5 39.5 q-100 0 -244 -119z" />
<glyph unicode="q" horiz-adv-x="1306" d="M33 387q0 210 66 371.5t185 250.5t273 89q57 0 108 -11.5t96 -35.5t68.5 -40t61.5 -44l18 108h379l-264 -1493h-379l92 524q-184 -129 -368 -129q-66 0 -123.5 21.5t-106.5 67.5t-77.5 128t-28.5 193zM420 430q0 -72 30.5 -113t88.5 -41q64 0 124 33t128 92l51 289 q-92 107 -191 107q-72 0 -125.5 -52t-79.5 -134t-26 -181z" />
<glyph unicode="r" horiz-adv-x="899" d="M-10 0l190 1075h379l-41 -221q15 26 35 52t60 63t85 63q46 28 114 44q52 13 108 12q17 0 34 -1l-59 -354q-72 0 -136 -21t-109 -55t-83 -74.5t-61.5 -81.5t-40 -75t-23.5 -55l-6 -21l-67 -350h-379z" />
<glyph unicode="s" horiz-adv-x="1116" d="M-45 154l170 245q95 -53 218 -95t210 -42q94 0 94 45q0 14 -10.5 24.5t-36 20t-49 16.5t-69 19t-76.5 21q-54 16 -95.5 32.5t-87.5 44t-76 60.5t-49.5 82t-19.5 108q0 157 124 260t345 103q144 0 292 -42.5t251 -99.5l-168 -237q-81 38 -183.5 68t-177.5 30 q-48 0 -73 -13t-25 -34q0 -10 4.5 -17.5t15.5 -14t23.5 -11.5t35 -12t43 -12.5t54.5 -15t63 -17.5q56 -16 97 -32t88.5 -43.5t77.5 -60.5t50.5 -82.5t20.5 -109.5q0 -163 -130 -264t-359 -101q-168 0 -323.5 52t-268.5 125z" />
<glyph unicode="t" horiz-adv-x="897" d="M66 801l47 274h143l49 271l383 40l-55 -311h287l-48 -274h-288l-72 -402q-3 -19 -3 -33q-1 -28 11 -42q18 -20 51 -19q54 0 152 39l92 -291q-225 -76 -385 -76q-180 0 -254 119q-48 78 -48 198q0 63 13 138l66 369h-141z" />
<glyph unicode="u" d="M47 371l123 704h379l-119 -663q-6 -31 -6 -55q0 -31 10 -52q16 -37 78 -37q58 0 130.5 32t129.5 79l123 696h379l-191 -1075h-378l18 109q-198 -132 -381 -132q-180 1 -254 105q-51 72 -51 183q0 49 10 106z" />
<glyph unicode="v" horiz-adv-x="1212" d="M78 1075h391l82 -661l317 661h422l-610 -1075h-373z" />
<glyph unicode="w" horiz-adv-x="1736" d="M90 1075h389l23 -647l291 647h305l55 -635l242 635h411l-516 -1075h-352l-70 606l-288 -606h-353z" />
<glyph unicode="x" horiz-adv-x="1253" d="M-127 0l506 537l-291 538h395l142 -317l249 317h457l-483 -536l315 -539h-403l-150 324l-256 -324h-481z" />
<glyph unicode="y" horiz-adv-x="1216" d="M-12 -190q13 5 58 20t56.5 19.5t45 17.5t46.5 21.5t37 23.5t41 31t35 37l-227 1095h391l88 -633l311 633h420l-594 -1075q-81 -143 -125 -200q-121 -157 -319 -230q-83 -30 -182 -49z" />
<glyph unicode="z" horiz-adv-x="1177" d="M-55 0l43 258l592 508h-476l52 309h1042l-43 -258l-592 -508h496l-51 -309h-1063z" />
<glyph unicode="{" horiz-adv-x="802" d="M2 606l37 213q54 0 94.5 12.5t65.5 32t40.5 48.5t22 58.5t8.5 65.5l11 209q5 129 46.5 221t118 147t178.5 80t238 25h107l-35 -205h-37q-203 0 -219 -227l-8 -178q-5 -105 -30.5 -178.5t-72.5 -119t-107.5 -69t-146.5 -34.5q76 -17 127 -48t82 -82t29.5 -122t-29.5 -168 l-28 -94q-12 -39 -19 -74t-6 -74t14 -67.5t45.5 -47t83.5 -18.5h37l-35 -205h-36q-118 0 -218 29t-174.5 90.5t-97.5 156.5t12 226l56 180q18 64 16 112t-44 76.5t-126 28.5z" />
<glyph unicode="|" horiz-adv-x="497" d="M-41 -252l340 1927h272l-340 -1927h-272z" />
<glyph unicode="}" horiz-adv-x="802" d="M-131 -293l37 205h37q203 0 219 227l8 178q4 105 29.5 178.5t73 119t109 69.5t148.5 35q-159 36 -216 134.5t1 285.5l31 94q12 39 18 74t5 74t-14 67t-45 46.5t-81 18.5h-39l33 205h37q95 0 178.5 -18.5t153 -57t111.5 -98t54 -141t-20 -186.5l-55 -181 q-17 -64 -14.5 -112t44.5 -76.5t126 -28.5l-37 -213q-68 0 -115 -17.5t-71.5 -50t-35 -68t-12.5 -81.5l-6 -209q-10 -252 -158.5 -362.5t-425.5 -110.5h-108z" />
<glyph unicode="~" horiz-adv-x="1335" d="M6 432q94 174 192.5 264t231.5 90q69 0 140 -24t119.5 -52.5t109 -52.5t110.5 -24q47 0 88 28t101 115l213 -92q-94 -174 -192.5 -264t-231.5 -90q-69 0 -140 24t-120.5 52.5t-110 52.5t-110.5 24q-45 0 -86.5 -28t-102.5 -115z" />
<glyph unicode="&#xa1;" horiz-adv-x="600" d="M-41 0l287 948h227l-53 -948h-461zM193 1071l59 363h379l-60 -363h-378z" />
<glyph unicode="&#xa2;" horiz-adv-x="1171" d="M86 610q0 133 31.5 245t85 189t124.5 130.5t150 78.5t162 25h16l29 156h270l-36 -207q109 -37 264 -123l-166 -254q-188 106 -291 106q-75 0 -134 -50.5t-87.5 -121t-28.5 -141.5q0 -75 37.5 -119.5t112.5 -44.5q95 0 313 86l119 -280q-183 -73 -324 -105l-31 -180h-270 l29 162q-172 20 -273.5 131.5t-101.5 316.5z" />
<glyph unicode="&#xa3;" horiz-adv-x="1222" d="M-18 0l43 262q9 2 25.5 6.5t59.5 23t78.5 42.5t71.5 68t51 96h-221l39 217h166q-5 16 -25.5 70.5t-30 84t-19 80.5t-9.5 99q0 189 124 298t347 109q97 0 187.5 -21t168 -60.5t126 -70.5t106.5 -75l-193 -225q-190 129 -321 129q-75 0 -116.5 -35t-41.5 -92 q0 -50 39.5 -145t50.5 -146h328l-39 -217h-303q-23 -60 -62.5 -104.5t-81.5 -69.5h545l-51 -324h-1042z" />
<glyph unicode="&#xa5;" horiz-adv-x="1499" d="M141 266l35 213h352l17 90h-350l34 213h228l-267 652h416l174 -527l357 527h460l-495 -652h223l-37 -213h-352l-16 -90h354l-39 -213h-352l-45 -266h-394l48 266h-351z" />
<glyph unicode="&#xa6;" horiz-adv-x="503" d="M-37 -252l150 846h272l-149 -846h-273zM154 829l149 846h272l-149 -846h-272z" />
<glyph unicode="&#xa7;" horiz-adv-x="1212" d="M16 -6l168 237q85 -38 186.5 -68t174.5 -30q98 0 98 47q0 14 -11 25t-37 20.5t-49.5 16.5t-67 18t-72.5 19q-50 15 -90 30t-89 42.5t-81.5 60.5t-55 83t-22.5 109q0 97 55.5 169t159.5 114q-86 86 -86 209q0 155 123 257.5t346 102.5q145 0 294.5 -42.5t249.5 -98.5 l-168 -238q-79 38 -181 68.5t-175 30.5q-43 0 -72.5 -12.5t-29.5 -35.5q0 -14 10 -24.5t35.5 -19.5t47.5 -15.5t68 -18t76 -20.5q53 -15 95.5 -31.5t89 -44.5t77.5 -61t51.5 -81.5t20.5 -106.5q0 -196 -213 -283q86 -86 86 -209q0 -155 -123.5 -257.5t-345.5 -102.5 q-145 0 -293 42t-250 99zM436 664q0 -9 3.5 -17.5t12 -16t17.5 -13.5t24 -12t27.5 -10.5t33 -10.5t35 -10t38.5 -10.5t39 -10.5q69 11 95.5 38t26.5 54q0 9 -3.5 17.5t-12 16t-17 13.5t-24 12t-28 10.5t-33.5 10.5l-35 10t-38.5 10.5t-39.5 10.5q-66 -11 -93.5 -39 t-27.5 -53z" />
<glyph unicode="&#xa8;" horiz-adv-x="540" d="M129 1221l47 280h295l-45 -280h-297zM532 1221l50 280h295l-52 -280h-293z" />
<glyph unicode="&#xa9;" horiz-adv-x="1597" d="M86 641q0 131 32.5 251.5t98 223t158 178.5t219 119t274.5 43q206 0 360.5 -84.5t235 -234.5t80.5 -344q0 -131 -32.5 -251.5t-98.5 -223.5t-158 -179t-219.5 -119t-275.5 -43q-309 0 -491.5 184t-182.5 480zM166 643q0 -171 70 -303t208 -208.5t324 -76.5 q160 0 293 58.5t220 159t135 234t48 284.5q0 127 -41 235t-117 186t-190 122t-254 44q-160 0 -293 -58.5t-220 -159t-135 -233.5t-48 -284zM436 618q-5 126 27 230.5t90 172t134.5 104t162.5 36.5q54 0 104.5 -12.5t94.5 -37t69.5 -42.5t59.5 -45l-66 -68q-27 23 -46.5 37 t-55 35t-76.5 32t-86 11q-135 0 -224.5 -126.5t-82.5 -317.5q5 -126 52.5 -195.5t139.5 -69.5q145 0 305 111l54 -76q-53 -35 -95 -58t-115.5 -46t-144.5 -23q-126 0 -210.5 91.5t-90.5 256.5z" />
<glyph unicode="&#xaa;" horiz-adv-x="884" d="M133 1030q0 187 91.5 302.5t236.5 115.5q108 0 211 -74l10 60h254l-115 -646h-254l11 58q-111 -72 -228 -72q-92 0 -154.5 62t-62.5 194zM393 1053q0 -78 70 -78q64 0 149 65l27 152q-51 55 -111 55q-62 0 -98.5 -56t-36.5 -138z" />
<glyph unicode="&#xab;" horiz-adv-x="1402" d="M18 432l37 223l693 422l-62 -372l-336 -189l264 -184l-55 -322zM659 432l37 223l690 422l-59 -372l-336 -189l264 -184l-55 -322z" />
<glyph unicode="&#xac;" horiz-adv-x="1335" d="M35 543l47 280h1214l-114 -639h-297l63 359h-913z" />
<glyph unicode="&#xad;" horiz-adv-x="880" d="M63 432l52 301h690l-51 -301h-691z" />
<glyph unicode="&#xae;" horiz-adv-x="942" d="M137 983q0 91 29 172t82.5 143.5t137 99t185.5 36.5q171 0 272 -102t101 -267q0 -122 -48.5 -223t-148.5 -164.5t-235 -63.5q-173 0 -274 102t-101 267zM207 985q0 -134 82.5 -218.5t226.5 -84.5q165 0 264 109.5t99 271.5q0 133 -84.5 218t-229.5 85q-165 0 -261.5 -109 t-96.5 -272zM356 823l72 412h182q57 0 91 -30.5t34 -76.5q0 -50 -35 -85t-92 -44l68 -176h-70l-63 174h-88l-31 -174h-68zM465 1061h106q46 0 71.5 19t25.5 48q0 46 -60 46h-123z" />
<glyph unicode="&#xaf;" horiz-adv-x="657" d="M227 1251l37 215h645l-37 -215h-645z" />
<glyph unicode="&#xb0;" horiz-adv-x="839" d="M121 1061q0 155 111 266t266 111t264.5 -110.5t109.5 -266.5t-109.5 -266.5t-264.5 -110.5t-266 111t-111 266zM334 1061q0 -67 48 -114.5t116 -47.5q66 0 113.5 47.5t47.5 114.5t-47.5 115.5t-113.5 48.5q-68 0 -116 -48.5t-48 -115.5z" />
<glyph unicode="&#xb1;" horiz-adv-x="1335" d="M29 0l37 238h1062l-36 -238h-1063zM133 594l45 280h389l45 254h289l-45 -254h385l-45 -280h-389l-45 -252h-289l45 252h-385z" />
<glyph unicode="&#xb2;" horiz-adv-x="866" d="M78 788l16 101q10 57 36.5 107.5t56 85t77.5 70t81.5 55t88.5 48.5q37 20 83.5 43t68.5 34t44 25t30 24.5t8 23.5q-3 43 -84 43q-96 0 -252 -82l-99 180q40 22 66 35t80.5 36t114.5 34.5t122 11.5q155 0 236.5 -72t81.5 -174q0 -50 -22.5 -95.5t-52.5 -76.5t-82.5 -64 t-89 -51.5t-95.5 -44.5q-97 -43 -122.5 -56t-31.5 -25h414l-35 -216h-739z" />
<glyph unicode="&#xb3;" horiz-adv-x="835" d="M59 924l127 157q90 -50 151.5 -70t127.5 -20q127 0 127 66q0 24 -16 39t-49.5 21.5t-65.5 8.5t-82 2h-37l31 215h47q207 0 207 60q0 21 -20.5 33t-53.5 12q-94 0 -252 -74l-86 176q183 113 383 113q147 0 221 -58.5t74 -148.5q0 -131 -172 -205q64 -25 101.5 -77.5 t37.5 -120.5q0 -37 -10.5 -74t-37 -74.5t-66.5 -66t-104.5 -46.5t-145.5 -18q-230 0 -437 150z" />
<glyph unicode="&#xb4;" horiz-adv-x="522" d="M135 1200l305 293h428l-407 -293h-326z" />
<glyph unicode="&#xb5;" horiz-adv-x="1300" d="M-70 -418l265 1493h376l-125 -706q-7 -101 89 -101q59 0 131 32t129 79l123 696h378l-190 -1075h-379l18 106q-188 -124 -368 -129l-70 -395h-377z" />
<glyph unicode="&#xb6;" horiz-adv-x="1548" d="M98 825q0 123 37 225.5t99.5 172.5t147.5 118.5t179 70.5t195 22h344l-320 -1813h-315l139 770q-85 0 -159 15t-138.5 48.5t-110 83t-72 123t-26.5 164.5zM918 -381l319 1815h313l-319 -1815h-313z" />
<glyph unicode="&#xb7;" horiz-adv-x="573" d="M59 385l68 397h377l-66 -397h-379z" />
<glyph unicode="&#xb8;" horiz-adv-x="385" d="M-86 -342l100 176q43 -22 92 -22q101 0 101 79q0 24 -8.5 52t-17.5 45l-9 16h162q6 -8 14.5 -23t22.5 -58.5t14 -84.5q0 -114 -77.5 -170.5t-194.5 -56.5q-122 0 -199 47z" />
<glyph unicode="&#xb9;" horiz-adv-x="540" d="M90 1503l293 146h250l-152 -861h-264l115 607l-158 -70z" />
<glyph unicode="&#xba;" horiz-adv-x="847" d="M127 1059q0 62 15.5 119t48 106.5t79 85.5t113.5 57t147 21q166 0 263.5 -75.5t97.5 -209.5q0 -79 -25.5 -148.5t-74.5 -123.5t-128.5 -85.5t-179.5 -31.5q-164 0 -260 75.5t-96 209.5zM377 1077q0 -112 115 -112q39 0 68.5 18.5t45.5 47t23.5 58t7.5 56.5 q0 112 -113 112q-51 0 -86 -32.5t-48 -71t-13 -76.5z" />
<glyph unicode="&#xbb;" horiz-adv-x="1398" d="M-8 10l59 375l338 186l-262 185l51 321l543 -422l-37 -223zM631 10l63 375l336 186l-264 185l53 321l539 -422l-35 -223z" />
<glyph unicode="&#xbc;" horiz-adv-x="1908" d="M158 1288l293 146h247l-151 -861h-262l112 607l-157 -70zM287 0l913 1434h283l-914 -1434h-282zM885 141l28 178l488 541h346l-88 -504h133l-33 -215h-137l-25 -141h-262l25 141h-475zM1204 356h193l47 277z" />
<glyph unicode="&#xbd;" horiz-adv-x="1937" d="M158 1288l293 146h247l-151 -861h-262l112 607l-157 -70zM287 0l913 1434h283l-914 -1434h-282zM1001 0l19 100q10 57 35.5 107.5t55 85t77.5 70t82 55.5t88 49q36 19 83.5 42.5t68 34t43.5 24t30.5 24t7.5 22.5q0 45 -84 45q-98 0 -252 -81l-96 180q198 116 381 116 q156 0 237 -71.5t81 -173.5q0 -50 -22.5 -95.5t-52.5 -76.5t-82.5 -64t-89 -51.5t-95.5 -44.5q-92 -41 -119 -55.5t-33 -26.5h412l-33 -215h-742z" />
<glyph unicode="&#xbe;" horiz-adv-x="2086" d="M63 709l127 157q90 -50 151.5 -70t127.5 -20q127 0 127 66q0 24 -16 39t-49.5 21.5t-65.5 8.5t-82 2h-37l31 215h47q207 0 207 60q0 21 -20.5 33t-53.5 12q-94 0 -252 -74l-86 176q183 113 383 113q147 0 221 -58.5t74 -148.5q0 -131 -172 -205q64 -25 101.5 -77.5 t37.5 -120.5q0 -37 -10.5 -74t-37 -74.5t-66.5 -66t-104.5 -46.5t-145.5 -18q-230 0 -437 150zM471 0l913 1434h285l-915 -1434h-283zM1071 141l29 178l485 541h350l-90 -504h133l-32 -215h-138l-24 -141h-264l24 141h-473zM1393 356h188l47 273z" />
<glyph unicode="&#xbf;" horiz-adv-x="1138" d="M25 348q0 85 31 156t83 121t126 89.5t152 63.5t169 39l45 131h229l-39 -340q-211 -34 -306 -80t-95 -118q0 -48 37.5 -78.5t111.5 -30.5q129 0 318 102l123 -280q-268 -146 -527 -146q-214 0 -336 102.5t-122 268.5zM580 1071l61 363h377l-60 -363h-378z" />
<glyph unicode="&#xc0;" horiz-adv-x="1468" d="M-111 0l777 1434h434l270 -1434h-416l-28 240h-473l-111 -240h-453zM537 1802h385l206 -293h-288zM596 545h295l-60 504z" />
<glyph unicode="&#xc1;" horiz-adv-x="1468" d="M-111 0l777 1434h434l270 -1434h-416l-28 240h-473l-111 -240h-453zM596 545h295l-60 504zM668 1509l305 293h428l-408 -293h-325z" />
<glyph unicode="&#xc2;" horiz-adv-x="1468" d="M-111 0l777 1434h434l270 -1434h-416l-28 240h-473l-111 -240h-453zM502 1509l274 293h348l170 -293h-237l-119 138l-168 -138h-268zM596 545h295l-60 504z" />
<glyph unicode="&#xc3;" horiz-adv-x="1468" d="M-111 0l777 1434h434l270 -1434h-416l-28 240h-473l-111 -240h-453zM510 1612q75 107 109 142q75 75 169 75q48 0 102 -24t99.5 -48t73.5 -24q50 0 125 96l149 -98q-75 -107 -108 -141q-76 -77 -170 -77q-48 0 -101.5 24t-98.5 48.5t-73 24.5q-51 0 -127 -99zM596 545 h295l-60 504z" />
<glyph unicode="&#xc4;" horiz-adv-x="1468" d="M-111 0l777 1434h434l270 -1434h-416l-28 240h-473l-111 -240h-453zM551 1530l49 280h293l-45 -280h-297zM596 545h295l-60 504zM954 1530l50 280h294l-49 -280h-295z" />
<glyph unicode="&#xc5;" horiz-adv-x="1468" d="M-111 0l777 1434h434l270 -1434h-416l-28 240h-473l-111 -240h-453zM596 545h295l-60 504zM698 1731q0 98 71 168.5t169 70.5q100 0 171 -70.5t71 -168.5q0 -100 -71 -171t-171 -71q-98 0 -169 71t-71 171zM870 1731q0 -29 20 -49.5t48 -20.5q29 0 49.5 20.5t20.5 49.5 q0 28 -20.5 47.5t-49.5 19.5q-28 0 -48 -19.5t-20 -47.5z" />
<glyph unicode="&#xc6;" horiz-adv-x="2226" d="M-188 0l1208 1434h1268l-54 -332h-675l-46 -223h551l-55 -324h-549l-45 -223h686l-55 -332h-1077l41 240h-504l-193 -240h-501zM758 555h307l88 492z" />
<glyph unicode="&#xc7;" horiz-adv-x="1353" d="M76 553q0 211 54 383t150 285t228 174t287 61q93 0 179.5 -17.5t176 -57t140 -66.5t145.5 -82l-209 -279q-130 76 -216.5 112t-170.5 36q-114 0 -198 -76t-123.5 -191t-39.5 -249q0 -256 189 -256q144 0 428 139l164 -309q-327 -156 -576 -176q39 -81 39 -146 q0 -77 -39.5 -130t-98.5 -75t-132 -22q-122 0 -199 47l100 176q43 -22 90 -22q103 0 103 79q0 36 -23 89q-210 14 -329 159t-119 414z" />
<glyph unicode="&#xc8;" horiz-adv-x="1273" d="M16 0l252 1434h1067l-53 -332h-676l-45 -223h551l-55 -324h-549l-45 -223h686l-55 -332h-1078zM459 1802h387l209 -293h-289z" />
<glyph unicode="&#xc9;" horiz-adv-x="1273" d="M16 0l252 1434h1067l-53 -332h-676l-45 -223h551l-55 -324h-549l-45 -223h686l-55 -332h-1078zM575 1509l306 293h426l-406 -293h-326z" />
<glyph unicode="&#xca;" horiz-adv-x="1273" d="M16 0l252 1434h1067l-53 -332h-676l-45 -223h551l-55 -324h-549l-45 -223h686l-55 -332h-1078zM424 1509l278 293h345l170 -293h-234l-121 138l-168 -138h-270z" />
<glyph unicode="&#xcb;" horiz-adv-x="1273" d="M16 0l252 1434h1067l-53 -332h-676l-45 -223h551l-55 -324h-549l-45 -223h686l-55 -332h-1078zM477 1530l45 280h297l-47 -280h-295zM881 1530l47 280h297l-49 -280h-295z" />
<glyph unicode="&#xcc;" horiz-adv-x="641" d="M16 0l252 1434h394l-252 -1434h-394zM117 1802h389l207 -293h-289z" />
<glyph unicode="&#xcd;" horiz-adv-x="641" d="M16 0l252 1434h394l-252 -1434h-394zM233 1509l306 293h426l-406 -293h-326z" />
<glyph unicode="&#xce;" horiz-adv-x="641" d="M16 0l252 1434h394l-252 -1434h-394zM82 1509l272 293h351l169 -293h-235l-121 138l-166 -138h-270z" />
<glyph unicode="&#xcf;" horiz-adv-x="641" d="M16 0l252 1434h394l-252 -1434h-394zM135 1530l47 280h297l-51 -280h-293zM539 1530l47 280h295l-47 -280h-295z" />
<glyph unicode="&#xd0;" horiz-adv-x="1540" d="M8 567l49 299h150l98 568h490q157 0 279.5 -30.5t202 -83t131.5 -128t73.5 -159.5t21.5 -183q0 -56 -7 -118.5t-29 -148t-57 -163t-97 -156t-142.5 -135.5t-200 -93t-263.5 -36h-652l99 567h-146zM506 332h143q102 0 183.5 34t131.5 87t83 122.5t46 136t13 132.5 q0 138 -86.5 198t-267.5 60h-107l-43 -236h262l-49 -299h-266z" />
<glyph unicode="&#xd1;" horiz-adv-x="1536" d="M16 0l252 1434h398l348 -861l151 861h391l-251 -1434h-398l-346 860l-151 -860h-394zM553 1612q75 107 109 142q75 75 169 75q47 0 100.5 -24t99 -48t73.5 -24q53 0 125 96l149 -98q-75 -107 -108 -141q-76 -77 -170 -77q-47 0 -100 24t-98 48.5t-73 24.5q-54 0 -127 -99 z" />
<glyph unicode="&#xd2;" horiz-adv-x="1593" d="M74 618q0 61 9 128.5t32.5 151t60 160t96.5 150.5t136.5 128t186.5 87t239 33q347 0 534.5 -167.5t187.5 -475.5q0 -61 -9 -128.5t-32.5 -151t-59.5 -160t-96.5 -150.5t-136.5 -128t-186 -87t-239 -33q-348 0 -535.5 167.5t-187.5 475.5zM479 629q0 -320 303 -320 q80 0 145 34t105.5 87t68.5 120.5t39 130.5t11 122q0 319 -303 319q-80 0 -145 -34t-105.5 -87t-68.5 -120.5t-39 -130t-11 -121.5zM596 1802h385l209 -293h-291z" />
<glyph unicode="&#xd3;" horiz-adv-x="1593" d="M74 618q0 61 9 128.5t32.5 151t60 160t96.5 150.5t136.5 128t186.5 87t239 33q347 0 534.5 -167.5t187.5 -475.5q0 -61 -9 -128.5t-32.5 -151t-59.5 -160t-96.5 -150.5t-136.5 -128t-186 -87t-239 -33q-348 0 -535.5 167.5t-187.5 475.5zM479 629q0 -320 303 -320 q80 0 145 34t105.5 87t68.5 120.5t39 130.5t11 122q0 319 -303 319q-80 0 -145 -34t-105.5 -87t-68.5 -120.5t-39 -130t-11 -121.5zM709 1509l305 293h428l-408 -293h-325z" />
<glyph unicode="&#xd4;" horiz-adv-x="1593" d="M74 618q0 61 9 128.5t32.5 151t60 160t96.5 150.5t136.5 128t186.5 87t239 33q347 0 534.5 -167.5t187.5 -475.5q0 -61 -9 -128.5t-32.5 -151t-59.5 -160t-96.5 -150.5t-136.5 -128t-186 -87t-239 -33q-348 0 -535.5 167.5t-187.5 475.5zM479 629q0 -320 303 -320 q80 0 145 34t105.5 87t68.5 120.5t39 130.5t11 122q0 319 -303 319q-80 0 -145 -34t-105.5 -87t-68.5 -120.5t-39 -130t-11 -121.5zM561 1509l275 293h348l170 -293h-236l-119 138l-168 -138h-270z" />
<glyph unicode="&#xd5;" horiz-adv-x="1593" d="M74 618q0 61 9 128.5t32.5 151t60 160t96.5 150.5t136.5 128t186.5 87t239 33q347 0 534.5 -167.5t187.5 -475.5q0 -61 -9 -128.5t-32.5 -151t-59.5 -160t-96.5 -150.5t-136.5 -128t-186 -87t-239 -33q-348 0 -535.5 167.5t-187.5 475.5zM479 629q0 -320 303 -320 q80 0 145 34t105.5 87t68.5 120.5t39 130.5t11 122q0 319 -303 319q-80 0 -145 -34t-105.5 -87t-68.5 -120.5t-39 -130t-11 -121.5zM569 1612q75 108 111 143q75 74 168 74q47 0 100.5 -24t98.5 -48t73 -24q52 0 127 96l148 -98q-32 -47 -47 -68.5t-45.5 -56.5t-54 -51 t-58 -29t-72.5 -13t-80 15t-72 33.5t-63.5 33.5t-56.5 15q-54 0 -127 -99z" />
<glyph unicode="&#xd6;" horiz-adv-x="1593" d="M74 618q0 61 9 128.5t32.5 151t60 160t96.5 150.5t136.5 128t186.5 87t239 33q347 0 534.5 -167.5t187.5 -475.5q0 -61 -9 -128.5t-32.5 -151t-59.5 -160t-96.5 -150.5t-136.5 -128t-186 -87t-239 -33q-348 0 -535.5 167.5t-187.5 475.5zM479 629q0 -320 303 -320 q80 0 145 34t105.5 87t68.5 120.5t39 130.5t11 122q0 319 -303 319q-80 0 -145 -34t-105.5 -87t-68.5 -120.5t-39 -130t-11 -121.5zM612 1530l47 280h295l-49 -280h-293zM1014 1530l49 280h295l-47 -280h-297z" />
<glyph unicode="&#xd7;" horiz-adv-x="1335" d="M154 451l315 254l-215 239l225 193l219 -246l322 258l188 -219l-317 -254l217 -242l-225 -190l-221 245l-322 -258z" />
<glyph unicode="&#xd8;" horiz-adv-x="1593" d="M-12 0l207 215q-121 154 -121 403q0 61 9 128.5t32.5 151t59.5 160t96 150.5t136 128t185.5 87t238.5 33q278 0 457 -110l84 88h268l-208 -217q122 -159 122 -404q0 -61 -8.5 -128.5t-32 -151t-59.5 -160t-96 -150.5t-136 -128t-186 -87t-239 -33q-282 0 -459 109 l-82 -84h-268zM479 629q0 -68 10 -109l539 557q-70 45 -180 45q-80 0 -145 -34t-105.5 -87t-68.5 -120.5t-39 -130t-11 -121.5zM598 352q67 -43 184 -43q80 0 145 34t105 87t67.5 121t38.5 130.5t11 121.5t-12 108z" />
<glyph unicode="&#xd9;" horiz-adv-x="1480" d="M93.5 508q4.5 73 19.5 160l135 766h395l-154 -856q-13 -56 -9 -105t21.5 -85t63.5 -56.5t117 -20.5q58 0 103 13.5t75 36.5t52 58.5t34 73t21 85.5l153 856h391l-153 -873q-18 -104 -46 -185t-80 -158.5t-124 -128.5t-182.5 -81.5t-251.5 -30.5q-118 0 -211.5 18.5 t-158 51t-108.5 81.5t-67.5 106t-31.5 129t-3.5 145zM532 1802h390l206 -293h-288z" />
<glyph unicode="&#xda;" horiz-adv-x="1480" d="M93.5 508q4.5 73 19.5 160l135 766h395l-154 -856q-13 -56 -9 -105t21.5 -85t63.5 -56.5t117 -20.5q58 0 103 13.5t75 36.5t52 58.5t34 73t21 85.5l153 856h391l-153 -873q-18 -104 -46 -185t-80 -158.5t-124 -128.5t-182.5 -81.5t-251.5 -30.5q-118 0 -211.5 18.5 t-158 51t-108.5 81.5t-67.5 106t-31.5 129t-3.5 145zM647 1509l307 293h424l-405 -293h-326z" />
<glyph unicode="&#xdb;" horiz-adv-x="1480" d="M93.5 508q4.5 73 19.5 160l135 766h395l-154 -856q-13 -56 -9 -105t21.5 -85t63.5 -56.5t117 -20.5q58 0 103 13.5t75 36.5t52 58.5t34 73t21 85.5l153 856h391l-153 -873q-18 -104 -46 -185t-80 -158.5t-124 -128.5t-182.5 -81.5t-251.5 -30.5q-118 0 -211.5 18.5 t-158 51t-108.5 81.5t-67.5 106t-31.5 129t-3.5 145zM500 1509l274 293h348l170 -293h-235l-121 138l-166 -138h-270z" />
<glyph unicode="&#xdc;" horiz-adv-x="1480" d="M93.5 508q4.5 73 19.5 160l135 766h395l-154 -856q-13 -56 -9 -105t21.5 -85t63.5 -56.5t117 -20.5q58 0 103 13.5t75 36.5t52 58.5t34 73t21 85.5l153 856h391l-153 -873q-18 -104 -46 -185t-80 -158.5t-124 -128.5t-182.5 -81.5t-251.5 -30.5q-118 0 -211.5 18.5 t-158 51t-108.5 81.5t-67.5 106t-31.5 129t-3.5 145zM551 1530l49 280h295l-51 -280h-293zM956 1530l45 280h295l-47 -280h-293z" />
<glyph unicode="&#xdd;" horiz-adv-x="1380" d="M127 1434h418l174 -527l358 527h457l-660 -869l-98 -565h-393l100 569zM598 1509l305 293h426l-405 -293h-326z" />
<glyph unicode="&#xde;" horiz-adv-x="1406" d="M16 0l252 1434h394l-39 -213h174q596 0 596 -433q0 -67 -18 -136t-61.5 -140t-108 -126t-167.5 -89.5t-229 -34.5h-352l-47 -262h-394zM508 582h227q125 0 189.5 53.5t64.5 140.5q0 66 -52 93.5t-146 27.5h-220z" />
<glyph unicode="&#xdf;" horiz-adv-x="1560" d="M-10 0l174 981q16 83 45 149t84 129t132.5 105t195 67t266.5 25q156 0 276 -28t192 -74t114.5 -109t54 -128.5t0.5 -137.5l-4 -29l-177 -229q-61 35 -148.5 64.5t-147.5 29.5q-36 0 -58 -12t-22 -31q0 -14 10.5 -25t35.5 -22t43.5 -17.5t60 -19t59.5 -18.5q44 -14 80 -30 t79 -44t71.5 -62t48.5 -85.5t20 -112.5q0 -159 -119 -259t-330 -100q-155 0 -300.5 52t-248.5 125l166 245q73 -49 190 -93t181 -44q31 0 51 11t20 28q0 10 -6.5 19t-20.5 18t-28 16t-36.5 15.5t-38 13.5t-40.5 13t-36 12q-47 16 -83.5 31.5t-79 43.5t-70 60.5t-46 82 t-18.5 109.5q0 155 111.5 259t318.5 104q44 0 116 -11q-52 82 -241 82q-151 0 -239.5 -53.5t-110.5 -179.5l-170 -936h-377z" />
<glyph unicode="&#xe0;" horiz-adv-x="1306" d="M33 387q0 209 66.5 371t186 251t273.5 89q57 0 108 -11.5t96 -35.5t68.5 -40t61.5 -44l18 108h379l-190 -1075h-379l18 106q-184 -129 -368 -129q-67 0 -124.5 21.5t-107 67.5t-78 128t-28.5 193zM389 1493h389l205 -293h-289zM422 430q0 -72 30.5 -113t88.5 -41 q64 0 124 33t128 92l51 287q-94 109 -193 109q-71 0 -124 -52t-79 -134.5t-26 -180.5z" />
<glyph unicode="&#xe1;" horiz-adv-x="1306" d="M33 387q0 209 66.5 371t186 251t273.5 89q57 0 108 -11.5t96 -35.5t68.5 -40t61.5 -44l18 108h379l-190 -1075h-379l18 106q-184 -129 -368 -129q-67 0 -124.5 21.5t-107 67.5t-78 128t-28.5 193zM422 430q0 -72 30.5 -113t88.5 -41q64 0 124 33t128 92l51 287 q-94 109 -193 109q-71 0 -124 -52t-79 -134.5t-26 -180.5zM496 1200l305 293h426l-404 -293h-327z" />
<glyph unicode="&#xe2;" horiz-adv-x="1306" d="M33 387q0 209 66.5 371t186 251t273.5 89q57 0 108 -11.5t96 -35.5t68.5 -40t61.5 -44l18 108h379l-190 -1075h-379l18 106q-184 -129 -368 -129q-67 0 -124.5 21.5t-107 67.5t-78 128t-28.5 193zM356 1200l273 293h348l172 -293h-238l-120 137l-164 -137h-271zM422 430 q0 -72 30.5 -113t88.5 -41q64 0 124 33t128 92l51 287q-94 109 -193 109q-71 0 -124 -52t-79 -134.5t-26 -180.5z" />
<glyph unicode="&#xe3;" horiz-adv-x="1306" d="M33 387q0 209 66.5 371t186 251t273.5 89q57 0 108 -11.5t96 -35.5t68.5 -40t61.5 -44l18 108h379l-190 -1075h-379l18 106q-184 -129 -368 -129q-67 0 -124.5 21.5t-107 67.5t-78 128t-28.5 193zM369 1303q75 107 109 142q75 75 169 75q48 0 102 -24t99.5 -48.5 t73.5 -24.5q49 0 125 97l149 -99q-75 -107 -109 -142q-75 -75 -169 -75q-47 0 -100.5 24t-99 48t-73.5 24q-52 0 -127 -98zM422 430q0 -72 30.5 -113t88.5 -41q64 0 124 33t128 92l51 287q-94 109 -193 109q-71 0 -124 -52t-79 -134.5t-26 -180.5z" />
<glyph unicode="&#xe4;" horiz-adv-x="1306" d="M33 387q0 209 66.5 371t186 251t273.5 89q57 0 108 -11.5t96 -35.5t68.5 -40t61.5 -44l18 108h379l-190 -1075h-379l18 106q-184 -129 -368 -129q-67 0 -124.5 21.5t-107 67.5t-78 128t-28.5 193zM420 1221l49 280h295l-47 -280h-297zM422 430q0 -72 30.5 -113t88.5 -41 q64 0 124 33t128 92l51 287q-94 109 -193 109q-71 0 -124 -52t-79 -134.5t-26 -180.5zM825 1221l47 280h293l-47 -280h-293z" />
<glyph unicode="&#xe5;" horiz-adv-x="1306" d="M33 387q0 209 66.5 371t186 251t273.5 89q57 0 108 -11.5t96 -35.5t68.5 -40t61.5 -44l18 108h379l-190 -1075h-379l18 106q-184 -129 -368 -129q-67 0 -124.5 21.5t-107 67.5t-78 128t-28.5 193zM422 430q0 -72 30.5 -113t88.5 -41q64 0 124 33t128 92l51 287 q-94 109 -193 109q-71 0 -124 -52t-79 -134.5t-26 -180.5zM555 1421q0 98 71 169t171 71q98 0 168.5 -71t70.5 -169q0 -100 -70.5 -170.5t-168.5 -70.5q-100 0 -171 70.5t-71 170.5zM727 1421q0 -29 20.5 -49t49.5 -20q28 0 47.5 20t19.5 49q0 28 -19.5 48t-47.5 20 q-29 0 -49.5 -20t-20.5 -48z" />
<glyph unicode="&#xe6;" horiz-adv-x="1955" d="M33 387q0 210 66 371.5t185 250.5t273 89q57 0 108 -11.5t96 -35.5t68.5 -40t61.5 -44l18 108h357q94 23 190 23q208 0 335.5 -88.5t127.5 -237.5q0 -65 -18 -116.5t-48.5 -88t-78.5 -63t-99 -42t-119 -25t-130 -12.5t-140 -3h-100v-2q0 -78 34.5 -122t120.5 -44 q135 0 392 115l110 -258q-59 -26 -130 -51t-202.5 -54t-242.5 -29q-96 0 -183 23h-364l18 109q-188 -132 -370 -132q-66 0 -123.5 21.5t-106.5 67.5t-77.5 128t-28.5 193zM420 430q0 -72 30.5 -113t88.5 -41q64 0 124 33.5t128 91.5l51 289q-92 107 -191 107 q-72 0 -125.5 -52t-79.5 -134t-26 -181zM1221 616h77q124 0 193.5 32.5t69.5 94.5q0 40 -30.5 65.5t-82.5 25.5q-82 0 -138.5 -61.5t-88.5 -156.5z" />
<glyph unicode="&#xe7;" horiz-adv-x="1075" d="M31 430q0 133 31.5 245t85 189t124.5 130.5t150 78.5t162 25q42 0 84.5 -5t74 -9.5t74.5 -18.5t63 -20t64.5 -26t53.5 -24t56 -27l46 -24l-166 -262q-56 29 -85.5 43t-84.5 32.5t-94 18.5q-76 0 -135 -50.5t-87 -120.5t-28 -142q0 -76 37 -120t112 -44q80 0 285 88 l121 -289q-261 -105 -443 -118q37 -77 37 -142q0 -114 -77 -170.5t-191 -56.5q-126 0 -203 47l103 176q41 -22 92 -22q98 0 98 79q0 45 -26 97q-154 29 -244 139.5t-90 302.5z" />
<glyph unicode="&#xe8;" horiz-adv-x="1177" d="M29 440q0 188 75 336t224.5 235t353.5 87q208 0 335.5 -88.5t127.5 -237.5q0 -75 -23 -133t-68.5 -95.5t-100.5 -62.5t-132 -37.5t-148 -17t-163 -4.5h-100v-2q0 -78 35.5 -122t121.5 -44q129 0 394 115l108 -258q-317 -134 -577 -134q-463 0 -463 463zM365 1493h389 l207 -293h-291zM444 616h80q122 0 191 32.5t69 94.5q0 40 -30 65.5t-82 25.5q-81 0 -139 -62t-89 -156z" />
<glyph unicode="&#xe9;" horiz-adv-x="1177" d="M29 440q0 188 75 336t224.5 235t353.5 87q208 0 335.5 -88.5t127.5 -237.5q0 -75 -23 -133t-68.5 -95.5t-100.5 -62.5t-132 -37.5t-148 -17t-163 -4.5h-100v-2q0 -78 35.5 -122t121.5 -44q129 0 394 115l108 -258q-317 -134 -577 -134q-463 0 -463 463zM444 616h80 q122 0 191 32.5t69 94.5q0 40 -30 65.5t-82 25.5q-81 0 -139 -62t-89 -156zM481 1200l305 293h426l-405 -293h-326z" />
<glyph unicode="&#xea;" horiz-adv-x="1177" d="M29 440q0 188 75 336t224.5 235t353.5 87q208 0 335.5 -88.5t127.5 -237.5q0 -75 -23 -133t-68.5 -95.5t-100.5 -62.5t-132 -37.5t-148 -17t-163 -4.5h-100v-2q0 -78 35.5 -122t121.5 -44q129 0 394 115l108 -258q-317 -134 -577 -134q-463 0 -463 463zM332 1200l272 293 h348l172 -293h-239l-117 137l-168 -137h-268zM444 616h80q122 0 191 32.5t69 94.5q0 40 -30 65.5t-82 25.5q-81 0 -139 -62t-89 -156z" />
<glyph unicode="&#xeb;" horiz-adv-x="1177" d="M29 440q0 188 75 336t224.5 235t353.5 87q208 0 335.5 -88.5t127.5 -237.5q0 -75 -23 -133t-68.5 -95.5t-100.5 -62.5t-132 -37.5t-148 -17t-163 -4.5h-100v-2q0 -78 35.5 -122t121.5 -44q129 0 394 115l108 -258q-317 -134 -577 -134q-463 0 -463 463zM383 1221l47 280 h297l-47 -280h-297zM444 616h80q122 0 191 32.5t69 94.5q0 40 -30 65.5t-82 25.5q-81 0 -139 -62t-89 -156zM786 1221l50 280h297l-52 -280h-295z" />
<glyph unicode="&#xec;" horiz-adv-x="577" d="M-10 0l190 1075h379l-190 -1075h-379zM29 1493h387l209 -293h-289z" />
<glyph unicode="&#xed;" horiz-adv-x="577" d="M-10 0l190 1075h379l-190 -1075h-379zM143 1200l306 293h428l-408 -293h-326z" />
<glyph unicode="&#xee;" horiz-adv-x="577" d="M-10 0l190 1075h379l-190 -1075h-379zM-6 1200l276 293h346l170 -293h-235l-119 137l-168 -137h-270z" />
<glyph unicode="&#xef;" horiz-adv-x="577" d="M-10 0l190 1075h379l-190 -1075h-379zM47 1221l49 280h295l-51 -280h-293zM449 1221l51 280h295l-52 -280h-294z" />
<glyph unicode="&#xf0;" horiz-adv-x="1329" d="M27 451q0 112 43 210t115.5 166.5t171 108t206.5 39.5q76 0 141.5 -19.5t105 -46.5t68.5 -54.5t40 -46.5l12 -20q-26 233 -213 312l-68 -74h-297l105 113q-38 -2 -78 -6t-61 -7l-21 -4l8 289q90 23 217 23q88 0 195 -21l74 80h294l-149 -162q164 -95 252 -266.5 t88 -382.5q0 -154 -46.5 -283.5t-133.5 -223t-218 -146t-292 -52.5q-261 0 -410 128t-149 346zM422 442q0 -79 44 -128.5t146 -49.5q66 0 116.5 21t79.5 56.5t43.5 77.5t14.5 89q0 80 -45 130t-145 50q-124 0 -189 -72t-65 -174z" />
<glyph unicode="&#xf1;" horiz-adv-x="1292" d="M-10 0l190 1075h379l-20 -108q206 131 383 131q181 0 256 -104.5t41 -288.5l-123 -705h-381l119 664q13 69 -3.5 106t-76.5 37q-59 0 -131.5 -32.5t-130.5 -80.5l-123 -694h-379zM369 1303q75 107 109 142q75 75 169 75q47 0 100.5 -24t99 -48.5t73.5 -24.5q51 0 124 97 l150 -99q-75 -108 -111 -143q-74 -74 -168 -74q-47 0 -100 24t-97.5 48t-72.5 24q-55 0 -127 -98z" />
<glyph unicode="&#xf2;" d="M33 477q0 127 38 237.5t112 197t192.5 136.5t269.5 50q271 0 427.5 -131.5t156.5 -368.5q0 -127 -38.5 -237.5t-112.5 -197t-193 -136.5t-269 -50q-271 0 -427 131.5t-156 368.5zM383 1493h389l207 -293h-289zM412 473q0 -101 48.5 -155t145.5 -54q78 0 134.5 51 t82 125.5t25.5 161.5q0 100 -48.5 154.5t-146.5 54.5q-78 0 -134.5 -51t-81.5 -125.5t-25 -161.5z" />
<glyph unicode="&#xf3;" d="M33 477q0 127 38 237.5t112 197t192.5 136.5t269.5 50q271 0 427.5 -131.5t156.5 -368.5q0 -127 -38.5 -237.5t-112.5 -197t-193 -136.5t-269 -50q-271 0 -427 131.5t-156 368.5zM412 473q0 -101 48.5 -155t145.5 -54q78 0 134.5 51t82 125.5t25.5 161.5 q0 100 -48.5 154.5t-146.5 54.5q-78 0 -134.5 -51t-81.5 -125.5t-25 -161.5zM502 1200l305 293h424l-406 -293h-323z" />
<glyph unicode="&#xf4;" d="M33 477q0 127 38 237.5t112 197t192.5 136.5t269.5 50q271 0 427.5 -131.5t156.5 -368.5q0 -127 -38.5 -237.5t-112.5 -197t-193 -136.5t-269 -50q-271 0 -427 131.5t-156 368.5zM350 1200l275 293h348l170 -293h-236l-121 137l-165 -137h-271zM412 473q0 -101 48.5 -155 t145.5 -54q78 0 134.5 51t82 125.5t25.5 161.5q0 100 -48.5 154.5t-146.5 54.5q-78 0 -134.5 -51t-81.5 -125.5t-25 -161.5z" />
<glyph unicode="&#xf5;" d="M33 477q0 127 38 237.5t112 197t192.5 136.5t269.5 50q271 0 427.5 -131.5t156.5 -368.5q0 -127 -38.5 -237.5t-112.5 -197t-193 -136.5t-269 -50q-271 0 -427 131.5t-156 368.5zM358 1257q6 11 20.5 38t22 39.5t22 36.5t25 36.5t26.5 31t32 28t35.5 19.5t42 14.5 t47.5 4.5q58 0 156 -40t139 -40q72 0 116 80l150 -53q-4 -8 -23 -43t-25 -45.5t-24.5 -39.5t-29.5 -40t-32 -31t-39 -27.5t-43.5 -14.5t-53.5 -7q-60 0 -157 40t-138 40q-72 0 -119 -80zM412 473q0 -101 48.5 -155t145.5 -54q78 0 134.5 51t82 125.5t25.5 161.5 q0 100 -48.5 154.5t-146.5 54.5q-78 0 -134.5 -51t-81.5 -125.5t-25 -161.5z" />
<glyph unicode="&#xf6;" d="M33 477q0 127 38 237.5t112 197t192.5 136.5t269.5 50q271 0 427.5 -131.5t156.5 -368.5q0 -127 -38.5 -237.5t-112.5 -197t-193 -136.5t-269 -50q-271 0 -427 131.5t-156 368.5zM406 1221l47 280h297l-50 -280h-294zM412 473q0 -101 48.5 -155t145.5 -54q78 0 134.5 51 t82 125.5t25.5 161.5q0 100 -48.5 154.5t-146.5 54.5q-78 0 -134.5 -51t-81.5 -125.5t-25 -161.5zM809 1221l47 280h297l-51 -280h-293z" />
<glyph unicode="&#xf7;" horiz-adv-x="1335" d="M125 543l47 280h1063l-47 -280h-1063zM440 272q-7 77 49.5 134t135.5 57q65 0 109 -40t50 -101q6 -78 -49.5 -134.5t-138.5 -56.5q-62 0 -106 40t-50 101zM575 1049q-7 76 49 132t136 56q63 0 108 -40.5t50 -100.5q7 -76 -49 -134.5t-136 -58.5q-63 0 -108 42t-50 104z " />
<glyph unicode="&#xf8;" horiz-adv-x="1292" d="M-29 0l166 164q-102 124 -102 313q0 127 38.5 237.5t112.5 197t193 136.5t270 50q210 0 355 -82l61 59h213l-156 -153q111 -126 111 -324q0 -127 -38.5 -237.5t-112.5 -197t-192.5 -136.5t-268.5 -50q-222 0 -367 86l-66 -63h-217zM416 473q0 -23 2 -35l350 346 q-49 27 -111 27q-78 0 -134.5 -51t-81.5 -125.5t-25 -161.5zM487 295q48 -31 123 -31q78 0 134.5 51t82 125.5t25.5 161.5q0 17 -4 49z" />
<glyph unicode="&#xf9;" d="M45 371l125 704h379l-119 -663q-13 -70 3.5 -107t78.5 -37q58 0 131.5 33t128.5 80l123 694h377l-191 -1075h-376l18 109q-198 -132 -381 -132q-181 0 -255 104.5t-42 289.5zM379 1493h389l207 -293h-291z" />
<glyph unicode="&#xfa;" d="M45 371l125 704h379l-119 -663q-13 -70 3.5 -107t78.5 -37q58 0 131.5 33t128.5 80l123 694h377l-191 -1075h-376l18 109q-198 -132 -381 -132q-181 0 -255 104.5t-42 289.5zM498 1200l305 293h424l-404 -293h-325z" />
<glyph unicode="&#xfb;" d="M45 371l125 704h379l-119 -663q-13 -70 3.5 -107t78.5 -37q58 0 131.5 33t128.5 80l123 694h377l-191 -1075h-376l18 109q-198 -132 -381 -132q-181 0 -255 104.5t-42 289.5zM346 1200l275 293h346l172 -293h-236l-121 137l-166 -137h-270z" />
<glyph unicode="&#xfc;" d="M45 371l125 704h379l-119 -663q-13 -70 3.5 -107t78.5 -37q58 0 131.5 33t128.5 80l123 694h377l-191 -1075h-376l18 109q-198 -132 -381 -132q-181 0 -255 104.5t-42 289.5zM399 1221l50 280h294l-47 -280h-297zM803 1221l49 280h297l-49 -280h-297z" />
<glyph unicode="&#xfd;" horiz-adv-x="1216" d="M-12 -190q18 6 58.5 20t55.5 19t45.5 17.5t46 21t38 22.5t40 30.5t35.5 36.5l-227 1098h391l88 -633l311 633h420l-594 -1075q-81 -143 -125 -200q-121 -157 -319 -230q-83 -30 -182 -49zM461 1200l305 293h426l-404 -293h-327z" />
<glyph unicode="&#xfe;" horiz-adv-x="1300" d="M-84 -418l338 1911h379l-92 -524q184 129 358 129q69 0 128 -22t109.5 -68t79.5 -128t29 -192q0 -317 -145 -514t-377 -197q-77 0 -147 22.5t-106.5 45.5t-82.5 59l-92 -522h-379zM436 383q90 -104 195 -104q104 0 165.5 107t61.5 259q0 73 -32.5 112.5t-94.5 39.5 q-100 0 -244 -119z" />
<glyph unicode="&#xff;" horiz-adv-x="1216" d="M-12 -190q18 6 58.5 20t55.5 19t45.5 17.5t46 21t38 22.5t40 30.5t35.5 36.5l-227 1098h391l88 -633l311 633h420l-594 -1075q-81 -143 -125 -200q-121 -157 -319 -230q-83 -30 -182 -49zM360 1221l52 280h295l-50 -280h-297zM766 1221l49 280h295l-51 -280h-293z" />
<glyph unicode="&#x152;" horiz-adv-x="2293" d="M74 618q0 61 9 128.5t32.5 151t60 160t96.5 150.5t136.5 128t186.5 87t239 33q266 0 440 -100l14 78h1067l-53 -332h-674l-45 -223h549l-53 -324h-551l-45 -223h686l-55 -332h-1078l2 8q-119 -33 -241 -33q-348 0 -535.5 167.5t-187.5 475.5zM479 629q0 -320 303 -320 q80 0 145 34t105.5 87t68.5 120.5t39 130.5t11 122q0 319 -303 319q-80 0 -145 -34t-105.5 -87t-68.5 -120.5t-39 -130t-11 -121.5z" />
<glyph unicode="&#x153;" horiz-adv-x="1992" d="M33 477q0 127 38 237.5t112 197t192.5 136.5t269.5 50q273 0 428 -133q173 133 422 133q209 0 336 -88t127 -238q0 -75 -23 -133t-68 -95.5t-99.5 -62.5t-131 -37.5t-147.5 -17t-162 -4.5h-102v-2q0 -78 34.5 -122t120.5 -44q135 0 392 115l110 -258q-317 -134 -575 -134 q-216 0 -332 99q-149 -99 -359 -99q-271 0 -427 131.5t-156 368.5zM412 473q0 -101 48.5 -155t145.5 -54q78 0 134.5 51t82 125.5t25.5 161.5q0 100 -48.5 154.5t-146.5 54.5q-78 0 -134.5 -51t-81.5 -125.5t-25 -161.5zM1257 616h82q121 0 189.5 32.5t68.5 94.5 q0 40 -30 65.5t-82 25.5q-151 0 -228 -218z" />
<glyph unicode="&#x178;" horiz-adv-x="1380" d="M127 1434h418l174 -527l358 527h457l-660 -869l-98 -565h-393l100 569zM502 1530l45 280h295l-47 -280h-293zM901 1530l49 280h297l-49 -280h-297z" />
<glyph unicode="&#x2c6;" horiz-adv-x="630" d="M127 1200l272 293h349l172 -293h-238l-119 137l-166 -137h-270z" />
<glyph unicode="&#x2dc;" horiz-adv-x="638" d="M141 1303q75 108 111 143q74 74 168 74q37 0 79 -15t72.5 -33.5t64 -33.5t56.5 -15q51 0 127 97l148 -99q-32 -47 -47.5 -68.5t-45.5 -56t-53.5 -50.5t-58 -29t-72.5 -13q-48 0 -101.5 24t-98 48t-72.5 24q-55 0 -127 -98z" />
<glyph unicode="&#x2000;" horiz-adv-x="985" />
<glyph unicode="&#x2001;" horiz-adv-x="1970" />
<glyph unicode="&#x2002;" horiz-adv-x="985" />
<glyph unicode="&#x2003;" horiz-adv-x="1970" />
<glyph unicode="&#x2004;" horiz-adv-x="656" />
<glyph unicode="&#x2005;" horiz-adv-x="492" />
<glyph unicode="&#x2006;" horiz-adv-x="328" />
<glyph unicode="&#x2007;" horiz-adv-x="328" />
<glyph unicode="&#x2008;" horiz-adv-x="246" />
<glyph unicode="&#x2009;" horiz-adv-x="394" />
<glyph unicode="&#x200a;" horiz-adv-x="109" />
<glyph unicode="&#x2010;" horiz-adv-x="880" d="M63 432l52 301h690l-51 -301h-691z" />
<glyph unicode="&#x2011;" horiz-adv-x="880" d="M63 432l52 301h690l-51 -301h-691z" />
<glyph unicode="&#x2012;" horiz-adv-x="880" d="M63 432l52 301h690l-51 -301h-691z" />
<glyph unicode="&#x2013;" horiz-adv-x="1144" d="M63 434l52 297h950l-51 -297h-951z" />
<glyph unicode="&#x2014;" horiz-adv-x="1363" d="M63 434l52 297h1169l-51 -297h-1170z" />
<glyph unicode="&#x2018;" horiz-adv-x="559" d="M111 715l53 450l356 310l78 -123l-213 -240h168l-66 -397h-376z" />
<glyph unicode="&#x2019;" horiz-adv-x="530" d="M109 797l210 239h-167l67 398h377l-53 -451l-357 -309z" />
<glyph unicode="&#x201a;" horiz-adv-x="567" d="M-57 -238l211 238h-168l67 397h377l-53 -448l-357 -311z" />
<glyph unicode="&#x201c;" horiz-adv-x="1071" d="M111 715l53 450l356 310l78 -123l-213 -240h168l-66 -397h-376zM623 715l53 450l356 310l78 -123l-211 -240h168l-68 -397h-376z" />
<glyph unicode="&#x201d;" horiz-adv-x="1044" d="M109 797l210 239h-167l67 398h377l-53 -451l-357 -309zM621 797l213 239h-168l67 398h375l-51 -451l-359 -309z" />
<glyph unicode="&#x201e;" horiz-adv-x="1081" d="M-57 -238l211 238h-168l67 397h377l-53 -448l-357 -311zM455 -238l213 238h-166l65 397h375l-51 -448l-359 -311z" />
<glyph unicode="&#x2022;" horiz-adv-x="978" d="M119 584q0 151 105 257.5t257 106.5t258.5 -106.5t106.5 -257.5q0 -152 -106.5 -257.5t-258.5 -105.5t-257 105.5t-105 257.5z" />
<glyph unicode="&#x2026;" horiz-adv-x="1660" d="M-12 0l67 397h377l-65 -397h-379zM539 0l67 397h377l-65 -397h-379zM1087 0l70 397h377l-68 -397h-379z" />
<glyph unicode="&#x202f;" horiz-adv-x="394" />
<glyph unicode="&#x2039;" horiz-adv-x="763" d="M18 432l37 223l693 422l-62 -372l-336 -189l264 -184l-55 -322z" />
<glyph unicode="&#x203a;" horiz-adv-x="761" d="M-8 10l59 375l338 186l-262 185l51 321l543 -422l-37 -223z" />
<glyph unicode="&#x205f;" horiz-adv-x="492" />
<glyph unicode="&#x20ac;" horiz-adv-x="1507" d="M45 477l33 191h112q1 16 11 88h-105l33 190h115q79 244 253.5 377t405.5 133q93 0 181 -18t175 -56t142.5 -67.5t142.5 -81.5l-205 -279q-129 75 -216.5 111.5t-172.5 36.5q-166 0 -266 -156h397l-34 -190h-439q-12 -58 -14 -88h436l-35 -191h-395q31 -147 178 -147 q142 0 430 139l162 -309q-378 -183 -688 -183q-216 0 -346 126.5t-148 373.5h-143z" />
<glyph unicode="&#x2122;" horiz-adv-x="1275" d="M223 1319l17 115h448l-18 -115h-156l-59 -344h-140l62 344h-154zM659 975l80 459h146l90 -244l184 244h146l-78 -459h-142l43 256l-133 -180h-82l-69 186l-45 -262h-140z" />
<glyph unicode="&#x25fc;" horiz-adv-x="1075" d="M0 0v1075h1075v-1075h-1075z" />
</font>
</defs>
</svg>
