<?xml version="1.0" standalone="no"?>
<!DOCTYPE svg PUBLIC "-//W3C//DTD SVG 1.1//EN" "http://www.w3.org/Graphics/SVG/1.1/DTD/svg11.dtd" >
<svg xmlns="http://www.w3.org/2000/svg" xmlns:xlink="http://www.w3.org/1999/xlink" version="1.1">
<metadata></metadata>
<defs>
<font id="verbsemibold_italic" horiz-adv-x="1290" >
<font-face units-per-em="2048" ascent="1638" descent="-410" />
<missing-glyph horiz-adv-x="561" />
<glyph unicode="&#xfb01;" horiz-adv-x="1294" d="M-199 -258q50 15 84 26.5t64 26.5t48 25.5t34 31.5t24.5 35.5t17.5 46t14 55t13 70.5l148 828h-144l33 188h144l16 86q28 173 100 252.5t211 79.5q66 0 150 -25t145 -53l-90 -172q-101 31 -154 31q-88 0 -108 -109l-16 -90h272l-33 -188h-272l-144 -811 q-34 -188 -58 -253q-40 -107 -131 -166q-97 -61 -312 -110zM793 0l190 1075h254l-190 -1075h-254zM1008 1249l41 238h268l-39 -238h-270z" />
<glyph unicode="&#xfb02;" horiz-adv-x="1306" d="M-199 -258q50 15 84 26.5t64 26.5t48 25.5t34 31.5t24.5 35.5t17.5 46t14 55t13 70.5l148 828h-144l33 188h144l16 86q28 173 100 252.5t211 79.5q66 0 150 -25t145 -53l-90 -172q-101 31 -154 31q-88 0 -108 -109l-16 -90h272l-33 -188h-272l-144 -811 q-34 -188 -58 -253q-40 -107 -131 -166q-97 -61 -312 -110zM799 0l264 1493h254l-264 -1493h-254z" />
<glyph unicode="&#xfb03;" horiz-adv-x="2052" d="M-199 -258q50 15 84 26.5t64 26.5t48 25.5t34 31.5t24.5 35.5t17.5 46t14 55t13 70.5l148 828h-144l33 188h144l16 86q29 174 100 253t215 79q92 0 193 -30.5t168 -65.5l-96 -166q-138 43 -218 43q-88 0 -108 -109l-16 -90h251l-32 -188h-252l-144 -811 q-34 -188 -58 -253q-40 -107 -131 -166q-97 -61 -312 -110zM559 -258q50 15 84 26.5t64 26.5t48 25.5t34 31.5t24.5 35.5t17.5 46t14 55t13 70.5l148 828h-144l33 188h143l17 86q28 173 100 252.5t211 79.5q66 0 150 -25t145 -53l-90 -172q-101 31 -154 31q-88 0 -108 -109 l-17 -90h273l-33 -188h-272l-144 -811q-34 -189 -59 -254q-40 -107 -133 -166q-96 -61 -310 -109zM1550 0l191 1075h254l-191 -1075h-254zM1765 1249l41 238h269l-39 -238h-271z" />
<glyph unicode="&#xfb04;" horiz-adv-x="2064" d="M-199 -258q50 15 84 26.5t64 26.5t48 25.5t34 31.5t24.5 35.5t17.5 46t14 55t13 70.5l148 828h-144l33 188h144l16 86q29 174 100 253t215 79q92 0 193 -30.5t168 -65.5l-96 -166q-138 43 -218 43q-88 0 -108 -109l-16 -90h251l-32 -188h-252l-144 -811 q-34 -188 -58 -253q-40 -107 -131 -166q-97 -61 -312 -110zM559 -258q50 15 84 26.5t64 26.5t48 25.5t34 31.5t24.5 35.5t17.5 46t14 55t13 70.5l148 828h-144l33 188h143l17 86q28 173 100 252.5t211 79.5q66 0 150 -25t145 -53l-90 -172q-101 31 -154 31q-88 0 -108 -109 l-17 -90h273l-33 -188h-272l-144 -811q-34 -189 -59 -254q-40 -107 -133 -166q-96 -61 -310 -109zM1556 0l265 1493h254l-265 -1493h-254z" />
<glyph horiz-adv-x="0" />
<glyph horiz-adv-x="682" />
<glyph unicode=" "  horiz-adv-x="561" />
<glyph unicode="&#x09;" horiz-adv-x="561" />
<glyph unicode="&#xa0;" horiz-adv-x="561" />
<glyph unicode="!" horiz-adv-x="565" d="M41 0l49 287h268l-47 -287h-270zM178 451l96 983h308l-250 -983h-154z" />
<glyph unicode="&#x22;" horiz-adv-x="868" d="M190 883l54 551h248l-140 -551h-162zM604 883l51 551h250l-141 -551h-160z" />
<glyph unicode="#" horiz-adv-x="1511" d="M39 338l33 192h274l121 371h-244l33 195h274l113 338h203l-113 -338h328l113 338h200l-112 -338h247l-32 -195h-279l-123 -371h250l-33 -192h-280l-111 -338h-201l111 338h-326l-110 -338h-203l111 338h-244zM549 530h325l123 371h-327z" />
<glyph unicode="$" horiz-adv-x="1306" d="M6 182l141 180q175 -107 347 -149l71 412l-49 20q-58 24 -101.5 46.5t-89 56.5t-74 72t-47 91.5t-18.5 116.5q0 187 144 307t383 121l32 184h187l-37 -202q188 -38 397 -154l-139 -178q-139 78 -297 113l-68 -383l46 -19q60 -25 104 -47t93.5 -57.5t80.5 -75t51.5 -96 t20.5 -123.5q0 -195 -153.5 -317t-393.5 -124l-31 -182h-186l35 201q-127 23 -244 74t-205 112zM469 1051q0 -55 35 -87t110 -63l60 330q-90 -11 -147.5 -57.5t-57.5 -122.5zM676 199q100 11 163.5 62t63.5 128q0 57 -41.5 95t-122.5 73z" />
<glyph unicode="%" horiz-adv-x="2048" d="M152 1008q0 190 115 319t306 129q171 0 270 -87t99 -234q0 -191 -114 -319t-306 -128q-171 0 -270.5 86.5t-99.5 233.5zM350 1024q0 -180 180 -180q65 0 115.5 42.5t75 104t24.5 127.5q0 182 -176 182q-67 0 -118.5 -43t-76 -105t-24.5 -128zM444 0l992 1434h206 l-993 -1434h-205zM1143 297q0 190 115.5 319t306.5 129q171 0 269.5 -87t98.5 -234q0 -191 -114 -319t-306 -128q-171 0 -270.5 86.5t-99.5 233.5zM1341 313q0 -180 181 -180q65 0 115.5 43t75 104.5t24.5 127.5q0 182 -176 182q-67 0 -119 -43.5t-76.5 -105.5t-24.5 -128z " />
<glyph unicode="&#x26;" horiz-adv-x="1452" d="M74 330q0 63 21 120.5t53.5 101t83.5 87t98.5 74.5t111.5 67q-64 82 -96.5 155t-32.5 159q0 165 121 263.5t299 98.5q164 0 267.5 -82.5t103.5 -216.5q0 -67 -28 -127.5t-82.5 -113.5t-108.5 -92.5t-133 -88.5l227 -274q97 127 160 295h256q-33 -108 -102 -235t-167 -238 l238 -283h-274l-117 139q-214 -162 -463 -162q-197 0 -316.5 95t-119.5 258zM326 336q0 -68 48.5 -117t147.5 -49q161 0 316 135l-267 320q-118 -74 -181.5 -142t-63.5 -147zM545 1085q0 -93 84 -202q117 67 178 126t61 134q0 54 -35 90.5t-104 36.5q-86 0 -135 -54 t-49 -131z" />
<glyph unicode="'" horiz-adv-x="456" d="M190 883l54 551h248l-140 -551h-162z" />
<glyph unicode="(" horiz-adv-x="657" d="M36.5 -49.5q-7.5 83.5 16.5 205.5l201 1114q10 59 17.5 93t20.5 76.5t28.5 66.5t41 53.5t58 47.5t79 39t105.5 38t137 34l47 -157q-83 -26 -129.5 -46.5t-74.5 -50t-38.5 -59t-21.5 -86.5l-217 -1215q-8 -43 -10.5 -67t-0.5 -50.5t11 -41t29.5 -31.5t49 -30.5t73.5 -30.5 l-70 -146q-184 45 -264.5 102.5t-88 141z" />
<glyph unicode=")" horiz-adv-x="659" d="M-98 -135q110 34 161.5 64.5t70.5 66t32 108.5l219 1215q8 44 10.5 68t0.5 50.5t-11 41t-29.5 32t-49 31t-73.5 31.5l70 145q183 -46 263 -103.5t87.5 -140t-16.5 -204.5l-199 -1114q-8 -47 -14 -76t-15.5 -65.5t-19 -58t-25 -49t-34 -44t-45 -37t-58 -34.5t-73.5 -29.5 t-92 -28.5t-113 -27z" />
<glyph unicode="*" horiz-adv-x="985" d="M162 1008l325 43l-290 155l141 166l201 -262l-15 326l211 -37l-123 -301l277 176l74 -205l-318 -45l283 -154l-140 -163l-196 251l10 -317l-213 35l125 305l-278 -176z" />
<glyph unicode="+" d="M121 586l33 192h419l66 381h199l-66 -381h418l-31 -192h-422l-65 -381h-199l66 381h-418z" />
<glyph unicode="," horiz-adv-x="528" d="M-25 -223l168 223h-120l51 307h266l-35 -336l-272 -282z" />
<glyph unicode="-" horiz-adv-x="884" d="M106 479l37 207h623l-37 -207h-623z" />
<glyph unicode="." horiz-adv-x="522" d="M23 0l51 307h268l-51 -307h-268z" />
<glyph unicode="/" horiz-adv-x="974" d="M-86 -184l981 1802h205l-981 -1802h-205z" />
<glyph unicode="0" horiz-adv-x="1392" d="M115 561q0 70 9 146.5t31.5 165t55.5 170t86 157.5t119 132.5t157.5 90t198.5 33.5q119 0 214 -34t155.5 -90t100.5 -133t56.5 -158t16.5 -171q0 -70 -9 -146.5t-31.5 -165t-56 -170t-86.5 -157.5t-119 -132.5t-158.5 -90t-199.5 -33.5q-119 0 -213 34t-154.5 90 t-100 133t-56 158t-16.5 171zM377 537q4 -353 278 -353q87 0 158 55.5t113.5 137.5t72 183t40.5 185.5t10 149.5q0 352 -277 352q-87 0 -158 -55.5t-113.5 -137.5t-71.5 -182.5t-40.5 -184.5t-11.5 -150z" />
<glyph unicode="1" horiz-adv-x="804" d="M125 1225l407 209h246l-252 -1434h-264l211 1167l-266 -129z" />
<glyph unicode="2" horiz-adv-x="1226" d="M-25 0l23 131q11 65 33.5 123.5t50 104.5t68.5 90t79 77t92 69.5t97.5 62.5t104.5 62q6 3 9 5t8 5t9 5q202 117 266 165q118 90 125 178v14q-2 65 -56 104t-151 39q-100 0 -207 -41t-188 -90l-98 186q257 166 524 166q209 0 325.5 -99t116.5 -259q0 -57 -17 -110 t-43 -95.5t-70.5 -87t-84.5 -76t-102 -71t-105 -64t-111 -61.5q-28 -15 -42 -23q-157 -86 -220 -144.5t-81 -146.5h717l-35 -219h-1037z" />
<glyph unicode="3" horiz-adv-x="1243" d="M-27 168l133 168q226 -137 412 -137q147 0 234.5 66t87.5 169q0 61 -31.5 105.5t-86.5 69.5t-119.5 36.5t-139.5 11.5h-62l37 224h72q91 0 177 24t147 76t61 121q0 62 -49 97.5t-139 35.5q-92 0 -196 -36.5t-185 -82.5l-86 182q252 158 514 158q199 0 306 -88.5 t107 -224.5q0 -115 -82 -211.5t-237 -153.5q113 -32 186.5 -127t73.5 -223q0 -65 -20 -127.5t-64 -121.5t-108.5 -103.5t-160.5 -71.5t-212 -27q-83 0 -165 15.5t-138 35t-117 50.5t-87 48t-63 42z" />
<glyph unicode="4" horiz-adv-x="1341" d="M-2 289l33 188l825 957h348l-162 -924h215l-36 -221h-217l-52 -289h-264l51 289h-741zM324 510h454l119 676z" />
<glyph unicode="5" horiz-adv-x="1224" d="M-8 168l145 168q34 -27 76 -52.5t122.5 -53t156.5 -27.5q65 0 126 19t110.5 54.5t79.5 90.5t30 122q0 100 -64.5 162t-183.5 62q-55 0 -113.5 -15.5t-92 -31t-83.5 -41.5l-143 92l200 717h856l-36 -222h-635l-80 -315q105 31 201 31q210 0 327 -121.5t117 -306.5 q0 -104 -40 -197.5t-113.5 -166.5t-187.5 -116t-251 -43q-275 0 -524 191z" />
<glyph unicode="6" horiz-adv-x="1298" d="M96 506q0 194 71 369t193 303t295 203t369 75q68 0 128.5 -9t87.5 -19l26 -9l-97 -194q-57 14 -137 14q-203 0 -371.5 -116t-246.5 -322q144 121 346 121q200 0 317 -119t117 -295q0 -104 -38 -199t-107.5 -169t-178 -118.5t-239.5 -44.5q-130 0 -234 44t-168.5 119 t-98.5 168.5t-34 197.5zM360 489q0 -123 69 -209.5t194 -86.5q96 0 167.5 45t105.5 113.5t34 146.5q0 94 -62.5 158.5t-183.5 64.5q-104 0 -193 -53.5t-129 -116.5q-2 -20 -2 -62z" />
<glyph unicode="7" horiz-adv-x="1064" d="M121 0q28 158 107 337t165 315.5t188 271t154.5 194.5t85.5 94h-665l34 222h975l-32 -203q-13 -13 -36 -37t-90 -101.5t-129.5 -158t-143 -198.5t-143 -231t-115.5 -248t-75 -257h-280z" />
<glyph unicode="8" horiz-adv-x="1318" d="M45 350q0 69 24 130t62 105.5t93.5 84t108 66.5t116.5 52q-183 116 -183 291q0 167 141 272t373 105q213 0 336 -90t123 -238q0 -224 -311 -362q56 -29 99 -60t82.5 -74.5t61 -100t21.5 -123.5q0 -192 -174 -311.5t-447 -119.5q-245 0 -385.5 98t-140.5 275zM315 373 q0 -90 69.5 -141.5t188.5 -51.5q143 0 247 68.5t104 171.5q0 147 -242 256q-60 -20 -106 -38t-97.5 -46t-85 -58t-56 -72t-22.5 -89zM520 1055q0 -116 172 -189q61 19 107 38.5t89 47t66 63.5t23 79q0 68 -53.5 117t-145.5 49q-107 0 -182.5 -62t-75.5 -143z" />
<glyph unicode="9" horiz-adv-x="1298" d="M68 12l96 195q57 -14 137 -14q204 0 372 116.5t245 321.5q-142 -119 -345 -119q-200 0 -317 118.5t-117 295.5q0 103 38 197.5t107 169t178 119t240 44.5q130 0 234 -44t168.5 -118.5t98.5 -168t34 -197.5q0 -194 -71 -369t-193 -303t-295 -203.5t-369 -75.5 q-68 0 -128 8.5t-87 17.5zM403 936q0 -94 62.5 -159.5t183.5 -65.5q102 0 190.5 53t131.5 115q0 10 1 30.5t1 32.5q0 124 -68.5 210.5t-193.5 86.5q-96 0 -168 -45t-106 -113t-34 -145z" />
<glyph unicode=":" horiz-adv-x="544" d="M29 0l51 307h268l-51 -307h-268zM145 662l54 307h268l-51 -307h-271z" />
<glyph unicode=";" horiz-adv-x="565" d="M-10 -223l168 223h-121l51 307h266l-35 -336l-272 -282zM156 662l49 307h270l-51 -307h-268z" />
<glyph unicode="&#x3c;" d="M96 594l31 178l1108 422l-37 -229l-819 -295l711 -293l-35 -205z" />
<glyph unicode="=" d="M86 397l33 193h1036l-31 -193h-1038zM154 778l30 195h1037l-31 -195h-1036z" />
<glyph unicode="&#x3e;" d="M78 172l37 229l819 293l-711 295l35 205l959 -422l-29 -178z" />
<glyph unicode="?" horiz-adv-x="1081" d="M182 1311q248 145 486 145q185 0 300 -89.5t115 -248.5q0 -78 -29.5 -145t-78.5 -115.5t-119 -88t-145.5 -65t-163.5 -42.5l-53 -211h-166l43 354q218 41 333 106.5t115 171.5q0 74 -52 113t-144 39q-83 0 -165.5 -30t-185.5 -85zM197 0l47 287h270l-49 -287h-268z" />
<glyph unicode="@" horiz-adv-x="1959" d="M74 389q0 134 33 262t95 241t155.5 207.5t209 162t261.5 105.5t307 38q164 0 296.5 -42t219.5 -115t142 -172.5t73 -213.5t4 -239q-10 -74 -26 -144t-42.5 -150t-66 -146t-91 -121t-123.5 -86t-157 -31q-62 0 -107.5 16.5t-70.5 41.5t-39.5 59.5t-18 64t-2.5 61.5 q-175 -141 -352 -141q-116 0 -193 75t-77 193q0 112 52 191.5t133.5 116t182.5 36.5q41 0 94.5 -7t85 -12.5t88.5 -18t60 -13.5q2 15 4.5 31t6.5 36t6 32q18 97 -14 138.5t-132 41.5q-134 0 -350 -84l-49 143q237 90 430 90q181 0 256 -81.5t45 -254.5l-66 -362 q-8 -46 -12 -73.5t-6.5 -63t2.5 -55.5t15.5 -39.5t32 -28t52.5 -8.5q109 0 213 156t129 397q7 73 6 144t-21 138.5t-50.5 127t-84 109.5t-120.5 86.5t-160 56.5t-203 20q-145 0 -276 -34.5t-234 -96.5t-186.5 -148t-138 -188t-84 -217t-29.5 -236q0 -190 72.5 -336.5 t216 -230.5t338.5 -84q107 0 205.5 22.5t143.5 45.5l46 22l56 -84q-8 -4 -22 -11.5t-60.5 -26t-96.5 -32.5t-126 -25.5t-152 -11.5q-167 0 -305 57.5t-230.5 158.5t-143 239.5t-50.5 300.5zM702 338q0 -71 40 -106t108 -35q64 0 145 37.5t154 97.5q3 14 14.5 73.5 t18.5 100.5q-176 37 -250 37q-118 0 -174 -60t-56 -145z" />
<glyph unicode="A" horiz-adv-x="1423" d="M-78 0l791 1434h291l286 -1434h-278l-47 305h-584l-154 -305h-305zM487 516h445l-105 674z" />
<glyph unicode="B" horiz-adv-x="1400" d="M59 0l252 1434h537q223 0 348 -87t125 -237q0 -76 -31.5 -141.5t-81 -107t-101 -67t-99.5 -32.5q31 -5 64.5 -18t71 -39.5t66.5 -61.5t48.5 -88.5t19.5 -116.5q0 -209 -142 -323.5t-399 -114.5h-678zM356 205h328q160 0 248 70.5t88 189.5q0 92 -73 141t-204 49h-305z M469 848h285q73 0 138.5 22t113 74.5t47.5 126.5q0 72 -59.5 114t-182.5 42h-272z" />
<glyph unicode="C" horiz-adv-x="1335" d="M111 557q0 206 55.5 377t151 284.5t223.5 175.5t274 62q69 0 139 -15t117.5 -31.5t117 -55t98 -56.5t99.5 -65l-145 -184q-129 88 -218 129t-181 41q-132 0 -238.5 -87t-164.5 -234t-58 -323q0 -181 66 -271.5t186 -90.5q167 0 457 166l116 -207q-173 -92 -324.5 -143.5 t-303.5 -51.5q-213 0 -340 144t-127 436z" />
<glyph unicode="D" horiz-adv-x="1464" d="M59 0l252 1434h422q329 0 493.5 -148t164.5 -412q0 -83 -13 -166.5t-42.5 -170.5t-73.5 -164.5t-110 -146.5t-147 -118.5t-189.5 -78.5t-233.5 -29h-523zM358 223h185q140 0 252 51.5t183 140.5t108.5 205t37.5 250q0 180 -108 259t-320 79h-159z" />
<glyph unicode="E" horiz-adv-x="1243" d="M59 0l250 1434h969l-37 -226h-704l-72 -381h579l-36 -221h-580l-70 -383h717l-37 -223h-979z" />
<glyph unicode="F" horiz-adv-x="1189" d="M59 0l250 1434h969l-37 -226h-704l-72 -383h559l-35 -219h-561l-106 -606h-263z" />
<glyph unicode="G" horiz-adv-x="1449" d="M111 545q0 218 57 394t155 287.5t224.5 170.5t269.5 59q71 0 143.5 -15t128.5 -35.5t121 -55.5t106.5 -61t98.5 -66l-147 -183q-6 4 -44.5 29t-50 32t-48 28.5t-54.5 29.5t-52 23t-58.5 20.5t-55.5 11t-61 5.5q-133 0 -239 -86.5t-164 -234t-58 -325.5q0 -174 62.5 -272 t195.5 -98q170 0 399 184l37 211h-352l35 209h602l-141 -807h-250l26 154q-106 -83 -209.5 -130t-218.5 -47q-98 0 -180.5 35t-145 103.5t-97.5 178.5t-35 251z" />
<glyph unicode="H" horiz-adv-x="1474" d="M59 0l252 1434h262l-100 -572h612l101 572h264l-252 -1434h-264l113 641h-613l-112 -641h-263z" />
<glyph unicode="I" horiz-adv-x="598" d="M59 0l252 1434h262l-251 -1434h-263z" />
<glyph unicode="J" horiz-adv-x="598" d="M-207 -133q62 18 103.5 32t72.5 31.5t48 31t29.5 37.5t18.5 45.5t13 59.5l235 1330h262l-233 -1317q-27 -152 -50 -208q-40 -94 -139 -150q-99 -55 -300 -101z" />
<glyph unicode="K" horiz-adv-x="1382" d="M59 0l252 1434h262l-122 -697l692 697h338l-695 -684l482 -750h-291l-369 575l-225 -221l-61 -354h-263z" />
<glyph unicode="L" horiz-adv-x="1144" d="M59 0l252 1434h262l-215 -1215h682l-34 -219h-947z" />
<glyph unicode="M" horiz-adv-x="1734" d="M59 0l252 1434h271l260 -899l598 899h270l-252 -1434h-264l172 979l-487 -739h-150l-227 786l-180 -1026h-263z" />
<glyph unicode="N" horiz-adv-x="1507" d="M59 0l252 1434h269l452 -1061l187 1061h264l-252 -1434h-268l-455 1063l-186 -1063h-263z" />
<glyph unicode="O" horiz-adv-x="1556" d="M109 596q0 71 11 147t37 161t64 163t97.5 149.5t132.5 124t173.5 84t215.5 31.5q319 0 480 -165t163 -455q0 -83 -16 -173.5t-49.5 -189.5t-92 -186.5t-136.5 -158t-191.5 -112t-247.5 -41.5q-161 0 -283.5 44.5t-200 126.5t-117 195t-40.5 255zM381 602q0 -401 360 -401 q82 0 152.5 30t120.5 80.5t88.5 114t61.5 135t34.5 139t11.5 129.5q0 402 -360 402q-97 0 -178.5 -43t-134 -110t-89 -152t-52 -167t-15.5 -157z" />
<glyph unicode="P" horiz-adv-x="1349" d="M59 0l252 1434h516q257 0 395 -100t138 -302q0 -103 -38 -193.5t-109.5 -161.5t-185.5 -112t-255 -41h-356l-94 -524h-263zM453 741h280q162 0 258 74t96 211q0 186 -260 186h-290z" />
<glyph unicode="Q" horiz-adv-x="1554" d="M109 596q0 71 11 147t37 161t64 163t97.5 149.5t132.5 124t173.5 84t215.5 31.5q319 0 480 -165t163 -455q0 -85 -15.5 -177t-53.5 -193.5t-93.5 -188t-144 -159t-197.5 -108.5l195 -184l-189 -164l-274 313q-201 7 -337 87t-200 215t-65 319zM381 602q0 -401 360 -401 q82 0 152.5 30t120.5 80.5t88.5 114t61.5 135t34.5 139t11.5 129.5q0 402 -360 402q-97 0 -178.5 -43t-134 -110t-89 -152t-52 -167t-15.5 -157z" />
<glyph unicode="R" horiz-adv-x="1421" d="M59 0l252 1434h578q252 0 386 -94.5t134 -286.5q0 -177 -120.5 -310t-334.5 -163l271 -580h-273l-250 573h-278l-102 -573h-263zM459 782h334q161 0 252.5 69t91.5 196q0 178 -269 178h-329z" />
<glyph unicode="S" d="M-2 182l141 180q112 -68 240 -116.5t239 -48.5q119 0 198 52.5t79 139.5q0 34 -16 62t-40 47t-65.5 39.5t-77.5 34t-92.5 35t-95.5 38.5q-58 24 -101.5 46.5t-89 56.5t-74 72t-47 91.5t-18.5 116.5q0 188 145 308t384 120q273 0 577 -172l-139 -178q-92 53 -213 91 t-215 38q-107 0 -181.5 -48t-74.5 -136q0 -31 13 -55.5t33 -41t57.5 -34.5t70.5 -30t90 -33.5t100 -39.5q60 -25 104 -47t93.5 -57.5t81 -75t52 -96t20.5 -123.5q0 -195 -154 -318t-395 -123q-174 0 -339.5 60.5t-289.5 144.5z" />
<glyph unicode="T" horiz-adv-x="1191" d="M141 1208l37 226h1118l-36 -226h-429l-215 -1208h-262l215 1208h-428z" />
<glyph unicode="U" horiz-adv-x="1452" d="M130 447q4 66 17 143l148 844h266l-160 -893q-11 -61 -12 -108q0 -4 -1 -7q0 -42 12 -84q12 -44 40 -74t79 -47.5t124 -17.5q91 0 159.5 25.5t111.5 73.5t68 106t38 133l160 893h262l-160 -906q-17 -96 -45 -174t-78 -150t-118.5 -120.5t-170 -77.5t-229.5 -29 q-100 0 -180.5 16t-136.5 44.5t-96 72t-62 94t-30 114.5q-6 45 -7 91q0 19 1 38z" />
<glyph unicode="V" horiz-adv-x="1417" d="M164 1434h291l180 -1145l573 1145h322l-789 -1434h-290z" />
<glyph unicode="W" horiz-adv-x="1949" d="M184 1434h291l57 -1074l465 1074h230l78 -1074l432 1074h311l-647 -1434h-264l-82 1061l-463 -1061h-266z" />
<glyph unicode="X" horiz-adv-x="1312" d="M-88 0l606 717l-330 717h287l213 -557l404 557h323l-584 -715l357 -719h-295l-231 547l-416 -547h-334z" />
<glyph unicode="Y" horiz-adv-x="1325" d="M156 1434h278l238 -652l467 652h309l-670 -869l-96 -565h-264l100 571z" />
<glyph unicode="Z" horiz-adv-x="1282" d="M-39 0l33 205l948 1003h-721l37 226h1073l-33 -203l-952 -1008h780l-36 -223h-1129z" />
<glyph unicode="[" horiz-adv-x="720" d="M-8 -295l354 2013h520l-26 -157h-256l-301 -1698h256l-27 -158h-520z" />
<glyph unicode="\" horiz-adv-x="948" d="M217 1618h184l363 -1802h-184z" />
<glyph unicode="]" horiz-adv-x="722" d="M-111 -295l27 158h256l301 1698h-256l27 157h520l-354 -2013h-521z" />
<glyph unicode="^" d="M147 682l515 752h260l254 -752h-263l-147 516l-326 -516h-293z" />
<glyph unicode="_" horiz-adv-x="1443" d="M-37 -338l31 182h1182l-31 -182h-1182z" />
<glyph unicode="`" horiz-adv-x="479" d="M236 1493h286l209 -276h-194z" />
<glyph unicode="a" horiz-adv-x="1265" d="M66 371q0 210 64 375.5t181 258.5t267 93q58 0 111.5 -14t99.5 -41.5t75 -49t66 -53.5l24 135h252l-190 -1075h-252l24 143q-197 -166 -399 -166q-63 0 -118.5 21t-102.5 65.5t-74.5 123.5t-27.5 184zM326 397q0 -101 41 -158t118 -57q90 0 170 46t172 128l68 389 q-54 64 -122 105t-138 41q-71 0 -130.5 -41.5t-98 -111t-59.5 -158t-21 -183.5z" />
<glyph unicode="b" horiz-adv-x="1259" d="M31 0l264 1493h252l-96 -543q193 148 374 148q68 0 127 -21t109 -65t79 -122.5t29 -184.5q0 -211 -62.5 -376.5t-177 -258.5t-261.5 -93q-62 0 -117.5 14t-102.5 40.5t-77 48t-66 53.5l-22 -133h-252zM340 328q135 -146 270 -146q91 0 161.5 72t105 183t34.5 239 q0 103 -45.5 160t-134.5 57q-82 0 -155.5 -40.5t-161.5 -113.5z" />
<glyph unicode="c" horiz-adv-x="1067" d="M63 426q0 130 31.5 241.5t84.5 189.5t123 133t148 81.5t158 26.5q43 0 84 -5t82.5 -17.5t68.5 -20.5t69 -29.5t55.5 -27.5t56 -31t43.5 -25l-121 -174q-5 3 -40 23.5t-56.5 31.5t-57 27t-69 23.5t-64.5 7.5q-91 0 -168 -60t-121 -159.5t-44 -212.5q0 -120 51.5 -187 t150.5 -67q30 0 64 7t76.5 23t63.5 24.5t68 31t48 22.5l88 -194q-1 0 -32.5 -14t-38.5 -17.5t-39.5 -16.5t-46 -18t-45 -16.5t-50.5 -16.5t-49.5 -13t-53.5 -11t-51 -6t-53 -3q-185 0 -299.5 116.5t-114.5 332.5z" />
<glyph unicode="d" horiz-adv-x="1265" d="M66 371q0 210 64 375.5t181 258.5t267 93q58 0 111.5 -14t99.5 -41.5t75 -49t66 -53.5l98 553h252l-264 -1493h-252l24 143q-80 -69 -183 -117.5t-216 -48.5q-63 0 -118.5 21t-102.5 65.5t-74.5 123.5t-27.5 184zM326 397q0 -101 41 -158t118 -57q90 0 170 46t172 128 l68 389q-54 64 -122 105t-138 41q-71 0 -130.5 -41.5t-98 -111t-59.5 -158t-21 -183.5z" />
<glyph unicode="e" horiz-adv-x="1157" d="M63 442q0 188 74.5 336t217.5 234t331 86q187 0 297.5 -83t110.5 -218q0 -98 -46.5 -167.5t-136 -109.5t-206 -58t-271.5 -18h-115v-16q0 -123 54 -191.5t162 -68.5q46 0 97 11t113.5 36.5t92.5 39.5t96 46l82 -178q-299 -146 -524 -146q-200 0 -314.5 115t-114.5 350z M340 590h106q197 0 299.5 51t102.5 143q0 59 -47.5 94t-122.5 35q-122 0 -211 -92t-127 -231z" />
<glyph unicode="f" horiz-adv-x="761" d="M-199 -258q50 15 84 26.5t64 26.5t48 25.5t34 31.5t24.5 35.5t17.5 46t14 55t13 70.5l148 828h-144l33 188h144l16 86q29 174 100 253t215 79q92 0 193 -30.5t168 -65.5l-113 -166q-126 43 -201 43q-88 0 -108 -109l-16 -90h272l-33 -188h-272l-144 -811 q-34 -188 -58 -253q-40 -107 -131 -166q-97 -61 -312 -110z" />
<glyph unicode="g" horiz-adv-x="1261" d="M-29 -356l84 204q252 -79 428 -79q236 0 273 196l30 174q-201 -162 -395 -162q-64 0 -119.5 21t-103 65.5t-75 123t-27.5 184.5q0 210 64.5 375.5t182 258.5t267.5 93q75 0 147 -27.5t112.5 -56.5t88.5 -72l24 133h252l-194 -1100q-21 -121 -63.5 -203t-109 -127.5 t-146 -64t-187.5 -18.5q-247 0 -533 82zM326 397q0 -101 41.5 -158t119.5 -57q87 0 165.5 44.5t170.5 125.5l72 398q-130 141 -260 141q-94 0 -166 -71.5t-107.5 -183t-35.5 -239.5z" />
<glyph unicode="h" horiz-adv-x="1255" d="M31 0l264 1493h252l-98 -551q233 156 423 156q168 0 236 -99q48 -69 48 -171q0 -45 -9 -95l-129 -733h-254l127 707q6 35 6 63q1 48 -15 78q-24 50 -107.5 49.5t-186 -48.5t-174.5 -104l-131 -745h-252z" />
<glyph unicode="i" horiz-adv-x="530" d="M31 0l190 1075h252l-190 -1075h-252zM244 1249l41 238h268l-39 -238h-270z" />
<glyph unicode="j" horiz-adv-x="530" d="M-260 -258q65 20 106.5 34.5t73 32.5t48 31.5t29 39t17 46t11.5 60.5l194 1089h254l-192 -1071q-27 -153 -50 -209q-41 -94 -141 -149q-97 -54 -295 -99zM244 1249l41 238h268l-39 -238h-270z" />
<glyph unicode="k" horiz-adv-x="1124" d="M31 0l264 1493h252l-156 -875l443 457h307l-447 -438l320 -637h-258l-234 467l-190 -186l-49 -281h-252z" />
<glyph unicode="l" horiz-adv-x="542" d="M37 0l264 1493h252l-264 -1493h-252z" />
<glyph unicode="m" horiz-adv-x="1886" d="M31 0l190 1075h252l-27 -143q204 166 381 166q120 0 187.5 -52t83.5 -143q78 72 189.5 133.5t221.5 61.5q169 0 234 -96q45 -67 45 -169q0 -44 -8 -94l-131 -739h-254l127 707q7 38 7 69q0 121 -116 121q-76 0 -162.5 -49.5t-158.5 -116.5l-127 -731h-252l127 707 q6 35 6 64q0 126 -117 126q-136 0 -317 -162l-129 -735h-252z" />
<glyph unicode="n" horiz-adv-x="1255" d="M31 0l190 1075h252l-24 -133q233 156 423 156q168 0 236 -99q48 -69 48 -171q0 -45 -9 -95l-129 -733h-254l127 707q6 35 6 63q1 48 -15 78q-24 50 -107.5 49.5t-186 -48.5t-174.5 -104l-131 -745h-252z" />
<glyph unicode="o" horiz-adv-x="1259" d="M66 457q0 177 66.5 321t199.5 232t311 88q247 0 385.5 -127.5t138.5 -354.5q0 -177 -66 -320.5t-199 -231t-312 -87.5q-246 0 -385 127t-139 353zM322 455q0 -131 64.5 -206t199.5 -75q101 0 177.5 65.5t113 164.5t36.5 214q0 132 -65 206.5t-199 74.5 q-101 0 -177.5 -65.5t-113 -164.5t-36.5 -214z" />
<glyph unicode="p" horiz-adv-x="1259" d="M-43 -418l264 1493h252l-22 -125q193 148 374 148q68 0 127 -21t109 -65t79 -122.5t29 -184.5q0 -211 -62.5 -376.5t-177 -258.5t-261.5 -93q-62 0 -117.5 14t-102.5 40.5t-77 48t-66 53.5l-96 -551h-252zM340 328q135 -146 270 -146q91 0 161.5 72t105 183t34.5 239 q0 103 -45.5 160t-134.5 57q-82 0 -155.5 -40.5t-161.5 -113.5z" />
<glyph unicode="q" horiz-adv-x="1265" d="M66 371q0 210 64 375.5t181 258.5t267 93q58 0 111.5 -14t99.5 -41.5t75 -49t66 -53.5l24 135h252l-264 -1493h-252l98 561q-197 -166 -399 -166q-63 0 -118.5 21t-102.5 65.5t-74.5 123.5t-27.5 184zM326 397q0 -101 41 -158t118 -57q90 0 170 46t172 128l68 389 q-54 64 -122 105t-138 41q-71 0 -130.5 -41.5t-98 -111t-59.5 -158t-21 -183.5z" />
<glyph unicode="r" horiz-adv-x="831" d="M31 0l190 1075h252l-41 -227q13 21 31.5 46t59.5 64t88 67.5t118 47.5q56 15 116 15q16 0 32 -1l-41 -239q-71 0 -135 -20t-109.5 -52t-83.5 -70.5t-62.5 -77.5t-41.5 -71t-24 -52l-7 -20l-90 -485h-252z" />
<glyph unicode="s" horiz-adv-x="1075" d="M-14 135l120 168q91 -52 202 -90.5t200 -38.5q81 0 134.5 33.5t53.5 87.5q0 19 -6 35t-22 29t-29.5 22t-42.5 20t-46.5 17t-57 17.5t-58.5 17.5q-54 17 -92.5 31.5t-84 41t-73.5 57t-47.5 77t-19.5 102.5q0 150 118.5 243t311.5 93q126 0 255 -39t220 -90l-119 -164 q-79 40 -173.5 69t-172.5 29q-79 0 -130.5 -32t-51.5 -85q0 -19 6.5 -34.5t21.5 -28t29.5 -21.5t41 -18.5t45 -15.5t52 -15.5t52.5 -15.5q59 -18 101.5 -34.5t89 -44t75.5 -59t48 -78.5t19 -104q0 -156 -124.5 -248t-325.5 -92q-148 0 -283 46.5t-237 111.5z" />
<glyph unicode="t" horiz-adv-x="817" d="M98 887l31 188h145l50 271l260 40l-58 -311h293l-33 -188h-292l-105 -584q-3 -20 -3 -36q0 -32 13 -46q20 -22 62 -22q60 0 186 49l64 -199q-197 -72 -330 -72q-139 0 -204 89q-44 60 -44 161q0 48 10 105l99 555h-144z" />
<glyph unicode="u" horiz-adv-x="1255" d="M80 342l129 733h254l-127 -706q-6 -34 -6 -62q0 -48 16 -80q26 -51 109 -51q82 0 185.5 48.5t170.5 103.5l133 747h252l-190 -1075h-252l22 127q-231 -150 -422 -150q-167 1 -235 99q-48 69 -48 172q0 44 9 94z" />
<glyph unicode="v" horiz-adv-x="1161" d="M111 1075h262l131 -817l418 817h284l-614 -1075h-250z" />
<glyph unicode="w" horiz-adv-x="1685" d="M121 1075h262l57 -807l371 807h217l78 -801l338 801h276l-520 -1075h-242l-88 764l-366 -764h-242z" />
<glyph unicode="x" horiz-adv-x="1200" d="M-92 0l526 539l-313 536h270l203 -397l338 397h313l-504 -534l338 -541h-276l-215 403l-352 -403h-328z" />
<glyph unicode="y" horiz-adv-x="1165" d="M-18 -254q68 23 101.5 35.5t78 33t70.5 41.5t55.5 52t56.5 74l-233 1093h262l137 -784l416 784h282l-606 -1075q-87 -151 -124 -201q-90 -120 -229 -183q-88 -40 -210 -69z" />
<glyph unicode="z" horiz-adv-x="1095" d="M-37 0l31 180l713 684h-570l37 211h920l-29 -182l-715 -684h590l-37 -209h-940z" />
<glyph unicode="{" horiz-adv-x="800" d="M39 627l29 172q67 -1 115 20.5t73 59t36 75.5t13 82l8 201q11 246 146 363.5t409 117.5h76l-24 -153h-39q-81 0 -139.5 -23.5t-90.5 -66t-47.5 -91.5t-19.5 -112l-9 -189q-9 -181 -87 -265.5t-236 -108.5q137 -31 190 -122t0 -263l-43 -142q-16 -52 -24 -93.5t-4 -86 t24 -74.5t66.5 -49.5t116.5 -19.5h36l-24 -152h-37q-165 0 -275 56t-151.5 167t8.5 275l55 184q38 121 0.5 179.5t-151.5 58.5z" />
<glyph unicode="|" horiz-adv-x="497" d="M0 -252l340 1927h190l-340 -1927h-190z" />
<glyph unicode="}" horiz-adv-x="800" d="M-111 -293l27 152h37q280 0 299 295l8 188q7 179 85 264t233 109q-134 31 -186 122.5t1 262.5l43 141q16 52 23.5 93.5t3.5 86.5t-24 75t-65.5 49.5t-115.5 19.5h-39l25 153h37q166 0 276 -56t150.5 -166.5t-9.5 -274.5l-55 -185q-38 -122 0 -179.5t156 -57.5l-31 -172 q-68 0 -116.5 -22t-73.5 -59t-36.5 -75t-13.5 -82l-8 -201q-9 -246 -144 -363.5t-409 -117.5h-78z" />
<glyph unicode="~" d="M31 455q85 142 175.5 213t203.5 71q68 0 137 -24t116.5 -52.5t107.5 -52.5t112 -24q49 0 95.5 29.5t106.5 113.5l154 -67q-86 -143 -176 -214t-203 -71q-68 0 -137 24t-116.5 52.5t-107.5 52.5t-112 24q-49 0 -95 -29.5t-106 -113.5z" />
<glyph unicode="&#xa1;" horiz-adv-x="567" d="M20 0l252 981h154l-98 -981h-308zM244 1147l49 287h268l-47 -287h-270z" />
<glyph unicode="&#xa2;" horiz-adv-x="1155" d="M117 606q0 130 31.5 241.5t84.5 189.5t123 133t148 81.5t158 26.5h8l28 156h189l-33 -187q25 -8 49.5 -17.5t50 -21.5t43 -20.5t43.5 -23t37 -20.5t37.5 -21.5t30.5 -18.5l-121 -170q-122 79 -207 108l-112 -647q81 26 221 92l88 -190q-213 -98 -348 -125l-31 -172h-189 l27 160q-163 18 -259.5 132.5t-96.5 313.5zM379 629q0 -97 34 -160t101 -84l117 662q-109 -37 -180.5 -154.5t-71.5 -263.5z" />
<glyph unicode="&#xa3;" horiz-adv-x="1169" d="M4 0l31 180l28 14t64.5 41.5t85 68.5t76 93.5t51.5 118.5h-221l26 160h195q-10 43 -37.5 111.5t-46 134t-18.5 133.5q0 183 121.5 292t332.5 109q82 0 158 -17t144.5 -50.5t108 -57.5t97.5 -63l-135 -158q-200 125 -334 125q-108 0 -170.5 -58.5t-62.5 -144.5 q0 -68 47 -179.5t55 -176.5h332l-29 -160h-313q-27 -99 -90.5 -176t-124.5 -121h606l-35 -219h-942z" />
<glyph unicode="&#xa5;" horiz-adv-x="1415" d="M145 311l27 156h375l18 104l-8 21h-362l24 156h273l-289 686h278l240 -652l465 652h309l-528 -686h270l-27 -156h-364l-21 -27l-16 -98h379l-29 -156h-377l-53 -311h-264l53 311h-373z" />
<glyph unicode="&#xa6;" horiz-adv-x="501" d="M2 -252l150 846h190l-149 -846h-191zM193 829l149 846h190l-149 -846h-190z" />
<glyph unicode="&#xa7;" horiz-adv-x="1161" d="M39 -18l119 163q81 -40 176 -69t174 -29q80 0 130 31.5t50 83.5q0 19 -6 34.5t-21 27.5t-29 21t-40.5 18.5t-44.5 15.5t-52.5 16t-54.5 16q-59 18 -104 36.5t-90.5 46t-75 59.5t-48 76.5t-18.5 97.5q0 102 63.5 172.5t172.5 105.5q-107 83 -107 215q0 150 118 243t311 93 q127 0 256.5 -39t220.5 -90l-119 -164q-79 41 -173.5 70t-172.5 29q-83 0 -132.5 -32t-49.5 -85q0 -18 5.5 -33.5t21 -28t27.5 -21t41 -19t44 -15.5t53.5 -16.5t54.5 -16.5q73 -23 126 -46.5t103 -60t76.5 -88.5t26.5 -118q0 -102 -62 -173.5t-173 -107.5q108 -81 108 -217 q0 -148 -118 -239.5t-310 -91.5q-128 0 -257 38.5t-220 90.5zM352 666q0 -25 13.5 -46.5t32.5 -35.5t54 -28.5t63.5 -23.5t75.5 -23q25 -7 38 -11q0 -2 2 -2q93 12 142.5 52.5t49.5 94.5q0 16 -4 29.5t-14 25t-20 21t-28 18.5t-32 15.5t-38.5 15t-41 13.5t-46 14t-46.5 14 q-97 -9 -149 -49t-52 -94z" />
<glyph unicode="&#xa8;" horiz-adv-x="505" d="M172 1237l39 227h221l-37 -227h-223zM543 1237l39 227h221l-43 -227h-217z" />
<glyph unicode="&#xa9;" horiz-adv-x="1665" d="M121 641q0 131 32.5 251.5t98 223t158 178.5t219 119t274.5 43q206 0 360.5 -84.5t235 -234.5t80.5 -344q0 -131 -32.5 -251.5t-98.5 -223.5t-158 -179t-219.5 -119t-275.5 -43q-309 0 -491.5 184t-182.5 480zM201 643q0 -171 70 -303t208 -208.5t324 -76.5 q160 0 293 58.5t220 159t135 234t48 284.5q0 127 -41 235t-117 186t-190 122t-254 44q-160 0 -293 -58.5t-220 -159t-135 -233.5t-48 -284zM471 618q-5 126 27 230.5t90 172t134.5 104t162.5 36.5q54 0 104.5 -12.5t94 -37t69 -42t59.5 -45.5l-65 -68q-27 23 -46.5 37 t-55 35t-76.5 32t-86 11q-135 0 -225 -126.5t-83 -317.5q5 -125 54.5 -195t138.5 -70q145 0 305 111l53 -76q-53 -35 -95 -58t-115 -46t-144 -23q-126 0 -210.5 91.5t-90.5 256.5z" />
<glyph unicode="&#xaa;" horiz-adv-x="890" d="M170 1020q0 188 89 308t230 120q110 0 222 -92l14 78h178l-112 -646h-181l13 76q-121 -90 -244 -90q-88 0 -148.5 59.5t-60.5 186.5zM354 1034q0 -57 24.5 -86.5t70.5 -29.5q88 0 200 92l37 215q-76 80 -151 80q-83 0 -132 -80.5t-49 -190.5z" />
<glyph unicode="&#xab;" horiz-adv-x="1398" d="M41 483l27 156l696 440l-43 -260l-459 -280l356 -275l-36 -223zM643 483l27 156l694 440l-43 -260l-457 -280l355 -275l-37 -223z" />
<glyph unicode="&#xac;" d="M37 586l33 192h1187l-104 -594h-209l70 402h-977z" />
<glyph unicode="&#xad;" horiz-adv-x="884" d="M106 479l37 207h623l-37 -207h-623z" />
<glyph unicode="&#xae;" horiz-adv-x="1005" d="M168 983q0 91 29 172t82.5 143.5t137 99t185.5 36.5q171 0 272 -102t101 -267q0 -122 -48.5 -223t-148.5 -164.5t-235 -63.5q-173 0 -274 102t-101 267zM238 985q0 -134 82.5 -218.5t226.5 -84.5q165 0 263.5 109.5t98.5 271.5q0 134 -84 218.5t-229 84.5 q-165 0 -261.5 -109t-96.5 -272zM387 823l72 412h182q57 0 91 -30.5t34 -76.5q0 -50 -35 -85t-92 -44l68 -176h-70l-64 174h-88l-30 -174h-68zM496 1061h106q46 0 71 19t25 48q0 46 -59 46h-123z" />
<glyph unicode="&#xaf;" horiz-adv-x="624" d="M231 1268l27 153h614l-26 -153h-615z" />
<glyph unicode="&#xb0;" horiz-adv-x="874" d="M160 1079q0 148 104 252.5t250 104.5q148 0 252 -104.5t104 -252.5q0 -146 -104 -250t-252 -104q-146 0 -250 104t-104 250zM311 1079q0 -83 60 -142.5t143 -59.5q84 0 143.5 59.5t59.5 142.5q0 85 -59 144t-144 59q-84 0 -143.5 -59.5t-59.5 -143.5z" />
<glyph unicode="&#xb1;" d="M16 0l29 168h1036l-26 -168h-1039zM125 608l31 195h417l54 299h200l-53 -299h418l-31 -195h-422l-53 -301h-199l54 301h-416z" />
<glyph unicode="&#xb2;" horiz-adv-x="827" d="M98 788l15 84q9 55 33.5 103t52 80.5t74 66.5t80 54t91.5 52l3 1.5l3 1.5t3.5 2t3.5 2q17 10 46.5 26.5t44 24.5t37.5 22t34 22t27 19.5t23.5 20t15.5 19.5t10.5 21.5t2.5 21.5q-2 36 -32.5 56.5t-87.5 20.5q-105 0 -250 -79l-70 129q176 104 342 104q135 0 211 -63.5 t76 -161.5q0 -40 -13.5 -76t-39.5 -66.5t-55.5 -56t-72 -51.5t-77 -44.5t-81.5 -42.5l-18 -9q-100 -52 -136 -80.5t-46 -69.5h447l-25 -154h-672z" />
<glyph unicode="&#xb3;" horiz-adv-x="815" d="M86 897l92 117q146 -86 266 -86q85 0 135 34t50 89q0 43 -34.5 70.5t-84.5 37.5t-115 10h-39l23 154h47q92 0 164 30.5t72 82.5q0 34 -29.5 53.5t-79.5 19.5q-112 0 -244 -73l-63 127q156 100 338 100q129 0 198.5 -55.5t69.5 -139.5q0 -69 -50 -124.5t-143 -90.5 q69 -21 113.5 -77t44.5 -129q0 -49 -20 -95.5t-60.5 -87.5t-111 -65.5t-162.5 -24.5q-68 0 -130.5 13t-115.5 38t-74.5 37t-56.5 35z" />
<glyph unicode="&#xb4;" horiz-adv-x="481" d="M174 1217l293 276h319l-391 -276h-221z" />
<glyph unicode="&#xb5;" horiz-adv-x="1259" d="M-31 -418l264 1493h254l-133 -749q-5 -72 23 -111t102 -39q82 0 186.5 48.5t170.5 103.5l133 747h252l-191 -1075h-252l23 127q-231 -150 -422 -150q-28 0 -84 9l-72 -404h-254z" />
<glyph unicode="&#xb6;" horiz-adv-x="1402" d="M121 881q0 133 48 239.5t132 174.5t194.5 103.5t237.5 35.5h232l-320 -1813h-217l156 864q-210 0 -336.5 100.5t-126.5 295.5zM836 -381l319 1815h217l-319 -1815h-217z" />
<glyph unicode="&#xb7;" horiz-adv-x="532" d="M100 430l52 307h268l-51 -307h-269z" />
<glyph unicode="&#xb8;" horiz-adv-x="364" d="M-72 -326l74 131q47 -24 100 -24q49 0 82 23.5t33 76.5q0 25 -8.5 56t-16.5 49l-8 18h115q6 -8 15 -23t23.5 -58t14.5 -83q0 -99 -68.5 -153t-177.5 -54q-106 0 -178 41z" />
<glyph unicode="&#xb9;" horiz-adv-x="516" d="M143 1518l265 131h174l-152 -861h-186l125 676l-164 -75z" />
<glyph unicode="&#xba;" horiz-adv-x="870" d="M166 1055q0 167 100.5 280t276.5 113q155 0 243 -75.5t88 -207.5q0 -166 -101 -278.5t-277 -112.5q-154 0 -242 74.5t-88 206.5zM344 1065q0 -154 156 -154q92 0 143 75.5t51 168.5q0 154 -153 154q-63 0 -109.5 -38.5t-67 -92.5t-20.5 -113z" />
<glyph unicode="&#xbb;" horiz-adv-x="1396" d="M12 41l43 260l457 279l-352 276l35 223l540 -440l-26 -156zM614 41l43 260l457 279l-354 276l37 223l538 -440l-24 -156z" />
<glyph unicode="&#xbc;" horiz-adv-x="1759" d="M172 1303l264 131h174l-151 -861h-187l125 676l-164 -75zM246 0l921 1434h201l-922 -1434h-200zM811 166l18 129l512 565h246l-96 -543h135l-22 -151h-140l-28 -166h-187l29 166h-467zM1038 317h267l67 379z" />
<glyph unicode="&#xbd;" horiz-adv-x="1806" d="M172 1303l264 131h174l-151 -861h-187l125 676l-164 -75zM246 0l921 1434h201l-922 -1434h-200zM924 0l14 84q9 55 33 103t51.5 80t74 66.5t80 54.5t90.5 51l3 1.5l3 1.5t3.5 2t3.5 2q16 9 47 26q57 32 83.5 47.5t58 38t43.5 42t12 41.5q0 37 -31.5 58.5t-89.5 21.5 q-103 0 -250 -80l-70 129q168 104 340 104q137 0 212 -63.5t75 -161.5q0 -48 -21.5 -91.5t-50.5 -74.5t-80.5 -66t-88.5 -55.5t-99 -51.5q-9 -5 -14 -7q-101 -53 -136.5 -80.5t-45.5 -68.5h444l-23 -154h-671z" />
<glyph unicode="&#xbe;" horiz-adv-x="1972" d="M84 682l92 117q146 -86 266 -86q85 0 135 34t50 89q0 62 -66.5 90t-167.5 28h-39l23 154h47q92 0 163.5 30.5t71.5 82.5q0 34 -29 53.5t-79 19.5q-112 0 -244 -73l-63 127q156 100 338 100q129 0 198.5 -55.5t69.5 -139.5q0 -69 -50 -124.5t-143 -90.5 q69 -21 113.5 -77.5t44.5 -129.5q0 -49 -20 -95.5t-60.5 -87t-111 -65t-162.5 -24.5q-56 0 -111.5 11t-90 22t-79 34t-55 29.5t-41.5 26.5zM465 0l921 1434h203l-923 -1434h-201zM1030 166l19 129l512 565h245l-96 -543h135l-22 -151h-140l-28 -166h-187l29 166h-467z M1260 317h264l67 379z" />
<glyph unicode="&#xbf;" horiz-adv-x="1079" d="M35 313q0 79 29.5 146t79 116.5t120 89t145.5 65t162 42.5l56 209h164l-46 -354q-104 -19 -182.5 -43.5t-139.5 -58t-92.5 -78t-31.5 -99.5q0 -72 53 -111.5t144 -39.5q84 0 167.5 30t182.5 84l90 -188q-250 -146 -487 -146q-184 0 -299 88.5t-115 247.5zM604 1147 l49 287h269l-50 -287h-268z" />
<glyph unicode="&#xc0;" horiz-adv-x="1423" d="M-78 0l791 1434h291l286 -1434h-278l-47 305h-584l-154 -305h-305zM487 516h445l-105 674zM569 1802h285l209 -276h-195z" />
<glyph unicode="&#xc1;" horiz-adv-x="1423" d="M-78 0l791 1434h291l286 -1434h-278l-47 305h-584l-154 -305h-305zM487 516h445l-105 674zM690 1526l293 276h320l-392 -276h-221z" />
<glyph unicode="&#xc2;" horiz-adv-x="1423" d="M-78 0l791 1434h291l286 -1434h-278l-47 305h-584l-154 -305h-305zM487 516h445l-105 674zM539 1526l258 276h258l162 -276h-166l-136 160l-190 -160h-186z" />
<glyph unicode="&#xc3;" horiz-adv-x="1423" d="M-78 0l791 1434h291l286 -1434h-278l-47 305h-584l-154 -305h-305zM487 516h445l-105 674zM541 1610q34 50 53 74.5t49 54t61.5 41.5t69.5 12q47 0 95.5 -24.5t89.5 -49t69 -24.5q24 0 51 19t70 77l111 -74q-33 -48 -53 -73.5t-50 -54t-61.5 -40.5t-69.5 -12 q-46 0 -94.5 24.5t-89 49t-68.5 24.5q-51 0 -123 -96z" />
<glyph unicode="&#xc4;" horiz-adv-x="1423" d="M-78 0l791 1434h291l286 -1434h-278l-47 305h-584l-154 -305h-305zM487 516h445l-105 674zM584 1546l41 228h219l-39 -228h-221zM954 1546l39 228h221l-40 -228h-220z" />
<glyph unicode="&#xc5;" horiz-adv-x="1423" d="M-78 0l791 1434h291l286 -1434h-278l-47 305h-584l-154 -305h-305zM487 516h445l-105 674zM690 1729q0 93 65 158t158 65q92 0 158 -65.5t66 -157.5q0 -93 -65.5 -158.5t-158.5 -65.5q-94 0 -158.5 65t-64.5 159zM817 1729q0 -41 27.5 -69t68.5 -28q40 0 68.5 28t28.5 69 q0 40 -28.5 68t-68.5 28q-41 0 -68.5 -28t-27.5 -68z" />
<glyph unicode="&#xc6;" horiz-adv-x="2115" d="M-152 0l1221 1434h1083l-36 -226h-705l-72 -381h582l-39 -221h-579l-72 -383h719l-37 -223h-979l53 305h-551l-250 -305h-338zM614 522h410l111 633z" />
<glyph unicode="&#xc7;" horiz-adv-x="1339" d="M113 557q0 206 55.5 377t151.5 284.5t224 175.5t273 62q69 0 138.5 -14.5t119.5 -32.5t116 -54t99.5 -57.5t98.5 -64.5l-146 -184q-124 86 -215 128t-182 42q-133 0 -239 -87t-164 -234t-58 -323q0 -181 66 -271.5t186 -90.5q167 0 457 166l114 -207q-311 -168 -544 -190 q41 -69 41 -142q0 -99 -68.5 -153t-177.5 -54q-106 0 -178 41l73 131q47 -24 99 -24q49 0 82.5 23.5t33.5 76.5q0 44 -22 99q-200 9 -317 152.5t-117 424.5z" />
<glyph unicode="&#xc8;" horiz-adv-x="1243" d="M59 0l250 1434h969l-37 -226h-704l-72 -381h579l-36 -221h-580l-70 -383h717l-37 -223h-979zM508 1802h287l211 -276h-197z" />
<glyph unicode="&#xc9;" horiz-adv-x="1243" d="M59 0l250 1434h969l-37 -226h-704l-72 -381h579l-36 -221h-580l-70 -383h717l-37 -223h-979zM623 1526l292 276h316l-387 -276h-221z" />
<glyph unicode="&#xca;" horiz-adv-x="1243" d="M59 0l250 1434h969l-37 -226h-704l-72 -381h579l-36 -221h-580l-70 -383h717l-37 -223h-979zM477 1526l262 276h254l162 -276h-164l-135 160l-188 -160h-191z" />
<glyph unicode="&#xcb;" horiz-adv-x="1243" d="M59 0l250 1434h969l-37 -226h-704l-72 -381h579l-36 -221h-580l-70 -383h717l-37 -223h-979zM526 1546l39 228h223l-40 -228h-222zM897 1546l39 228h221l-39 -228h-221z" />
<glyph unicode="&#xcc;" horiz-adv-x="598" d="M59 0l252 1434h262l-251 -1434h-263zM152 1802h286l211 -276h-196z" />
<glyph unicode="&#xcd;" horiz-adv-x="598" d="M59 0l252 1434h262l-251 -1434h-263zM264 1526l293 276h317l-389 -276h-221z" />
<glyph unicode="&#xce;" horiz-adv-x="598" d="M59 0l252 1434h262l-251 -1434h-263zM121 1526l258 276h256l162 -276h-164l-135 160l-189 -160h-188z" />
<glyph unicode="&#xcf;" horiz-adv-x="598" d="M59 0l252 1434h262l-251 -1434h-263zM168 1546l39 228h223l-41 -228h-221zM539 1546l39 228h221l-41 -228h-219z" />
<glyph unicode="&#xd0;" horiz-adv-x="1488" d="M43 612l33 209h151l107 613h424q328 0 493.5 -148t165.5 -412q0 -118 -26 -235t-87.5 -234t-152 -205.5t-231.5 -144t-314 -55.5h-522l106 612h-147zM385 223h184q139 0 250.5 51.5t183 140.5t109 205.5t37.5 249.5q0 180 -108 259t-320 79h-160l-69 -387h309l-33 -209 h-313z" />
<glyph unicode="&#xd1;" horiz-adv-x="1507" d="M59 0l252 1434h269l452 -1061l187 1061h264l-252 -1434h-268l-455 1063l-186 -1063h-263zM590 1610q34 50 53 74.5t49 54t61.5 41.5t69.5 12q47 0 95.5 -24.5t89.5 -49t69 -24.5q24 0 51 19t70 77l111 -74q-33 -48 -53 -73.5t-50 -54t-61.5 -40.5t-69.5 -12 q-47 0 -95 24.5t-88.5 49t-68.5 24.5q-51 0 -123 -96z" />
<glyph unicode="&#xd2;" horiz-adv-x="1556" d="M109 596q0 71 11 147t37 161t64 163t97.5 149.5t132.5 124t173.5 84t215.5 31.5q319 0 480 -165t163 -455q0 -83 -16 -173.5t-49.5 -189.5t-92 -186.5t-136.5 -158t-191.5 -112t-247.5 -41.5q-161 0 -283.5 44.5t-200 126.5t-117 195t-40.5 255zM381 602q0 -401 360 -401 q82 0 152.5 30t120.5 80.5t88.5 114t61.5 135t34.5 139t11.5 129.5q0 402 -360 402q-97 0 -178.5 -43t-134 -110t-89 -152t-52 -167t-15.5 -157zM633 1802h285l208 -276h-194z" />
<glyph unicode="&#xd3;" horiz-adv-x="1556" d="M109 596q0 71 11 147t37 161t64 163t97.5 149.5t132.5 124t173.5 84t215.5 31.5q319 0 480 -165t163 -455q0 -83 -16 -173.5t-49.5 -189.5t-92 -186.5t-136.5 -158t-191.5 -112t-247.5 -41.5q-161 0 -283.5 44.5t-200 126.5t-117 195t-40.5 255zM381 602q0 -401 360 -401 q82 0 152.5 30t120.5 80.5t88.5 114t61.5 135t34.5 139t11.5 129.5q0 402 -360 402q-97 0 -178.5 -43t-134 -110t-89 -152t-52 -167t-15.5 -157zM743 1526l293 276h320l-391 -276h-222z" />
<glyph unicode="&#xd4;" horiz-adv-x="1556" d="M109 596q0 71 11 147t37 161t64 163t97.5 149.5t132.5 124t173.5 84t215.5 31.5q319 0 480 -165t163 -455q0 -83 -16 -173.5t-49.5 -189.5t-92 -186.5t-136.5 -158t-191.5 -112t-247.5 -41.5q-161 0 -283.5 44.5t-200 126.5t-117 195t-40.5 255zM381 602q0 -401 360 -401 q82 0 152.5 30t120.5 80.5t88.5 114t61.5 135t34.5 139t11.5 129.5q0 402 -360 402q-97 0 -178.5 -43t-134 -110t-89 -152t-52 -167t-15.5 -157zM602 1526l258 276h258l162 -276h-166l-133 160l-188 -160h-191z" />
<glyph unicode="&#xd5;" horiz-adv-x="1556" d="M109 596q0 71 11 147t37 161t64 163t97.5 149.5t132.5 124t173.5 84t215.5 31.5q319 0 480 -165t163 -455q0 -83 -16 -173.5t-49.5 -189.5t-92 -186.5t-136.5 -158t-191.5 -112t-247.5 -41.5q-161 0 -283.5 44.5t-200 126.5t-117 195t-40.5 255zM381 602q0 -401 360 -401 q82 0 152.5 30t120.5 80.5t88.5 114t61.5 135t34.5 139t11.5 129.5q0 402 -360 402q-97 0 -178.5 -43t-134 -110t-89 -152t-52 -167t-15.5 -157zM602 1610q34 49 53.5 74t49.5 54.5t61.5 41.5t69.5 12q46 0 95 -24.5t90 -49t69 -24.5q24 0 50.5 19t69.5 77l111 -74 q-33 -48 -53 -73.5t-50 -54t-61.5 -40.5t-69.5 -12q-47 0 -94.5 24.5t-88 49t-68.5 24.5q-51 0 -123 -96z" />
<glyph unicode="&#xd6;" horiz-adv-x="1556" d="M109 596q0 71 11 147t37 161t64 163t97.5 149.5t132.5 124t173.5 84t215.5 31.5q319 0 480 -165t163 -455q0 -83 -16 -173.5t-49.5 -189.5t-92 -186.5t-136.5 -158t-191.5 -112t-247.5 -41.5q-161 0 -283.5 44.5t-200 126.5t-117 195t-40.5 255zM381 602q0 -401 360 -401 q82 0 152.5 30t120.5 80.5t88.5 114t61.5 135t34.5 139t11.5 129.5q0 402 -360 402q-97 0 -178.5 -43t-134 -110t-89 -152t-52 -167t-15.5 -157zM647 1546l41 228h219l-39 -228h-221zM1016 1546l39 228h223l-41 -228h-221z" />
<glyph unicode="&#xd7;" d="M170 426l340 270l-240 265l154 129l244 -269l348 277l127 -150l-342 -272l239 -262l-153 -131l-244 268l-346 -275z" />
<glyph unicode="&#xd8;" horiz-adv-x="1554" d="M27 0l190 203q-108 152 -108 393q0 71 10.5 147t36 161t64 163t98 149.5t132.5 124t173.5 84t216.5 31.5q269 0 430 -123l94 101h197l-191 -205q111 -153 111 -393q0 -71 -10.5 -147.5t-36.5 -161t-64.5 -163t-98 -150t-132.5 -124t-173.5 -84t-215.5 -31.5 q-275 0 -435 123l-92 -98h-196zM379 602q0 -108 29 -194l692 741q-92 82 -252 82q-97 0 -178.5 -43t-134 -110t-89 -152t-52 -167t-15.5 -157zM487 283q88 -82 254 -82q97 0 178 42.5t133.5 109.5t89 152t52.5 167t16 157q0 120 -30 197z" />
<glyph unicode="&#xd9;" horiz-adv-x="1452" d="M132.5 447q3.5 66 17.5 143l147 844h266l-160 -893q-16 -71 -12 -132.5t26 -107t79.5 -72t148.5 -26.5t159.5 25.5t111 74t67.5 105.5t39 133l158 893h264l-160 -906q-17 -96 -45 -174t-78.5 -150t-119 -120.5t-170.5 -77.5t-230 -29q-100 0 -180 16t-136.5 44.5t-96 72 t-61 94t-30 114t-5 129.5zM582 1802h286l209 -276h-194z" />
<glyph unicode="&#xda;" horiz-adv-x="1452" d="M132.5 447q3.5 66 17.5 143l147 844h266l-160 -893q-16 -71 -12 -132.5t26 -107t79.5 -72t148.5 -26.5t159.5 25.5t111 74t67.5 105.5t39 133l158 893h264l-160 -906q-17 -96 -45 -174t-78.5 -150t-119 -120.5t-170.5 -77.5t-230 -29q-100 0 -180 16t-136.5 44.5t-96 72 t-61 94t-30 114t-5 129.5zM690 1526l295 276h318l-390 -276h-223z" />
<glyph unicode="&#xdb;" horiz-adv-x="1452" d="M132.5 447q3.5 66 17.5 143l147 844h266l-160 -893q-16 -71 -12 -132.5t26 -107t79.5 -72t148.5 -26.5t159.5 25.5t111 74t67.5 105.5t39 133l158 893h264l-160 -906q-17 -96 -45 -174t-78.5 -150t-119 -120.5t-170.5 -77.5t-230 -29q-100 0 -180 16t-136.5 44.5t-96 72 t-61 94t-30 114t-5 129.5zM551 1526l258 276h256l162 -276h-164l-135 160l-189 -160h-188z" />
<glyph unicode="&#xdc;" horiz-adv-x="1452" d="M132.5 447q3.5 66 17.5 143l147 844h266l-160 -893q-16 -71 -12 -132.5t26 -107t79.5 -72t148.5 -26.5t159.5 25.5t111 74t67.5 105.5t39 133l158 893h264l-160 -906q-17 -96 -45 -174t-78.5 -150t-119 -120.5t-170.5 -77.5t-230 -29q-100 0 -180 16t-136.5 44.5t-96 72 t-61 94t-30 114t-5 129.5zM598 1546l39 228h221l-39 -228h-221zM969 1546l39 228h219l-41 -228h-217z" />
<glyph unicode="&#xdd;" horiz-adv-x="1325" d="M156 1434h278l240 -654l465 654h309l-666 -867l-100 -567h-262l100 567zM623 1526l292 276h320l-391 -276h-221z" />
<glyph unicode="&#xde;" horiz-adv-x="1368" d="M59 0l252 1434h262l-41 -240h254q257 0 395 -99t138 -302q0 -102 -38 -192.5t-109.5 -161.5t-185.5 -112.5t-255 -41.5h-358l-51 -285h-263zM410 504h284q161 0 257 73t96 209q0 189 -263 189h-288z" />
<glyph unicode="&#xdf;" horiz-adv-x="1417" d="M31 0l176 999q43 236 195 346.5t438 110.5q288 0 422 -122.5t94 -344.5l-4 -24l-138 -148q-153 86 -270 86q-69 0 -114.5 -33t-45.5 -86q0 -18 5 -33.5t18 -28t23.5 -21t35.5 -19t38.5 -15.5t47 -16t47.5 -16q67 -24 115 -49t91 -62t65 -89t22 -118q0 -156 -116 -248 t-297 -92q-133 0 -258 47.5t-213 112.5l112 166q71 -49 174.5 -90t171.5 -41q65 0 116.5 33.5t51.5 87.5q0 24 -12.5 44.5t-28 34t-47 28.5t-52.5 23t-62 22q-5 2 -8 3t-7 2.5t-8 2.5q-61 22 -103.5 43.5t-87 57t-67.5 87.5t-23 119q0 148 107 243t287 95q88 0 188 -27 q-3 95 -69.5 140.5t-206.5 45.5q-76 0 -134.5 -13t-110 -44t-85.5 -89t-49 -142l-172 -969h-252z" />
<glyph unicode="&#xe0;" horiz-adv-x="1265" d="M66 371q0 210 64 375.5t181 258.5t267 93q58 0 111.5 -14t99.5 -41.5t75 -49t66 -53.5l24 135h252l-190 -1075h-252l24 143q-197 -166 -399 -166q-63 0 -118.5 21t-102.5 65.5t-74.5 123.5t-27.5 184zM326 397q0 -101 41 -158t118 -57q90 0 170 46t172 128l68 389 q-54 64 -122 105t-138 41q-71 0 -130.5 -41.5t-98 -111t-59.5 -158t-21 -183.5zM438 1493h287l209 -276h-195z" />
<glyph unicode="&#xe1;" horiz-adv-x="1265" d="M66 371q0 210 64 375.5t181 258.5t267 93q58 0 111.5 -14t99.5 -41.5t75 -49t66 -53.5l24 135h252l-190 -1075h-252l24 143q-197 -166 -399 -166q-63 0 -118.5 21t-102.5 65.5t-74.5 123.5t-27.5 184zM326 397q0 -101 41 -158t118 -57q90 0 170 46t172 128l68 389 q-54 64 -122 105t-138 41q-71 0 -130.5 -41.5t-98 -111t-59.5 -158t-21 -183.5zM524 1217l293 276h318l-387 -276h-224z" />
<glyph unicode="&#xe2;" horiz-adv-x="1265" d="M66 371q0 210 64 375.5t181 258.5t267 93q58 0 111.5 -14t99.5 -41.5t75 -49t66 -53.5l24 135h252l-190 -1075h-252l24 143q-197 -166 -399 -166q-63 0 -118.5 21t-102.5 65.5t-74.5 123.5t-27.5 184zM326 397q0 -101 41 -158t118 -57q90 0 170 46t172 128l68 389 q-54 64 -122 105t-138 41q-71 0 -130.5 -41.5t-98 -111t-59.5 -158t-21 -183.5zM408 1217l258 276h256l161 -276h-165l-134 159l-188 -159h-188z" />
<glyph unicode="&#xe3;" horiz-adv-x="1265" d="M66 371q0 210 64 375.5t181 258.5t267 93q58 0 111.5 -14t99.5 -41.5t75 -49t66 -53.5l24 135h252l-190 -1075h-252l24 143q-197 -166 -399 -166q-63 0 -118.5 21t-102.5 65.5t-74.5 123.5t-27.5 184zM326 397q0 -101 41 -158t118 -57q90 0 170 46t172 128l68 389 q-54 64 -122 105t-138 41q-71 0 -130.5 -41.5t-98 -111t-59.5 -158t-21 -183.5zM414 1300q28 40 42.5 60t39.5 48.5t44.5 41.5t47.5 23t59 10q37 0 75.5 -15.5t65 -34t57.5 -34t54 -15.5q51 0 121 97l110 -74q-34 -49 -53.5 -74t-49 -53.5t-61 -40.5t-69.5 -12 q-47 0 -95 24.5t-88.5 49t-68.5 24.5q-24 0 -51.5 -19.5t-69.5 -76.5z" />
<glyph unicode="&#xe4;" horiz-adv-x="1265" d="M66 371q0 210 64 375.5t181 258.5t267 93q58 0 111.5 -14t99.5 -41.5t75 -49t66 -53.5l24 135h252l-190 -1075h-252l24 143q-197 -166 -399 -166q-63 0 -118.5 21t-102.5 65.5t-74.5 123.5t-27.5 184zM326 397q0 -101 41 -158t118 -57q90 0 170 46t172 128l68 389 q-54 64 -122 105t-138 41q-71 0 -130.5 -41.5t-98 -111t-59.5 -158t-21 -183.5zM463 1237l39 227h221l-37 -227h-223zM834 1237l38 227h218l-37 -227h-219z" />
<glyph unicode="&#xe5;" horiz-adv-x="1265" d="M66 371q0 210 64 375.5t181 258.5t267 93q58 0 111.5 -14t99.5 -41.5t75 -49t66 -53.5l24 135h252l-190 -1075h-252l24 143q-197 -166 -399 -166q-63 0 -118.5 21t-102.5 65.5t-74.5 123.5t-27.5 184zM326 397q0 -101 41 -158t118 -57q90 0 170 46t172 128l68 389 q-54 64 -122 105t-138 41q-71 0 -130.5 -41.5t-98 -111t-59.5 -158t-21 -183.5zM561 1419q0 92 65.5 157.5t157.5 65.5q94 0 160 -65.5t66 -157.5q0 -93 -66 -158t-160 -65q-93 0 -158 65t-65 158zM688 1419q0 -41 28 -68.5t68 -27.5q42 0 70.5 27.5t28.5 68.5 q0 40 -29 68.5t-70 28.5q-40 0 -68 -28.5t-28 -68.5z" />
<glyph unicode="&#xe6;" horiz-adv-x="1925" d="M66 371q0 210 64 375.5t181 258.5t267 93q58 0 111.5 -14t99.5 -41.5t75 -49t66 -53.5l24 135h252l-4 -22q115 45 248 45q187 0 297.5 -83t110.5 -218q0 -98 -46.5 -167.5t-136 -109.5t-206 -58t-271.5 -18h-113v-16q0 -124 53 -192t160 -68q60 0 141 24.5t130.5 47 t128.5 61.5l84 -178q-306 -146 -527 -146q-135 0 -233 52l-4 -29h-254l24 143q-197 -166 -399 -166q-63 0 -118.5 21t-102.5 65.5t-74.5 123.5t-27.5 184zM326 397q0 -101 41 -158t118 -57q90 0 170 46t172 128l2 17q-2 23 -2 69q0 170 64 310q-124 139 -256 139 q-71 0 -130.5 -41.5t-98 -111t-59.5 -158t-21 -183.5zM1106 590h106q197 0 299.5 51t102.5 143q0 59 -47.5 94t-122.5 35q-122 0 -211 -92t-127 -231z" />
<glyph unicode="&#xe7;" horiz-adv-x="1067" d="M63 426q0 130 31.5 241.5t84.5 189.5t123 133t148 81.5t158 26.5q43 0 84 -5t82.5 -17.5t68.5 -20.5t69 -29.5t55.5 -27.5t56 -31t43.5 -25l-121 -174q-5 3 -40 23.5t-56.5 31.5t-57 27t-69 23.5t-64.5 7.5q-91 0 -168 -60t-121 -159.5t-44 -212.5q0 -120 51.5 -187 t150.5 -67q30 0 64 7t76.5 23t63.5 24.5t68 31t48 22.5l88 -194q-73 -33 -119 -52.5t-136.5 -45.5t-164.5 -31q39 -71 39 -140q0 -99 -68.5 -153t-175.5 -54q-108 0 -180 41l74 131q47 -24 102 -24q47 0 80 24t33 76q0 45 -25 103q-152 24 -242 137.5t-90 304.5z" />
<glyph unicode="&#xe8;" horiz-adv-x="1157" d="M63 442q0 188 74.5 336t217.5 234t331 86q187 0 297.5 -83t110.5 -218q0 -98 -46.5 -167.5t-136 -109.5t-206 -58t-271.5 -18h-115v-16q0 -123 54 -191.5t162 -68.5q46 0 97 11t113.5 36.5t92.5 39.5t96 46l82 -178q-299 -146 -524 -146q-200 0 -314.5 115t-114.5 350z M340 590h106q197 0 299.5 51t102.5 143q0 59 -47.5 94t-122.5 35q-122 0 -211 -92t-127 -231zM414 1493h286l209 -276h-194z" />
<glyph unicode="&#xe9;" horiz-adv-x="1157" d="M63 442q0 188 74.5 336t217.5 234t331 86q187 0 297.5 -83t110.5 -218q0 -98 -46.5 -167.5t-136 -109.5t-206 -58t-271.5 -18h-115v-16q0 -123 54 -191.5t162 -68.5q46 0 97 11t113.5 36.5t92.5 39.5t96 46l82 -178q-299 -146 -524 -146q-200 0 -314.5 115t-114.5 350z M340 590h106q197 0 299.5 51t102.5 143q0 59 -47.5 94t-122.5 35q-122 0 -211 -92t-127 -231zM526 1217l295 276h316l-387 -276h-224z" />
<glyph unicode="&#xea;" horiz-adv-x="1157" d="M63 442q0 188 74.5 336t217.5 234t331 86q187 0 297.5 -83t110.5 -218q0 -98 -46.5 -167.5t-136 -109.5t-206 -58t-271.5 -18h-115v-16q0 -123 54 -191.5t162 -68.5q46 0 97 11t113.5 36.5t92.5 39.5t96 46l82 -178q-299 -146 -524 -146q-200 0 -314.5 115t-114.5 350z M340 590h106q197 0 299.5 51t102.5 143q0 59 -47.5 94t-122.5 35q-122 0 -211 -92t-127 -231zM383 1217l258 276h258l162 -276h-166l-133 159l-189 -159h-190z" />
<glyph unicode="&#xeb;" horiz-adv-x="1157" d="M63 442q0 188 74.5 336t217.5 234t331 86q187 0 297.5 -83t110.5 -218q0 -98 -46.5 -167.5t-136 -109.5t-206 -58t-271.5 -18h-115v-16q0 -123 54 -191.5t162 -68.5q46 0 97 11t113.5 36.5t92.5 39.5t96 46l82 -178q-299 -146 -524 -146q-200 0 -314.5 115t-114.5 350z M340 590h106q197 0 299.5 51t102.5 143q0 59 -47.5 94t-122.5 35q-122 0 -211 -92t-127 -231zM430 1237l41 227h221l-39 -227h-223zM801 1237l41 227h219l-41 -227h-219z" />
<glyph unicode="&#xec;" horiz-adv-x="530" d="M31 0l190 1075h252l-190 -1075h-252zM63 1493h287l211 -276h-194z" />
<glyph unicode="&#xed;" horiz-adv-x="530" d="M31 0l190 1075h252l-190 -1075h-252zM176 1217l293 276h317l-389 -276h-221z" />
<glyph unicode="&#xee;" horiz-adv-x="530" d="M31 0l190 1075h252l-190 -1075h-252zM33 1217l260 276h256l162 -276h-166l-133 159l-189 -159h-190z" />
<glyph unicode="&#xef;" horiz-adv-x="530" d="M31 0l190 1075h252l-190 -1075h-252zM80 1237l41 227h221l-41 -227h-221zM451 1237l41 227h219l-41 -227h-219z" />
<glyph unicode="&#xf0;" horiz-adv-x="1286" d="M59 428q0 154 72 279.5t196 196.5t273 71q76 0 141.5 -20t105 -48.5t68 -56.5t39.5 -48l11 -20q-8 136 -67.5 244.5t-170.5 161.5l-104 -92h-230l156 135h-29q-41 0 -85.5 -4.5t-68.5 -8.5l-24 -4v199q82 21 195 21q107 0 213 -29l102 88h227l-180 -156 q146 -92 222.5 -257t76.5 -384q0 -327 -172 -523t-467 -196q-232 0 -366 119.5t-134 331.5zM324 420q0 -111 58.5 -178.5t188.5 -67.5q89 0 159 33t110 86.5t60 114.5t20 124q0 111 -63 177.5t-189 66.5q-109 0 -189 -52t-117.5 -131t-37.5 -173z" />
<glyph unicode="&#xf1;" horiz-adv-x="1255" d="M31 0l190 1075h252l-24 -133q233 156 423 156q168 0 236.5 -99t38.5 -266l-129 -733h-254l127 707q15 91 -9.5 140.5t-107.5 49.5t-185.5 -48t-174.5 -104l-131 -745h-252zM403 1300q27 40 42.5 60t40 48t44.5 41.5t48 23.5t59 10q37 0 76 -15.5t66 -34t58 -34t54 -15.5 q24 0 51 19.5t70 77.5l110 -74q-34 -49 -53.5 -74t-49 -53.5t-61 -40.5t-69.5 -12q-47 0 -95 24.5t-88.5 49t-68.5 24.5q-51 0 -123 -96z" />
<glyph unicode="&#xf2;" horiz-adv-x="1259" d="M66 457q0 177 66.5 321t199.5 232t311 88q247 0 385.5 -127.5t138.5 -354.5q0 -177 -66 -320.5t-199 -231t-312 -87.5q-246 0 -385 127t-139 353zM322 455q0 -131 64.5 -206t199.5 -75q101 0 177.5 65.5t113 164.5t36.5 214q0 132 -65 206.5t-199 74.5 q-101 0 -177.5 -65.5t-113 -164.5t-36.5 -214zM430 1493h287l209 -276h-195z" />
<glyph unicode="&#xf3;" horiz-adv-x="1259" d="M66 457q0 177 66.5 321t199.5 232t311 88q247 0 385.5 -127.5t138.5 -354.5q0 -177 -66 -320.5t-199 -231t-312 -87.5q-246 0 -385 127t-139 353zM322 455q0 -131 64.5 -206t199.5 -75q101 0 177.5 65.5t113 164.5t36.5 214q0 132 -65 206.5t-199 74.5 q-101 0 -177.5 -65.5t-113 -164.5t-36.5 -214zM543 1217l293 276h317l-389 -276h-221z" />
<glyph unicode="&#xf4;" horiz-adv-x="1259" d="M66 457q0 177 66.5 321t199.5 232t311 88q247 0 385.5 -127.5t138.5 -354.5q0 -177 -66 -320.5t-199 -231t-312 -87.5q-246 0 -385 127t-139 353zM322 455q0 -131 64.5 -206t199.5 -75q101 0 177.5 65.5t113 164.5t36.5 214q0 132 -65 206.5t-199 74.5 q-101 0 -177.5 -65.5t-113 -164.5t-36.5 -214zM399 1217l258 276h256l162 -276h-164l-135 159l-188 -159h-189z" />
<glyph unicode="&#xf5;" horiz-adv-x="1259" d="M66 457q0 177 66.5 321t199.5 232t311 88q247 0 385.5 -127.5t138.5 -354.5q0 -177 -66 -320.5t-199 -231t-312 -87.5q-246 0 -385 127t-139 353zM322 455q0 -131 64.5 -206t199.5 -75q101 0 177.5 65.5t113 164.5t36.5 214q0 132 -65 206.5t-199 74.5 q-101 0 -177.5 -65.5t-113 -164.5t-36.5 -214zM395 1270q61 100 85 129q66 75 151 76q51 0 140 -42t128 -42q31 0 57 16.5t56 65.5l112 -43q-60 -100 -83 -128q-63 -75 -148 -75q-52 0 -140.5 41t-127.5 41q-32 0 -58 -16t-57 -64z" />
<glyph unicode="&#xf6;" horiz-adv-x="1259" d="M66 457q0 177 66.5 321t199.5 232t311 88q247 0 385.5 -127.5t138.5 -354.5q0 -177 -66 -320.5t-199 -231t-312 -87.5q-246 0 -385 127t-139 353zM322 455q0 -131 64.5 -206t199.5 -75q101 0 177.5 65.5t113 164.5t36.5 214q0 132 -65 206.5t-199 74.5 q-101 0 -177.5 -65.5t-113 -164.5t-36.5 -214zM449 1237l38 227h222l-39 -227h-221zM817 1237l41 227h219l-41 -227h-219z" />
<glyph unicode="&#xf7;" d="M123 586l33 192h1036l-31 -192h-1038zM453 299q-6 62 41 108t112 46q52 0 87 -32.5t40 -82.5q6 -61 -39.5 -106.5t-111.5 -45.5q-51 0 -87.5 32.5t-41.5 80.5zM580 1028q-6 61 41 106.5t112 45.5q51 0 87.5 -32.5t41.5 -80.5q6 -62 -40.5 -108t-110.5 -46q-52 0 -89 33.5 t-42 81.5z" />
<glyph unicode="&#xf8;" horiz-adv-x="1261" d="M8 0l150 154q-90 119 -90 303q0 177 66 321t199 232t312 88q205 0 342 -92l68 69h166l-148 -151q96 -122 96 -308q0 -177 -66.5 -320.5t-199.5 -231t-311 -87.5q-212 0 -346 93l-68 -70h-170zM322 455q0 -61 16 -117l491 506q-68 55 -180 55q-101 0 -177.5 -65.5 t-113 -164.5t-36.5 -214zM403 231q63 -57 183 -57q101 0 177.5 65.5t113 164.5t36.5 214q0 68 -18 121z" />
<glyph unicode="&#xf9;" horiz-adv-x="1255" d="M82 342l129 733h252l-125 -706q-9 -56 -5 -98.5t34.5 -68.5t87.5 -26q83 0 184.5 48t171.5 104l133 747h254l-190 -1075h-254l22 127q-231 -150 -420 -150q-168 0 -236 99t-38 266zM420 1493h287l208 -276h-194z" />
<glyph unicode="&#xfa;" horiz-adv-x="1255" d="M82 342l129 733h252l-125 -706q-9 -56 -5 -98.5t34.5 -68.5t87.5 -26q83 0 184.5 48t171.5 104l133 747h254l-190 -1075h-254l22 127q-231 -150 -420 -150q-168 0 -236 99t-38 266zM532 1217l293 276h318l-387 -276h-224z" />
<glyph unicode="&#xfb;" horiz-adv-x="1255" d="M82 342l129 733h252l-125 -706q-9 -56 -5 -98.5t34.5 -68.5t87.5 -26q83 0 184.5 48t171.5 104l133 747h254l-190 -1075h-254l22 127q-231 -150 -420 -150q-168 0 -236 99t-38 266zM389 1217l260 276h256l162 -276h-164l-135 159l-188 -159h-191z" />
<glyph unicode="&#xfc;" horiz-adv-x="1255" d="M82 342l129 733h252l-125 -706q-9 -56 -5 -98.5t34.5 -68.5t87.5 -26q83 0 184.5 48t171.5 104l133 747h254l-190 -1075h-254l22 127q-231 -150 -420 -150q-168 0 -236 99t-38 266zM438 1237l39 227h223l-38 -227h-224zM809 1237l39 227h221l-39 -227h-221z" />
<glyph unicode="&#xfd;" horiz-adv-x="1165" d="M-18 -254q82 28 124 44.5t89.5 44t80.5 62.5t68 89l-233 1089h262l137 -782l416 782h282l-606 -1075q-87 -152 -129 -206q-92 -120 -238 -184q-83 -36 -196 -63zM489 1217l293 276h318l-389 -276h-222z" />
<glyph unicode="&#xfe;" horiz-adv-x="1259" d="M-43 -418l338 1911h252l-96 -543q193 148 374 148q68 0 127 -21t109 -65t79 -122.5t29 -184.5q0 -211 -62.5 -376.5t-177 -258.5t-261.5 -93q-62 0 -117.5 14t-102.5 40.5t-77 48t-66 53.5l-96 -551h-252zM340 328q135 -146 270 -146q91 0 161.5 72t105 183t34.5 239 q0 103 -45.5 160t-134.5 57q-82 0 -155.5 -40.5t-161.5 -113.5z" />
<glyph unicode="&#xff;" horiz-adv-x="1165" d="M-18 -254q82 28 124 44.5t89.5 44t80.5 62.5t68 89l-233 1089h262l137 -782l416 782h282l-606 -1075q-87 -152 -129 -206q-92 -120 -238 -184q-83 -36 -196 -63zM391 1237l41 227h223l-41 -227h-223zM762 1237l41 227h221l-41 -227h-221z" />
<glyph unicode="&#x152;" horiz-adv-x="2273" d="M109 596q0 71 11 147t37 161t64 163t97.5 149.5t132.5 124t173.5 84t215.5 31.5q310 0 477 -164l24 142h967l-35 -226h-704l-72 -381h580l-35 -221h-582l-69 -383h714l-37 -223h-976l12 68q-157 -93 -354 -93q-161 0 -283.5 44.5t-200 126.5t-117 195t-40.5 255zM381 602 q0 -401 360 -401q82 0 152.5 30t120.5 80.5t88.5 114t61.5 135t34.5 139t11.5 129.5q0 402 -360 402q-97 0 -178.5 -43t-134 -110t-89 -152t-52 -167t-15.5 -157z" />
<glyph unicode="&#x153;" horiz-adv-x="1996" d="M66 457q0 177 66.5 321t199.5 232t311 88q296 0 434 -180q81 86 196.5 133t254.5 47q188 0 297.5 -83t109.5 -218q0 -98 -46 -167.5t-135.5 -109.5t-205.5 -58t-270 -18h-117v-16q0 -123 53.5 -191.5t161.5 -68.5q59 0 140 24.5t130 47t128 61.5l84 -178 q-306 -146 -525 -146q-235 0 -348 154q-154 -154 -395 -154q-246 0 -385 127t-139 353zM322 455q0 -131 64.5 -206t199.5 -75q101 0 177.5 65.5t113 164.5t36.5 214q0 132 -65 206.5t-199 74.5q-101 0 -177.5 -65.5t-113 -164.5t-36.5 -214zM1182 590h108q195 0 297.5 51 t102.5 143q0 59 -47 94t-123 35q-122 0 -211 -92t-127 -231z" />
<glyph unicode="&#x178;" horiz-adv-x="1325" d="M156 1434h278l240 -654l465 654h309l-666 -867l-100 -567h-262l100 567zM528 1546l39 228h221l-40 -228h-220zM895 1546l41 228h221l-39 -228h-223z" />
<glyph unicode="&#x2c6;" horiz-adv-x="591" d="M170 1217l258 276h258l162 -276h-166l-133 159l-189 -159h-190z" />
<glyph unicode="&#x2dc;" horiz-adv-x="614" d="M182 1300q27 40 42.5 60t40 48t44.5 41.5t48 23.5t59 10q37 0 76 -15.5t66 -34t58 -34t54 -15.5q24 0 51 19.5t70 77.5l110 -74q-34 -49 -53.5 -74t-49 -53.5t-61 -40.5t-69.5 -12q-46 0 -94.5 24.5t-89 49t-68.5 24.5q-51 0 -123 -96z" />
<glyph unicode="&#x2000;" horiz-adv-x="976" />
<glyph unicode="&#x2001;" horiz-adv-x="1952" />
<glyph unicode="&#x2002;" horiz-adv-x="976" />
<glyph unicode="&#x2003;" horiz-adv-x="1952" />
<glyph unicode="&#x2004;" horiz-adv-x="650" />
<glyph unicode="&#x2005;" horiz-adv-x="488" />
<glyph unicode="&#x2006;" horiz-adv-x="325" />
<glyph unicode="&#x2007;" horiz-adv-x="325" />
<glyph unicode="&#x2008;" horiz-adv-x="244" />
<glyph unicode="&#x2009;" horiz-adv-x="390" />
<glyph unicode="&#x200a;" horiz-adv-x="108" />
<glyph unicode="&#x2010;" horiz-adv-x="884" d="M106 479l37 207h623l-37 -207h-623z" />
<glyph unicode="&#x2011;" horiz-adv-x="884" d="M106 479l37 207h623l-37 -207h-623z" />
<glyph unicode="&#x2012;" horiz-adv-x="884" d="M106 479l37 207h623l-37 -207h-623z" />
<glyph unicode="&#x2013;" horiz-adv-x="1148" d="M106 479l37 207h887l-37 -207h-887z" />
<glyph unicode="&#x2014;" horiz-adv-x="1363" d="M106 479l37 207h1100l-35 -207h-1102z" />
<glyph unicode="&#x2018;" horiz-adv-x="516" d="M168 856l35 338l272 281l60 -89l-170 -223h120l-49 -307h-268z" />
<glyph unicode="&#x2019;" horiz-adv-x="493" d="M160 903l168 223h-121l51 308h268l-34 -338l-273 -281z" />
<glyph unicode="&#x201a;" horiz-adv-x="528" d="M-25 -223l168 223h-120l51 307h266l-35 -338l-270 -280z" />
<glyph unicode="&#x201c;" horiz-adv-x="944" d="M168 856l35 338l272 281l60 -89l-170 -223h120l-49 -307h-268zM598 856l35 338l270 281l60 -89l-166 -223h121l-54 -307h-266z" />
<glyph unicode="&#x201d;" horiz-adv-x="923" d="M160 903l168 223h-121l51 308h268l-34 -338l-273 -281zM590 903l168 223h-121l53 308h264l-32 -338l-273 -281z" />
<glyph unicode="&#x201e;" horiz-adv-x="956" d="M-25 -223l168 223h-120l51 307h266l-35 -338l-270 -280zM403 -223l170 223h-120l51 307h266l-35 -338l-272 -280z" />
<glyph unicode="&#x2022;" horiz-adv-x="925" d="M152 582q0 127 88.5 216t214.5 89q127 0 216 -88.5t89 -216.5q0 -126 -89 -214.5t-216 -88.5q-126 0 -214.5 88.5t-88.5 214.5z" />
<glyph unicode="&#x2026;" horiz-adv-x="1462" d="M23 0l51 307h268l-51 -307h-268zM492 0l53 307h268l-51 -307h-270zM961 0l53 307h268l-53 -307h-268z" />
<glyph unicode="&#x202f;" horiz-adv-x="390" />
<glyph unicode="&#x2039;" horiz-adv-x="798" d="M41 483l27 156l696 440l-43 -260l-459 -280l356 -275l-36 -223z" />
<glyph unicode="&#x203a;" horiz-adv-x="796" d="M12 41l43 260l457 279l-352 276l35 223l540 -440l-26 -156z" />
<glyph unicode="&#x205f;" horiz-adv-x="488" />
<glyph unicode="&#x20ac;" horiz-adv-x="1472" d="M68 483l24 144h117q3 89 18 168h-104l24 143h115q81 245 254.5 381.5t392.5 136.5q70 0 139.5 -14.5t121.5 -33t115 -53t100 -58t96 -64.5l-144 -184q-125 87 -215 128.5t-184 41.5q-123 0 -222 -75.5t-161 -205.5h514l-25 -143h-540q-19 -85 -25 -168h535l-27 -144h-504 q17 -135 81.5 -202.5t166.5 -67.5q167 0 457 166l115 -207q-171 -92 -323 -143.5t-306 -51.5q-200 0 -324 125.5t-141 380.5h-141z" />
<glyph unicode="&#x2122;" horiz-adv-x="1304" d="M246 1341l14 93h432l-12 -93h-162l-65 -366h-113l66 366h-160zM680 975l80 459h119l100 -271l205 271h119l-80 -459h-113l51 291l-162 -215h-71l-84 227l-51 -303h-113z" />
<glyph unicode="&#x25fc;" horiz-adv-x="1075" d="M0 0v1075h1075v-1075h-1075z" />
</font>
</defs>
</svg>
